<?xml version="1.0" encoding="UTF-8"?>
<svg width="247px" height="155px" viewBox="0 0 247 155" version="1.1" xmlns="http://www.w3.org/2000/svg" xmlns:xlink="http://www.w3.org/1999/xlink">
    <!-- Generator: Sketch 48.2 (47327) - http://www.bohemiancoding.com/sketch -->
    <title>Page 1</title>
    <desc>Created with Sketch.</desc>
    <defs></defs>
    <g id="merchMAKER" stroke="none" stroke-width="1" fill="none" fill-rule="evenodd" transform="translate(-356.000000, -3602.000000)">
        <g id="04-Logo-Evolution" transform="translate(94.000000, 3264.000000)" fill="#FEFEFE">
            <g id="2015" transform="translate(156.000000, 97.000000)">
                <g id="Group-2" transform="translate(30.000000, 98.000000)">
                    <g id="Page-1" transform="translate(76.000000, 143.000000)">
                        <path d="M0,134.7545 L4.392,134.7545 L4.392,137.6635 C4.703,137.2295 5.038,136.8175 5.397,136.4295 C5.756,136.0415 6.168,135.6905 6.635,135.3755 C7.101,135.0615 7.627,134.8135 8.214,134.6315 C8.8,134.4495 9.453,134.3585 10.17,134.3585 C11.534,134.3585 12.688,134.6675 13.633,135.2845 C14.578,135.9015 15.301,136.7195 15.804,137.7365 C16.574,136.7195 17.482,135.9015 18.529,135.2845 C19.576,134.6675 20.822,134.3585 22.266,134.3585 C24.359,134.3585 25.996,134.9875 27.175,136.2485 C28.354,137.5085 28.944,139.3025 28.944,141.6305 L28.944,153.7625 L24.552,153.7625 L24.552,142.9875 C24.552,141.4795 24.217,140.3295 23.549,139.5395 C22.879,138.7495 21.936,138.3545 20.718,138.3545 C19.523,138.3545 18.55,138.7555 17.797,139.5575 C17.044,140.3595 16.668,141.5265 16.668,143.0595 L16.668,153.7625 L12.276,153.7625 L12.276,142.9515 C12.276,141.4675 11.941,140.3295 11.272,139.5395 C10.604,138.7495 9.66,138.3545 8.441,138.3545 C7.223,138.3545 6.243,138.7735 5.503,139.6115 C4.762,140.4495 4.392,141.6105 4.392,143.0955 L4.392,153.7625 L0,153.7625 L0,134.7545 Z" id="Fill-1"></path>
                        <path d="M47.2319,142.9264 C47.1599,142.2304 47.0029,141.5764 46.7639,140.9644 C46.5239,140.3524 46.1999,139.8244 45.7919,139.3804 C45.3829,138.9364 44.8969,138.5824 44.3339,138.3184 C43.7699,138.0544 43.1279,137.9224 42.4079,137.9224 C41.0639,137.9224 39.9539,138.3844 39.0779,139.3084 C38.2019,140.2324 37.6679,141.4384 37.4759,142.9264 L47.2319,142.9264 Z M42.9119,154.1944 C41.5439,154.1944 40.2659,153.9534 39.0779,153.4744 C37.8899,152.9944 36.8579,152.3214 35.9819,151.4584 C35.1059,150.5944 34.4159,149.5564 33.9119,148.3444 C33.4079,147.1324 33.1559,145.7944 33.1559,144.3304 L33.1559,144.2584 C33.1559,142.8904 33.3839,141.6074 33.8399,140.4054 C34.2949,139.2064 34.9379,138.1554 35.7659,137.2564 C36.5939,136.3564 37.5709,135.6494 38.6999,135.1324 C39.8279,134.6164 41.0759,134.3584 42.4439,134.3584 C43.9559,134.3584 45.2819,134.6344 46.4219,135.1864 C47.5619,135.7394 48.5099,136.4824 49.2659,137.4184 C50.0219,138.3544 50.5919,139.4404 50.9759,140.6764 C51.3599,141.9124 51.5519,143.2144 51.5519,144.5824 C51.5519,144.7754 51.5459,144.9724 51.5339,145.1764 C51.5219,145.3804 51.5029,145.5904 51.4799,145.8064 L37.5119,145.8064 C37.7519,147.3664 38.3699,148.5604 39.3659,149.3884 C40.3609,150.2164 41.5669,150.6304 42.9839,150.6304 C44.0639,150.6304 44.9999,150.4384 45.7919,150.0544 C46.5839,149.6704 47.3629,149.1064 48.1319,148.3614 L50.6879,150.6304 C49.7759,151.7104 48.6899,152.5734 47.4299,153.2224 C46.1699,153.8704 44.6639,154.1944 42.9119,154.1944 Z" id="Fill-3"></path>
                        <path d="M55.9433,134.7545 L60.3353,134.7545 L60.3353,139.0385 C60.9353,137.5985 61.7873,136.4455 62.8913,135.5825 C63.9953,134.7185 65.3873,134.3215 67.0673,134.3945 L67.0673,139.0025 L66.8153,139.0025 C65.8553,139.0025 64.9793,139.1585 64.1873,139.4705 C63.3953,139.7825 62.7113,140.2505 62.1353,140.8745 C61.5593,141.4985 61.1153,142.2845 60.8033,143.2315 C60.4913,144.1805 60.3353,145.2785 60.3353,146.5255 L60.3353,153.7625 L55.9433,153.7625 L55.9433,134.7545 Z" id="Fill-6"></path>
                        <path d="M79.6313,154.194 C78.2143,154.194 76.9063,153.936 75.7063,153.421 C74.5053,152.905 73.4633,152.203 72.5803,151.314 C71.6973,150.426 71.0073,149.382 70.5113,148.182 C70.0153,146.982 69.7673,145.711 69.7673,144.366 L69.7673,144.294 C69.7673,142.951 70.0153,141.673 70.5113,140.461 C71.0073,139.249 71.6973,138.192 72.5803,137.293 C73.4633,136.392 74.5113,135.678 75.7243,135.15 C76.9373,134.623 78.2513,134.358 79.6673,134.358 C81.4673,134.358 82.9613,134.659 84.1493,135.258 C85.3373,135.858 86.3753,136.651 87.2633,137.634 L84.5633,140.55 C83.8913,139.854 83.1773,139.285 82.4213,138.84 C81.6653,138.396 80.7353,138.174 79.6313,138.174 C78.8393,138.174 78.1073,138.337 77.4353,138.661 C76.7633,138.984 76.1873,139.417 75.7073,139.957 C75.2273,140.497 74.8483,141.138 74.5733,141.882 C74.2973,142.627 74.1593,143.407 74.1593,144.222 L74.1593,144.294 C74.1593,145.134 74.2973,145.926 74.5733,146.671 C74.8483,147.415 75.2393,148.062 75.7433,148.614 C76.2473,149.167 76.8463,149.604 77.5433,149.928 C78.2383,150.253 79.0073,150.415 79.8473,150.415 C80.8793,150.415 81.7853,150.193 82.5653,149.749 C83.3443,149.304 84.0833,148.735 84.7793,148.039 L87.4073,150.63 C86.4713,151.687 85.4023,152.544 84.2033,153.205 C83.0033,153.864 81.4793,154.194 79.6313,154.194" id="Fill-8"></path>
                        <path d="M91.3672,127.482 L95.7592,127.482 L95.7592,137.737 C96.0702,137.277 96.4112,136.847 96.7822,136.448 C97.1532,136.048 97.5842,135.691 98.0752,135.376 C98.5652,135.061 99.1042,134.813 99.6902,134.632 C100.2762,134.45 100.9402,134.358 101.6822,134.358 C103.8362,134.358 105.4992,135.019 106.6722,136.339 C107.8452,137.659 108.4312,139.434 108.4312,141.667 L108.4312,153.762 L104.0392,153.762 L104.0392,142.988 C104.0392,141.503 103.6882,140.36 102.9862,139.557 C102.2842,138.755 101.2912,138.354 100.0062,138.354 C98.7452,138.354 97.7222,138.768 96.9372,139.593 C96.1522,140.42 95.7592,141.575 95.7592,143.059 L95.7592,153.762 L91.3672,153.762 L91.3672,127.482 Z" id="Fill-10"></path>
                        <polygon id="Fill-12" points="113.1831 128.5621 120.5631 128.5621 126.5751 138.3181 132.5871 128.5621 139.9671 128.5621 139.9671 153.7621 133.0191 153.7621 133.0191 139.2911 126.5931 149.1541 126.4491 149.1541 120.0591 139.3621 120.0591 153.7621 113.1831 153.7621"></polygon>
                        <path d="M159.2632,143.8619 L156.4552,136.6979 L153.6112,143.8619 L159.2632,143.8619 Z M153.1432,128.3829 L159.8752,128.3829 L170.6032,153.7619 L163.1152,153.7619 L161.2792,149.2619 L151.5592,149.2619 L149.7592,153.7619 L142.4152,153.7619 L153.1432,128.3829 Z" id="Fill-14"></path>
                        <polygon id="Fill-16" points="173.0513 128.5621 180.0353 128.5621 180.0353 138.7871 188.7113 128.5621 196.9913 128.5621 187.4513 139.3981 197.3153 153.7621 188.9273 153.7621 182.5913 144.4021 180.0353 147.2471 180.0353 153.7621 173.0513 153.7621"></polygon>
                        <polygon id="Fill-18" points="199.331 128.5621 219.563 128.5621 219.563 134.5021 206.207 134.5021 206.207 138.3181 218.303 138.3181 218.303 143.8271 206.207 143.8271 206.207 147.8221 219.743 147.8221 219.743 153.7621 199.331 153.7621"></polygon>
                        <path d="M234.935,140.6588 C236.135,140.6588 237.059,140.3888 237.707,139.8478 C238.355,139.3078 238.679,138.5828 238.679,137.6708 L238.679,137.5978 C238.679,136.5908 238.342,135.8408 237.671,135.3478 C236.999,134.8568 236.075,134.6098 234.899,134.6098 L230.327,134.6098 L230.327,140.6588 L234.935,140.6588 Z M223.343,128.5618 L235.259,128.5618 C237.203,128.5618 238.847,128.8028 240.191,129.2818 C241.535,129.7628 242.626,130.4338 243.467,131.2988 C244.955,132.7378 245.699,134.6948 245.699,137.1668 L245.699,137.2378 C245.699,139.1818 245.231,140.7908 244.295,142.0618 C243.359,143.3348 242.099,144.3068 240.515,144.9778 L246.527,153.7628 L238.463,153.7628 L233.387,146.1308 L233.315,146.1308 L230.327,146.1308 L230.327,153.7628 L223.343,153.7628 L223.343,128.5618 Z" id="Fill-20"></path>
                        <path d="M138.6528,36.8961 L133.9718,54.9921 C133.8128,55.6041 133.5538,56.6051 133.3958,57.2181 L128.7148,75.3151 C128.5568,75.9271 128.0528,76.0721 127.5948,75.6341 L117.1988,65.7181 C116.7398,65.2831 116.0098,65.2991 115.5728,65.7571 L107.1108,74.6291 C106.6738,75.0871 105.9428,75.1031 105.4858,74.6671 L101.4558,70.8241 C100.9978,70.3871 100.9798,69.6551 101.4178,69.1981 L109.8778,60.3271 C110.3138,59.8691 110.2968,59.1361 109.8398,58.7011 L99.6698,49.0011 C99.2128,48.5661 99.3328,48.0551 99.9368,47.8681 L117.7908,42.3351 C118.3948,42.1481 119.3838,41.8431 119.9878,41.6541 L137.8418,36.1231 C138.4468,35.9351 138.8118,36.2841 138.6528,36.8961 M141.8478,0.0001 C119.6098,27.5001 95.3478,0.0001 95.3478,0.0001 C68.8478,14.5001 56.3898,25.2641 56.3898,25.2641 C55.7378,26.1531 55.7508,27.5961 56.4178,28.4731 L71.5388,48.3311 C72.2058,49.2071 73.4798,49.3911 74.3678,48.7401 L83.2538,42.2181 C84.1418,41.5661 84.8688,41.9331 84.8688,43.0361 L84.8688,109.6091 C84.8688,110.7091 85.7698,111.6121 86.8718,111.6121 L151.3868,111.6121 C152.4878,111.6121 153.3898,110.7091 153.3898,109.6091 L153.3898,43.0361 C153.3898,41.9331 154.1028,41.5821 154.9758,42.2551 L163.0848,48.5171 C163.9568,49.1921 165.2578,49.0571 165.9758,48.2211 L184.3078,26.8791 C156.8478,7.5001 141.8478,0.0001 141.8478,0.0001" id="Fill-22"></path>
                    </g>
                </g>
            </g>
        </g>
    </g>
</svg>