<?xml version="1.0" encoding="UTF-8"?>
<svg width="193px" height="124px" viewBox="0 0 193 124" version="1.1" xmlns="http://www.w3.org/2000/svg" xmlns:xlink="http://www.w3.org/1999/xlink">
    <!-- Generator: Sketch 48.2 (47327) - http://www.bohemiancoding.com/sketch -->
    <title>Page 1</title>
    <desc>Created with Sketch.</desc>
    <defs></defs>
    <g id="merchMAKER" stroke="none" stroke-width="1" fill="none" fill-rule="evenodd" transform="translate(-863.000000, -4153.000000)">
        <g id="04-Logo-Evolution" transform="translate(94.000000, 3264.000000)" fill="#FEFEFE">
            <g id="2016" transform="translate(155.000000, 610.000000)">
                <g id="Group-3" transform="translate(0.000000, 97.000000)">
                    <g id="Page-1" transform="translate(614.000000, 182.000000)">
                        <path d="M44.8557,89.8999 L40.0757,89.8999 L40.0757,48.6289 L44.8557,48.6289 L44.8557,54.8439 L45.0157,54.8439 C46.2367,52.4539 47.9887,50.6349 50.2737,49.3859 C52.5567,48.1389 55.0537,47.5139 57.7627,47.5139 C59.6747,47.5139 61.2947,47.7269 62.6227,48.1509 C63.9497,48.5769 65.0787,49.1469 66.0087,49.8639 C66.9377,50.5819 67.7087,51.4179 68.3197,52.3739 C68.9297,53.3299 69.4477,54.3659 69.8727,55.4809 C71.2537,52.7719 73.0997,50.7679 75.4107,49.4659 C77.7207,48.1649 80.3627,47.5139 83.3377,47.5139 C86.1527,47.5139 88.3967,47.9799 90.0697,48.9079 C91.7437,49.8379 93.0307,51.0599 93.9347,52.5729 C94.8367,54.0869 95.4347,55.8269 95.7267,57.7919 C96.0187,59.7579 96.1647,61.7759 96.1647,63.8469 L96.1647,89.8999 L91.3847,89.8999 L91.3847,61.3769 C91.3847,58.4029 90.7597,56.0669 89.5127,54.3659 C88.2637,52.6669 85.9397,51.8159 82.5407,51.8159 C80.7877,51.8159 79.1017,52.2019 77.4817,52.9719 C75.8607,53.7419 74.4407,54.9239 73.2197,56.5169 C72.6877,57.2079 72.2497,58.0179 71.9047,58.9469 C71.5587,59.8769 71.2797,60.8469 71.0677,61.8549 C70.8547,62.8649 70.7097,63.8749 70.6297,64.8829 C70.5497,65.8919 70.5107,66.8219 70.5107,67.6709 L70.5107,89.8999 L65.7297,89.8999 L65.7297,61.3769 C65.7297,58.4029 65.1047,56.0669 63.8577,54.3659 C62.6087,52.6669 60.2847,51.8159 56.8867,51.8159 C55.1337,51.8159 53.4467,52.2019 51.8267,52.9719 C50.2057,53.7419 48.7857,54.9239 47.5647,56.5169 C47.0327,57.2079 46.5947,58.0179 46.2497,58.9469 C45.9037,59.8769 45.6247,60.8469 45.4137,61.8549 C45.2007,62.8649 45.0547,63.8749 44.9747,64.8829 C44.8957,65.8919 44.8557,66.8219 44.8557,67.6709 L44.8557,89.8999 Z" id="Fill-1"></path>
                        <polygon id="Fill-3" points="117.2758 33.0136 123.2518 66.7146 123.4108 66.7146 129.3858 33.0136 150.5788 33.0136 150.5788 89.8996 136.7158 89.8996 136.7158 47.5136 136.5568 47.5136 128.6688 89.8996 117.9928 89.8996 110.1048 47.5136 109.9458 47.5136 109.9458 89.8996 96.0828 89.8996 96.0828 33.0136"></polygon>
                        <polygon id="Fill-5" points="0 69.639 42.387 69.639 42.387 65.589 0 65.589"></polygon>
                        <polygon id="Fill-7" points="149.003 72.677 192.005 72.677 192.005 62.551 149.003 62.551"></polygon>
                        <path d="M43.2877,3.8549 C40.0997,3.8549 37.5057,6.4489 37.5057,9.6369 L37.5057,113.7159 C37.5057,116.9049 40.0997,119.4979 43.2877,119.4979 L147.3667,119.4979 C150.5547,119.4979 153.1487,116.9049 153.1487,113.7159 L153.1487,9.6369 C153.1487,6.4489 150.5547,3.8549 147.3667,3.8549 L43.2877,3.8549 Z M147.3667,123.3529 L43.2877,123.3529 C37.9737,123.3529 33.6507,119.0319 33.6507,113.7159 L33.6507,9.6369 C33.6507,4.3219 37.9737,-0.0001 43.2877,-0.0001 L147.3667,-0.0001 C152.6797,-0.0001 157.0037,4.3219 157.0037,9.6369 L157.0037,113.7159 C157.0037,119.0319 152.6797,123.3529 147.3667,123.3529 Z" id="Fill-8"></path>
                    </g>
                </g>
            </g>
        </g>
    </g>
</svg>