<?xml version="1.0" encoding="UTF-8"?>
<svg width="337px" height="64px" viewBox="0 0 337 64" version="1.1" xmlns="http://www.w3.org/2000/svg" xmlns:xlink="http://www.w3.org/1999/xlink">
    <!-- Generator: Sketch 48.2 (47327) - http://www.bohemiancoding.com/sketch -->
    <title>ABCDEFGHIJKLMNOPQRST</title>
    <desc>Created with Sketch.</desc>
    <defs></defs>
    <g id="Vision-Direct" stroke="none" stroke-width="1" fill="none" fill-rule="evenodd" transform="translate(-665.000000, -1814.000000)">
        <path d="M665.648,1825.812 C665.648,1825.614 665.72,1825.416 665.81,1825.218 L670.202,1815.3 C670.508,1814.616 671.066,1814.202 671.822,1814.202 L671.984,1814.202 C672.74,1814.202 673.28,1814.616 673.586,1815.3 L677.978,1825.218 C678.068,1825.416 678.122,1825.596 678.122,1825.776 C678.122,1826.514 677.546,1827.108 676.808,1827.108 C676.16,1827.108 675.728,1826.73 675.476,1826.154 L674.63,1824.174 L669.086,1824.174 L668.204,1826.244 C667.97,1826.784 667.502,1827.108 666.926,1827.108 C666.206,1827.108 665.648,1826.532 665.648,1825.812 Z M670.112,1821.726 L673.604,1821.726 L671.858,1817.568 L670.112,1821.726 Z M680.3,1825.614 L680.3,1815.786 C680.3,1815.012 680.912,1814.4 681.686,1814.4 L686.15,1814.4 C687.59,1814.4 688.724,1814.796 689.444,1815.516 C690.02,1816.092 690.308,1816.794 690.308,1817.658 L690.308,1817.694 C690.308,1819.116 689.552,1819.908 688.652,1820.412 C690.11,1820.97 691.01,1821.816 691.01,1823.508 L691.01,1823.544 C691.01,1825.848 689.138,1827 686.294,1827 L681.686,1827 C680.912,1827 680.3,1826.388 680.3,1825.614 Z M683,1819.494 L685.556,1819.494 C686.78,1819.494 687.554,1819.098 687.554,1818.162 L687.554,1818.126 C687.554,1817.298 686.906,1816.83 685.736,1816.83 L683,1816.83 L683,1819.494 Z M683,1824.57 L686.294,1824.57 C687.518,1824.57 688.256,1824.138 688.256,1823.202 L688.256,1823.166 C688.256,1822.32 687.626,1821.798 686.204,1821.798 L683,1821.798 L683,1824.57 Z M699.2,1827.216 C695.492,1827.216 692.738,1824.354 692.738,1820.736 L692.738,1820.7 C692.738,1817.118 695.438,1814.184 699.308,1814.184 C701.198,1814.184 702.476,1814.688 703.52,1815.462 C703.808,1815.678 704.06,1816.074 704.06,1816.56 C704.06,1817.316 703.448,1817.91 702.692,1817.91 C702.314,1817.91 702.062,1817.766 701.864,1817.64 C701.09,1817.064 700.28,1816.74 699.29,1816.74 C697.166,1816.74 695.636,1818.504 695.636,1820.664 L695.636,1820.7 C695.636,1822.86 697.13,1824.66 699.29,1824.66 C700.46,1824.66 701.234,1824.3 702.026,1823.67 C702.242,1823.49 702.53,1823.364 702.854,1823.364 C703.556,1823.364 704.15,1823.94 704.15,1824.642 C704.15,1825.074 703.934,1825.416 703.682,1825.632 C702.548,1826.622 701.216,1827.216 699.2,1827.216 Z M706.58,1825.614 L706.58,1815.786 C706.58,1815.012 707.192,1814.4 707.966,1814.4 L711.494,1814.4 C715.454,1814.4 718.19,1817.118 718.19,1820.664 L718.19,1820.7 C718.19,1824.246 715.454,1827 711.494,1827 L707.966,1827 C707.192,1827 706.58,1826.388 706.58,1825.614 Z M709.352,1824.498 L711.494,1824.498 C713.762,1824.498 715.292,1822.968 715.292,1820.736 L715.292,1820.7 C715.292,1818.468 713.762,1816.902 711.494,1816.902 L709.352,1816.902 L709.352,1824.498 Z M722.042,1827 C721.268,1827 720.656,1826.388 720.656,1825.614 L720.656,1815.786 C720.656,1815.012 721.268,1814.4 722.042,1814.4 L729.026,1814.4 C729.71,1814.4 730.268,1814.958 730.268,1815.642 C730.268,1816.326 729.71,1816.866 729.026,1816.866 L723.41,1816.866 L723.41,1819.422 L728.216,1819.422 C728.9,1819.422 729.458,1819.98 729.458,1820.664 C729.458,1821.348 728.9,1821.888 728.216,1821.888 L723.41,1821.888 L723.41,1824.534 L729.116,1824.534 C729.8,1824.534 730.358,1825.092 730.358,1825.776 C730.358,1826.46 729.8,1827 729.116,1827 L722.042,1827 Z M732.716,1825.722 L732.716,1815.786 C732.716,1815.012 733.328,1814.4 734.102,1814.4 L741.158,1814.4 C741.86,1814.4 742.418,1814.958 742.418,1815.66 C742.418,1816.362 741.86,1816.92 741.158,1816.92 L735.488,1816.92 L735.488,1819.602 L740.348,1819.602 C741.05,1819.602 741.608,1820.16 741.608,1820.862 C741.608,1821.564 741.05,1822.122 740.348,1822.122 L735.488,1822.122 L735.488,1825.722 C735.488,1826.496 734.876,1827.108 734.102,1827.108 C733.328,1827.108 732.716,1826.496 732.716,1825.722 Z M750.59,1827.216 C746.666,1827.216 743.966,1824.462 743.966,1820.736 L743.966,1820.7 C743.966,1817.118 746.756,1814.184 750.572,1814.184 C752.48,1814.184 753.74,1814.616 754.874,1815.408 C755.144,1815.606 755.45,1815.984 755.45,1816.524 C755.45,1817.28 754.838,1817.892 754.082,1817.892 C753.686,1817.892 753.434,1817.748 753.236,1817.604 C752.48,1817.064 751.67,1816.74 750.482,1816.74 C748.466,1816.74 746.864,1818.522 746.864,1820.664 L746.864,1820.7 C746.864,1823.004 748.448,1824.696 750.68,1824.696 C751.688,1824.696 752.588,1824.444 753.29,1823.94 L753.29,1822.14 L751.418,1822.14 C750.752,1822.14 750.212,1821.618 750.212,1820.952 C750.212,1820.286 750.752,1819.746 751.418,1819.746 L754.586,1819.746 C755.36,1819.746 755.972,1820.358 755.972,1821.132 L755.972,1824.192 C755.972,1825.002 755.666,1825.56 755,1825.956 C753.974,1826.586 752.48,1827.216 750.59,1827.216 Z M758.636,1825.722 L758.636,1815.678 C758.636,1814.904 759.248,1814.292 760.022,1814.292 C760.796,1814.292 761.408,1814.904 761.408,1815.678 L761.408,1819.386 L766.52,1819.386 L766.52,1815.678 C766.52,1814.904 767.132,1814.292 767.906,1814.292 C768.68,1814.292 769.292,1814.904 769.292,1815.678 L769.292,1825.722 C769.292,1826.496 768.68,1827.108 767.906,1827.108 C767.132,1827.108 766.52,1826.496 766.52,1825.722 L766.52,1821.942 L761.408,1821.942 L761.408,1825.722 C761.408,1826.496 760.796,1827.108 760.022,1827.108 C759.248,1827.108 758.636,1826.496 758.636,1825.722 Z M772.442,1825.722 L772.442,1815.678 C772.442,1814.904 773.054,1814.292 773.828,1814.292 C774.602,1814.292 775.214,1814.904 775.214,1815.678 L775.214,1825.722 C775.214,1826.496 774.602,1827.108 773.828,1827.108 C773.054,1827.108 772.442,1826.496 772.442,1825.722 Z M781.226,1827.18 C779.786,1827.18 778.688,1826.694 777.896,1826.082 C777.608,1825.866 777.374,1825.452 777.374,1825.02 C777.374,1824.282 777.95,1823.688 778.688,1823.688 C779.03,1823.688 779.246,1823.778 779.516,1823.976 C780.074,1824.39 780.56,1824.606 781.19,1824.606 C782.27,1824.606 782.918,1823.976 782.918,1822.518 L782.918,1815.678 C782.918,1814.904 783.53,1814.292 784.304,1814.292 C785.078,1814.292 785.69,1814.904 785.69,1815.678 L785.69,1822.644 C785.69,1824.138 785.258,1825.254 784.502,1826.01 C783.728,1826.784 782.594,1827.18 781.226,1827.18 Z M788.516,1825.722 L788.516,1815.678 C788.516,1814.904 789.128,1814.292 789.902,1814.292 C790.676,1814.292 791.288,1814.904 791.288,1815.678 L791.288,1819.908 L796.4,1814.832 C796.742,1814.49 797.084,1814.292 797.57,1814.292 C798.344,1814.292 798.848,1814.886 798.848,1815.57 C798.848,1816.002 798.65,1816.326 798.344,1816.614 L794.798,1819.926 L798.668,1824.786 C798.884,1825.056 799.046,1825.344 799.046,1825.758 C799.046,1826.532 798.452,1827.108 797.642,1827.108 C797.102,1827.108 796.778,1826.838 796.472,1826.442 L792.872,1821.726 L791.288,1823.202 L791.288,1825.722 C791.288,1826.496 790.676,1827.108 789.902,1827.108 C789.128,1827.108 788.516,1826.496 788.516,1825.722 Z M801.332,1825.614 L801.332,1815.678 C801.332,1814.904 801.944,1814.292 802.718,1814.292 C803.492,1814.292 804.104,1814.904 804.104,1815.678 L804.104,1824.48 L809.234,1824.48 C809.936,1824.48 810.494,1825.038 810.494,1825.74 C810.494,1826.442 809.936,1827 809.234,1827 L802.718,1827 C801.944,1827 801.332,1826.388 801.332,1825.614 Z M812.474,1825.758 L812.474,1815.714 C812.474,1814.94 813.086,1814.328 813.86,1814.328 L814.166,1814.328 C814.76,1814.328 815.174,1814.634 815.426,1815.048 L818.774,1820.502 L822.14,1815.03 C822.428,1814.562 822.824,1814.328 823.382,1814.328 L823.688,1814.328 C824.462,1814.328 825.074,1814.94 825.074,1815.714 L825.074,1825.722 C825.074,1826.496 824.462,1827.108 823.688,1827.108 C822.932,1827.108 822.32,1826.478 822.32,1825.722 L822.32,1819.44 L819.89,1823.184 C819.602,1823.616 819.242,1823.886 818.738,1823.886 C818.234,1823.886 817.874,1823.616 817.586,1823.184 L815.192,1819.494 L815.192,1825.758 C815.192,1826.514 814.58,1827.108 813.824,1827.108 C813.068,1827.108 812.474,1826.514 812.474,1825.758 Z M828.098,1825.74 L828.098,1815.714 C828.098,1814.94 828.71,1814.328 829.484,1814.328 L829.772,1814.328 C830.438,1814.328 830.834,1814.652 831.212,1815.138 L836.558,1822.158 L836.558,1815.66 C836.558,1814.904 837.17,1814.292 837.926,1814.292 C838.682,1814.292 839.294,1814.904 839.294,1815.66 L839.294,1825.686 C839.294,1826.46 838.682,1827.072 837.908,1827.072 L837.818,1827.072 C837.152,1827.072 836.756,1826.748 836.378,1826.262 L830.834,1818.99 L830.834,1825.74 C830.834,1826.496 830.222,1827.108 829.466,1827.108 C828.71,1827.108 828.098,1826.496 828.098,1825.74 Z M848.438,1827.216 C844.55,1827.216 841.76,1824.318 841.76,1820.736 L841.76,1820.7 C841.76,1817.118 844.586,1814.184 848.474,1814.184 C852.362,1814.184 855.152,1817.082 855.152,1820.664 L855.152,1820.7 C855.152,1824.282 852.326,1827.216 848.438,1827.216 Z M848.474,1824.66 C850.706,1824.66 852.254,1822.896 852.254,1820.736 L852.254,1820.7 C852.254,1818.54 850.67,1816.74 848.438,1816.74 C846.206,1816.74 844.658,1818.504 844.658,1820.664 L844.658,1820.7 C844.658,1822.86 846.242,1824.66 848.474,1824.66 Z M857.618,1825.722 L857.618,1815.786 C857.618,1815.012 858.23,1814.4 859.004,1814.4 L862.766,1814.4 C865.772,1814.4 867.59,1816.182 867.59,1818.756 L867.59,1818.792 C867.59,1821.708 865.322,1823.22 862.496,1823.22 L860.39,1823.22 L860.39,1825.722 C860.39,1826.496 859.778,1827.108 859.004,1827.108 C858.23,1827.108 857.618,1826.496 857.618,1825.722 Z M860.39,1820.754 L862.586,1820.754 C863.972,1820.754 864.782,1819.926 864.782,1818.846 L864.782,1818.81 C864.782,1817.568 863.918,1816.902 862.532,1816.902 L860.39,1816.902 L860.39,1820.754 Z M875.762,1827.216 C871.874,1827.216 869.084,1824.318 869.084,1820.736 L869.084,1820.7 C869.084,1817.118 871.91,1814.184 875.798,1814.184 C879.686,1814.184 882.476,1817.082 882.476,1820.664 L882.476,1820.7 C882.476,1822.032 882.062,1823.274 881.36,1824.318 L881.9,1824.768 C882.188,1825.02 882.404,1825.362 882.404,1825.812 C882.404,1826.532 881.828,1827.126 881.108,1827.126 C880.73,1827.126 880.406,1826.964 880.19,1826.748 L879.506,1826.136 C878.444,1826.82 877.166,1827.216 875.762,1827.216 Z M876.14,1823.202 C875.852,1822.95 875.636,1822.608 875.636,1822.158 C875.636,1821.438 876.212,1820.844 876.932,1820.844 C877.31,1820.844 877.562,1820.97 877.85,1821.222 L879.236,1822.464 C879.452,1821.96 879.578,1821.366 879.578,1820.736 L879.578,1820.7 C879.578,1818.54 877.994,1816.74 875.762,1816.74 C873.53,1816.74 871.982,1818.504 871.982,1820.664 L871.982,1820.7 C871.982,1822.86 873.566,1824.66 875.798,1824.66 C876.41,1824.66 876.968,1824.552 877.454,1824.318 L876.14,1823.202 Z M884.942,1825.722 L884.942,1815.786 C884.942,1815.012 885.554,1814.4 886.328,1814.4 L890.702,1814.4 C892.304,1814.4 893.546,1814.85 894.374,1815.678 C895.076,1816.38 895.454,1817.37 895.454,1818.558 L895.454,1818.594 C895.454,1820.574 894.464,1821.798 892.934,1822.428 L894.86,1824.768 C895.13,1825.11 895.31,1825.398 895.31,1825.83 C895.31,1826.604 894.662,1827.108 893.996,1827.108 C893.366,1827.108 892.952,1826.802 892.628,1826.388 L889.928,1822.968 L887.714,1822.968 L887.714,1825.722 C887.714,1826.496 887.102,1827.108 886.328,1827.108 C885.554,1827.108 884.942,1826.496 884.942,1825.722 Z M887.714,1820.52 L890.522,1820.52 C891.872,1820.52 892.646,1819.8 892.646,1818.738 L892.646,1818.702 C892.646,1817.514 891.818,1816.902 890.468,1816.902 L887.714,1816.902 L887.714,1820.52 Z M902.438,1827.18 C900.782,1827.18 899.108,1826.676 897.704,1825.668 C897.398,1825.452 897.182,1825.056 897.182,1824.624 C897.182,1823.904 897.758,1823.346 898.478,1823.346 C898.838,1823.346 899.09,1823.472 899.27,1823.598 C900.224,1824.3 901.268,1824.732 902.492,1824.732 C903.626,1824.732 904.31,1824.282 904.31,1823.544 L904.31,1823.508 C904.31,1822.806 903.878,1822.446 901.772,1821.906 C899.234,1821.258 897.596,1820.556 897.596,1818.054 L897.596,1818.018 C897.596,1815.732 899.432,1814.22 902.006,1814.22 C903.536,1814.22 904.868,1814.616 906.002,1815.336 C906.308,1815.516 906.614,1815.894 906.614,1816.434 C906.614,1817.154 906.038,1817.712 905.318,1817.712 C905.048,1817.712 904.832,1817.64 904.616,1817.514 C903.698,1816.974 902.834,1816.668 901.97,1816.668 C900.908,1816.668 900.35,1817.154 900.35,1817.766 L900.35,1817.802 C900.35,1818.63 900.89,1818.9 903.068,1819.458 C905.624,1820.124 907.064,1821.042 907.064,1823.238 L907.064,1823.274 C907.064,1825.776 905.156,1827.18 902.438,1827.18 Z M912.14,1825.722 L912.14,1816.956 L909.476,1816.956 C908.774,1816.956 908.198,1816.38 908.198,1815.678 C908.198,1814.976 908.774,1814.4 909.476,1814.4 L917.576,1814.4 C918.278,1814.4 918.854,1814.976 918.854,1815.678 C918.854,1816.38 918.278,1816.956 917.576,1816.956 L914.912,1816.956 L914.912,1825.722 C914.912,1826.496 914.3,1827.108 913.526,1827.108 C912.752,1827.108 912.14,1826.496 912.14,1825.722 Z M926.126,1827.198 C922.742,1827.198 920.672,1825.308 920.672,1821.6 L920.672,1815.678 C920.672,1814.904 921.284,1814.292 922.058,1814.292 C922.832,1814.292 923.444,1814.904 923.444,1815.678 L923.444,1821.528 C923.444,1823.58 924.47,1824.642 926.162,1824.642 C927.854,1824.642 928.88,1823.616 928.88,1821.618 L928.88,1815.678 C928.88,1814.904 929.492,1814.292 930.266,1814.292 C931.04,1814.292 931.652,1814.904 931.652,1815.678 L931.652,1821.51 C931.652,1825.326 929.51,1827.198 926.126,1827.198 Z M939.41,1827.198 C938.654,1827.198 938.132,1826.784 937.844,1826.1 L933.758,1816.326 C933.668,1816.11 933.596,1815.894 933.596,1815.66 C933.596,1814.886 934.208,1814.292 934.982,1814.292 C935.702,1814.292 936.17,1814.706 936.386,1815.264 L939.536,1823.418 L942.722,1815.174 C942.902,1814.724 943.388,1814.292 944.054,1814.292 C944.81,1814.292 945.422,1814.868 945.422,1815.624 C945.422,1815.84 945.35,1816.074 945.278,1816.236 L941.156,1826.1 C940.868,1826.784 940.346,1827.198 939.59,1827.198 L939.41,1827.198 Z M950.102,1826.064 L946.574,1816.164 C946.52,1816.002 946.466,1815.804 946.466,1815.642 C946.466,1814.868 947.114,1814.292 947.888,1814.292 C948.536,1814.292 949.058,1814.706 949.238,1815.282 L951.74,1823.004 L954.26,1815.354 C954.476,1814.706 954.962,1814.256 955.664,1814.256 L955.88,1814.256 C956.582,1814.256 957.068,1814.688 957.284,1815.354 L959.804,1823.004 L962.306,1815.282 C962.486,1814.742 962.954,1814.292 963.638,1814.292 C964.394,1814.292 965.006,1814.868 965.006,1815.624 C965.006,1815.786 964.952,1816.002 964.898,1816.164 L961.37,1826.064 C961.118,1826.766 960.596,1827.198 959.93,1827.198 L959.642,1827.198 C958.976,1827.198 958.472,1826.784 958.22,1826.064 L955.736,1818.846 L953.252,1826.064 C953,1826.784 952.496,1827.198 951.83,1827.198 L951.542,1827.198 C950.876,1827.198 950.354,1826.766 950.102,1826.064 Z M966.266,1825.83 C966.266,1825.434 966.41,1825.11 966.68,1824.768 L970.082,1820.592 L966.878,1816.686 C966.662,1816.416 966.464,1816.056 966.464,1815.66 C966.464,1814.886 967.04,1814.292 967.832,1814.292 C968.426,1814.292 968.768,1814.526 969.11,1814.976 L971.864,1818.648 L974.6,1815.048 C974.978,1814.562 975.338,1814.292 975.95,1814.292 C976.562,1814.292 977.21,1814.778 977.21,1815.57 C977.21,1815.966 977.066,1816.29 976.796,1816.632 L973.592,1820.556 L976.976,1824.714 C977.192,1824.984 977.39,1825.344 977.39,1825.74 C977.39,1826.514 976.814,1827.108 976.022,1827.108 C975.428,1827.108 975.086,1826.874 974.744,1826.424 L971.792,1822.554 L968.876,1826.352 C968.498,1826.838 968.138,1827.108 967.526,1827.108 C966.914,1827.108 966.266,1826.622 966.266,1825.83 Z M982.754,1825.722 L982.754,1822.14 L978.686,1816.614 C978.488,1816.344 978.344,1816.02 978.344,1815.624 C978.344,1814.886 978.956,1814.292 979.73,1814.292 C980.36,1814.292 980.756,1814.634 981.098,1815.138 L984.158,1819.548 L987.272,1815.102 C987.614,1814.598 988.028,1814.274 988.604,1814.274 C989.45,1814.274 989.954,1814.868 989.954,1815.624 C989.954,1816.002 989.774,1816.344 989.594,1816.596 L985.526,1822.086 L985.526,1825.722 C985.526,1826.496 984.914,1827.108 984.14,1827.108 C983.366,1827.108 982.754,1826.496 982.754,1825.722 Z M992.402,1827 C991.736,1827 991.178,1826.442 991.178,1825.776 L991.178,1825.722 C991.178,1825.236 991.358,1824.804 991.682,1824.426 L998.216,1816.83 L992.618,1816.83 C991.952,1816.83 991.394,1816.29 991.394,1815.624 C991.394,1814.958 991.952,1814.4 992.618,1814.4 L1000.664,1814.4 C1001.33,1814.4 1001.888,1814.958 1001.888,1815.624 L1001.888,1815.678 C1001.888,1816.164 1001.708,1816.578 1001.384,1816.974 L994.85,1824.57 L1000.664,1824.57 C1001.33,1824.57 1001.888,1825.128 1001.888,1825.794 C1001.888,1826.46 1001.33,1827 1000.664,1827 L992.402,1827 Z M669.32,1852.198 C667.592,1852.198 665.846,1851.208 665.846,1849.3 L665.846,1849.264 C665.846,1847.302 667.466,1846.258 669.824,1846.258 C671.012,1846.258 671.858,1846.42 672.686,1846.654 L672.686,1846.33 C672.686,1844.656 671.66,1843.792 669.914,1843.792 C668.978,1843.792 668.186,1844.008 667.502,1844.314 C667.412,1844.35 667.322,1844.368 667.25,1844.368 C666.926,1844.368 666.638,1844.098 666.638,1843.774 C666.638,1843.486 666.836,1843.27 667.016,1843.198 C667.934,1842.802 668.87,1842.568 670.058,1842.568 C671.372,1842.568 672.38,1842.91 673.064,1843.594 C673.694,1844.224 674.018,1845.124 674.018,1846.312 L674.018,1851.406 C674.018,1851.802 673.73,1852.09 673.352,1852.09 C672.956,1852.09 672.686,1851.802 672.686,1851.442 L672.686,1850.596 C672.038,1851.442 670.958,1852.198 669.32,1852.198 Z M669.59,1851.1 C671.3,1851.1 672.704,1850.056 672.704,1848.58 L672.704,1847.68 C672.02,1847.482 671.102,1847.284 669.968,1847.284 C668.222,1847.284 667.25,1848.04 667.25,1849.21 L667.25,1849.246 C667.25,1850.416 668.33,1851.1 669.59,1851.1 Z M676.97,1851.388 L676.97,1839.472 C676.97,1839.076 677.276,1838.77 677.654,1838.77 C678.05,1838.77 678.356,1839.076 678.356,1839.472 L678.356,1844.566 C679.112,1843.45 680.21,1842.496 681.92,1842.496 C684.152,1842.496 686.366,1844.26 686.366,1847.32 L686.366,1847.356 C686.366,1850.398 684.17,1852.198 681.92,1852.198 C680.192,1852.198 679.076,1851.262 678.356,1850.218 L678.356,1851.388 C678.356,1851.766 678.068,1852.09 677.672,1852.09 C677.276,1852.09 676.97,1851.766 676.97,1851.388 Z M681.668,1850.956 C683.468,1850.956 684.944,1849.624 684.944,1847.374 L684.944,1847.338 C684.944,1845.142 683.432,1843.738 681.668,1843.738 C679.94,1843.738 678.302,1845.196 678.302,1847.32 L678.302,1847.356 C678.302,1849.516 679.94,1850.956 681.668,1850.956 Z M693.116,1852.216 C690.398,1852.216 688.346,1850.002 688.346,1847.392 L688.346,1847.356 C688.346,1844.728 690.398,1842.496 693.116,1842.496 C694.664,1842.496 695.708,1843.09 696.536,1843.846 C696.644,1843.936 696.752,1844.116 696.752,1844.332 C696.752,1844.71 696.446,1844.998 696.086,1844.998 C695.906,1844.998 695.744,1844.926 695.636,1844.836 C694.97,1844.224 694.214,1843.72 693.098,1843.72 C691.208,1843.72 689.768,1845.322 689.768,1847.32 L689.768,1847.356 C689.768,1849.372 691.244,1850.974 693.188,1850.974 C694.25,1850.974 695.096,1850.488 695.78,1849.84 C695.87,1849.75 695.996,1849.66 696.176,1849.66 C696.518,1849.66 696.806,1849.966 696.806,1850.29 C696.806,1850.452 696.734,1850.614 696.626,1850.722 C695.744,1851.604 694.682,1852.216 693.116,1852.216 Z M707.876,1839.472 L707.876,1851.388 C707.876,1851.784 707.57,1852.09 707.192,1852.09 C706.796,1852.09 706.49,1851.784 706.49,1851.388 L706.49,1850.128 C705.734,1851.244 704.636,1852.198 702.926,1852.198 C700.694,1852.198 698.48,1850.434 698.48,1847.374 L698.48,1847.338 C698.48,1844.296 700.694,1842.496 702.926,1842.496 C704.654,1842.496 705.77,1843.432 706.49,1844.476 L706.49,1839.472 C706.49,1839.076 706.778,1838.77 707.174,1838.77 C707.57,1838.77 707.876,1839.076 707.876,1839.472 Z M703.178,1843.738 C701.378,1843.738 699.902,1845.07 699.902,1847.32 L699.902,1847.356 C699.902,1849.552 701.432,1850.956 703.178,1850.956 C704.906,1850.956 706.544,1849.498 706.544,1847.356 L706.544,1847.32 C706.544,1845.178 704.906,1843.738 703.178,1843.738 Z M711.8,1846.834 L717.794,1846.834 C717.65,1845.142 716.678,1843.666 714.824,1843.666 C713.204,1843.666 711.98,1845.016 711.8,1846.834 Z M718.55,1850.812 C717.668,1851.658 716.624,1852.216 715.04,1852.216 C712.484,1852.216 710.396,1850.254 710.396,1847.374 L710.396,1847.338 C710.396,1844.656 712.286,1842.496 714.86,1842.496 C717.614,1842.496 719.18,1844.746 719.18,1847.212 C719.18,1847.59 718.874,1847.86 718.532,1847.86 L711.8,1847.86 C711.998,1849.876 713.42,1851.01 715.076,1851.01 C716.228,1851.01 717.074,1850.56 717.758,1849.93 C717.866,1849.84 717.992,1849.768 718.154,1849.768 C718.496,1849.768 718.766,1850.038 718.766,1850.362 C718.766,1850.524 718.694,1850.686 718.55,1850.812 Z M722.15,1851.388 L722.15,1843.918 L721.394,1843.918 C721.052,1843.918 720.8,1843.648 720.8,1843.306 C720.8,1842.982 721.07,1842.712 721.394,1842.712 L722.15,1842.712 L722.15,1841.902 C722.15,1840.84 722.438,1840.03 722.96,1839.508 C723.428,1839.04 724.112,1838.788 724.958,1838.788 C725.408,1838.788 725.75,1838.824 726.056,1838.896 C726.326,1838.95 726.56,1839.184 726.56,1839.49 C726.56,1839.85 726.254,1840.12 725.894,1840.084 C725.66,1840.048 725.408,1839.994 725.138,1839.994 C724.058,1839.994 723.518,1840.642 723.518,1841.974 L723.518,1842.73 L725.93,1842.73 C726.272,1842.73 726.542,1842.982 726.542,1843.324 C726.542,1843.648 726.272,1843.918 725.93,1843.918 L723.536,1843.918 L723.536,1851.388 C723.536,1851.766 723.248,1852.09 722.852,1852.09 C722.456,1852.09 722.15,1851.766 722.15,1851.388 Z M732.176,1854.916 C730.754,1854.916 729.458,1854.538 728.288,1853.818 C728.072,1853.71 727.928,1853.494 727.928,1853.242 C727.928,1852.936 728.234,1852.63 728.558,1852.63 C728.684,1852.63 728.774,1852.666 728.864,1852.72 C729.836,1853.368 730.952,1853.728 732.158,1853.728 C734.21,1853.728 735.542,1852.594 735.542,1850.416 L735.542,1849.318 C734.732,1850.398 733.598,1851.28 731.888,1851.28 C729.656,1851.28 727.514,1849.606 727.514,1846.924 L727.514,1846.888 C727.514,1844.17 729.674,1842.496 731.888,1842.496 C733.634,1842.496 734.768,1843.36 735.524,1844.368 L735.524,1843.306 C735.524,1842.928 735.812,1842.604 736.208,1842.604 C736.604,1842.604 736.91,1842.928 736.91,1843.306 L736.91,1850.38 C736.91,1851.82 736.478,1852.918 735.722,1853.674 C734.894,1854.502 733.652,1854.916 732.176,1854.916 Z M732.158,1850.056 C733.922,1850.056 735.578,1848.778 735.578,1846.906 L735.578,1846.87 C735.578,1844.962 733.922,1843.72 732.158,1843.72 C730.394,1843.72 728.936,1844.944 728.936,1846.852 L728.936,1846.888 C728.936,1848.76 730.43,1850.056 732.158,1850.056 Z M740.006,1851.388 L740.006,1839.472 C740.006,1839.094 740.312,1838.77 740.69,1838.77 C741.086,1838.77 741.392,1839.094 741.392,1839.472 L741.392,1844.314 C742.004,1843.306 742.976,1842.496 744.578,1842.496 C746.828,1842.496 748.142,1844.008 748.142,1846.222 L748.142,1851.388 C748.142,1851.784 747.836,1852.09 747.458,1852.09 C747.062,1852.09 746.756,1851.784 746.756,1851.388 L746.756,1846.564 C746.756,1844.836 745.82,1843.756 744.182,1843.756 C742.58,1843.756 741.392,1844.926 741.392,1846.672 L741.392,1851.388 C741.392,1851.784 741.104,1852.09 740.708,1852.09 C740.312,1852.09 740.006,1851.784 740.006,1851.388 Z M751.094,1840.012 L751.094,1839.778 C751.094,1839.328 751.454,1839.04 751.904,1839.04 C752.372,1839.04 752.732,1839.328 752.732,1839.778 L752.732,1840.012 C752.732,1840.444 752.372,1840.75 751.904,1840.75 C751.454,1840.75 751.094,1840.444 751.094,1840.012 Z M751.22,1851.388 L751.22,1843.306 C751.22,1842.928 751.526,1842.604 751.904,1842.604 C752.3,1842.604 752.606,1842.91 752.606,1843.306 L752.606,1851.388 C752.606,1851.784 752.318,1852.09 751.922,1852.09 C751.526,1852.09 751.22,1851.784 751.22,1851.388 Z M755.828,1840.012 L755.828,1839.778 C755.828,1839.328 756.188,1839.04 756.638,1839.04 C757.106,1839.04 757.466,1839.328 757.466,1839.778 L757.466,1840.012 C757.466,1840.444 757.106,1840.75 756.638,1840.75 C756.188,1840.75 755.828,1840.444 755.828,1840.012 Z M755.126,1854.934 C755,1854.934 754.892,1854.934 754.802,1854.916 C754.406,1854.898 754.1,1854.7 754.1,1854.322 C754.1,1853.998 754.37,1853.746 754.676,1853.746 C754.784,1853.746 754.892,1853.764 754.982,1853.764 C755.558,1853.764 755.954,1853.386 755.954,1852.576 L755.954,1843.306 C755.954,1842.928 756.26,1842.604 756.638,1842.604 C757.034,1842.604 757.34,1842.91 757.34,1843.306 L757.34,1852.54 C757.34,1854.178 756.476,1854.934 755.126,1854.934 Z M760.562,1851.388 L760.562,1839.472 C760.562,1839.094 760.868,1838.77 761.246,1838.77 C761.642,1838.77 761.948,1839.094 761.948,1839.472 L761.948,1848.004 L766.988,1842.874 C767.15,1842.694 767.312,1842.604 767.528,1842.604 C767.906,1842.604 768.158,1842.91 768.158,1843.252 C768.158,1843.468 768.068,1843.612 767.888,1843.792 L764.846,1846.78 L768.176,1850.974 C768.302,1851.136 768.356,1851.262 768.356,1851.442 C768.356,1851.82 768.068,1852.09 767.69,1852.09 C767.438,1852.09 767.276,1852 767.096,1851.766 L763.874,1847.698 L761.948,1849.606 L761.948,1851.388 C761.948,1851.784 761.66,1852.09 761.264,1852.09 C760.868,1852.09 760.562,1851.784 760.562,1851.388 Z M770.912,1851.388 L770.912,1839.472 C770.912,1839.094 771.218,1838.77 771.596,1838.77 C771.992,1838.77 772.298,1839.094 772.298,1839.472 L772.298,1851.388 C772.298,1851.784 772.01,1852.09 771.614,1852.09 C771.218,1852.09 770.912,1851.784 770.912,1851.388 Z M775.52,1851.388 L775.52,1843.306 C775.52,1842.928 775.826,1842.604 776.204,1842.604 C776.6,1842.604 776.906,1842.91 776.906,1843.306 L776.906,1844.26 C777.518,1843.342 778.346,1842.496 779.912,1842.496 C781.424,1842.496 782.396,1843.306 782.9,1844.35 C783.566,1843.324 784.556,1842.496 786.176,1842.496 C788.318,1842.496 789.632,1843.936 789.632,1846.24 L789.632,1851.388 C789.632,1851.784 789.326,1852.09 788.948,1852.09 C788.552,1852.09 788.246,1851.784 788.246,1851.388 L788.246,1846.564 C788.246,1844.764 787.346,1843.756 785.834,1843.756 C784.43,1843.756 783.278,1844.8 783.278,1846.636 L783.278,1851.388 C783.278,1851.784 782.972,1852.09 782.576,1852.09 C782.198,1852.09 781.892,1851.784 781.892,1851.388 L781.892,1846.528 C781.892,1844.782 780.974,1843.756 779.498,1843.756 C778.022,1843.756 776.906,1844.98 776.906,1846.69 L776.906,1851.388 C776.906,1851.784 776.618,1852.09 776.222,1852.09 C775.826,1852.09 775.52,1851.784 775.52,1851.388 Z M792.638,1851.388 L792.638,1843.306 C792.638,1842.928 792.944,1842.604 793.322,1842.604 C793.718,1842.604 794.024,1842.91 794.024,1843.306 L794.024,1844.314 C794.636,1843.306 795.608,1842.496 797.21,1842.496 C799.46,1842.496 800.774,1844.008 800.774,1846.222 L800.774,1851.388 C800.774,1851.784 800.468,1852.09 800.09,1852.09 C799.694,1852.09 799.388,1851.784 799.388,1851.388 L799.388,1846.564 C799.388,1844.836 798.452,1843.756 796.814,1843.756 C795.212,1843.756 794.024,1844.926 794.024,1846.672 L794.024,1851.388 C794.024,1851.784 793.736,1852.09 793.34,1852.09 C792.944,1852.09 792.638,1851.784 792.638,1851.388 Z M807.974,1852.216 C805.184,1852.216 803.15,1850.02 803.15,1847.392 L803.15,1847.356 C803.15,1844.728 805.202,1842.496 808.01,1842.496 C810.8,1842.496 812.852,1844.692 812.852,1847.32 L812.852,1847.356 C812.852,1849.984 810.782,1852.216 807.974,1852.216 Z M808.01,1850.974 C810.026,1850.974 811.43,1849.354 811.43,1847.392 L811.43,1847.356 C811.43,1845.358 809.936,1843.72 807.974,1843.72 C805.958,1843.72 804.572,1845.358 804.572,1847.32 L804.572,1847.356 C804.572,1849.354 806.048,1850.974 808.01,1850.974 Z M815.354,1854.268 L815.354,1843.306 C815.354,1842.91 815.66,1842.604 816.038,1842.604 C816.434,1842.604 816.74,1842.91 816.74,1843.306 L816.74,1844.566 C817.496,1843.45 818.594,1842.496 820.304,1842.496 C822.536,1842.496 824.75,1844.26 824.75,1847.32 L824.75,1847.356 C824.75,1850.398 822.554,1852.198 820.304,1852.198 C818.576,1852.198 817.46,1851.262 816.74,1850.218 L816.74,1854.268 C816.74,1854.664 816.452,1854.97 816.056,1854.97 C815.66,1854.97 815.354,1854.664 815.354,1854.268 Z M820.052,1850.956 C821.852,1850.956 823.328,1849.624 823.328,1847.374 L823.328,1847.338 C823.328,1845.142 821.816,1843.738 820.052,1843.738 C818.324,1843.738 816.686,1845.196 816.686,1847.32 L816.686,1847.356 C816.686,1849.516 818.324,1850.956 820.052,1850.956 Z M836.162,1843.306 L836.162,1854.268 C836.162,1854.664 835.856,1854.97 835.478,1854.97 C835.082,1854.97 834.776,1854.664 834.776,1854.268 L834.776,1850.128 C834.02,1851.244 832.922,1852.198 831.212,1852.198 C828.98,1852.198 826.766,1850.434 826.766,1847.374 L826.766,1847.338 C826.766,1844.296 828.98,1842.496 831.212,1842.496 C832.94,1842.496 834.056,1843.432 834.776,1844.476 L834.776,1843.306 C834.776,1842.928 835.064,1842.604 835.46,1842.604 C835.856,1842.604 836.162,1842.928 836.162,1843.306 Z M831.464,1843.738 C829.664,1843.738 828.188,1845.07 828.188,1847.32 L828.188,1847.356 C828.188,1849.552 829.718,1850.956 831.464,1850.956 C833.192,1850.956 834.83,1849.498 834.83,1847.356 L834.83,1847.32 C834.83,1845.178 833.192,1843.738 831.464,1843.738 Z M839.258,1851.388 L839.258,1843.306 C839.258,1842.928 839.564,1842.604 839.942,1842.604 C840.338,1842.604 840.644,1842.91 840.644,1843.306 L840.644,1845.052 C841.328,1843.504 842.678,1842.568 843.848,1842.568 C844.262,1842.568 844.532,1842.874 844.532,1843.27 C844.532,1843.648 844.28,1843.918 843.92,1843.972 C842.12,1844.188 840.644,1845.538 840.644,1848.22 L840.644,1851.388 C840.644,1851.766 840.356,1852.09 839.96,1852.09 C839.564,1852.09 839.258,1851.784 839.258,1851.388 Z M849.626,1852.18 C848.402,1852.18 847.052,1851.73 846.044,1851.01 C845.918,1850.92 845.792,1850.74 845.792,1850.506 C845.792,1850.182 846.062,1849.912 846.404,1849.912 C846.53,1849.912 846.656,1849.948 846.746,1850.02 C847.7,1850.668 848.69,1851.01 849.698,1851.01 C850.814,1851.01 851.624,1850.434 851.624,1849.534 L851.624,1849.498 C851.624,1848.562 850.526,1848.202 849.302,1847.86 C847.844,1847.446 846.224,1846.942 846.224,1845.232 L846.224,1845.196 C846.224,1843.594 847.556,1842.532 849.392,1842.532 C850.382,1842.532 851.462,1842.838 852.362,1843.324 C852.542,1843.432 852.704,1843.63 852.704,1843.9 C852.704,1844.224 852.434,1844.494 852.092,1844.494 C851.966,1844.494 851.858,1844.458 851.786,1844.422 C850.994,1843.972 850.148,1843.702 849.356,1843.702 C848.258,1843.702 847.556,1844.278 847.556,1845.052 L847.556,1845.088 C847.556,1845.97 848.708,1846.312 849.95,1846.69 C851.39,1847.122 852.938,1847.68 852.938,1849.354 L852.938,1849.39 C852.938,1851.154 851.48,1852.18 849.626,1852.18 Z M858.446,1852.162 C856.952,1852.162 855.818,1851.424 855.818,1849.534 L855.818,1843.918 L855.062,1843.918 C854.738,1843.918 854.45,1843.63 854.45,1843.306 C854.45,1842.964 854.738,1842.694 855.062,1842.694 L855.818,1842.694 L855.818,1840.498 C855.818,1840.12 856.106,1839.796 856.502,1839.796 C856.88,1839.796 857.204,1840.12 857.204,1840.498 L857.204,1842.694 L859.616,1842.694 C859.958,1842.694 860.246,1842.982 860.246,1843.306 C860.246,1843.648 859.958,1843.918 859.616,1843.918 L857.204,1843.918 L857.204,1849.354 C857.204,1850.488 857.834,1850.902 858.77,1850.902 C859.256,1850.902 859.508,1850.776 859.616,1850.776 C859.94,1850.776 860.21,1851.046 860.21,1851.37 C860.21,1851.622 860.048,1851.82 859.814,1851.91 C859.418,1852.072 858.986,1852.162 858.446,1852.162 Z M870.578,1843.306 L870.578,1851.388 C870.578,1851.766 870.29,1852.09 869.894,1852.09 C869.516,1852.09 869.21,1851.784 869.21,1851.388 L869.21,1850.38 C868.58,1851.388 867.626,1852.198 866.024,1852.198 C863.774,1852.198 862.46,1850.686 862.46,1848.472 L862.46,1843.306 C862.46,1842.91 862.748,1842.604 863.144,1842.604 C863.522,1842.604 863.846,1842.91 863.846,1843.306 L863.846,1848.13 C863.846,1849.858 864.782,1850.938 866.42,1850.938 C868.004,1850.938 869.21,1849.768 869.21,1848.022 L869.21,1843.306 C869.21,1842.91 869.498,1842.604 869.894,1842.604 C870.272,1842.604 870.578,1842.91 870.578,1843.306 Z M878.21,1851.55 C878.048,1851.91 877.814,1852.144 877.436,1852.144 L877.364,1852.144 C876.986,1852.144 876.734,1851.91 876.572,1851.55 L873.08,1843.666 C873.044,1843.54 872.99,1843.414 872.99,1843.288 C872.99,1842.928 873.296,1842.604 873.692,1842.604 C874.088,1842.604 874.286,1842.838 874.394,1843.144 L877.4,1850.416 L880.46,1843.108 C880.55,1842.838 880.748,1842.604 881.108,1842.604 C881.486,1842.604 881.792,1842.91 881.792,1843.288 C881.792,1843.414 881.756,1843.54 881.72,1843.63 L878.21,1851.55 Z M886.976,1852.144 C886.634,1852.144 886.346,1851.928 886.202,1851.514 L883.376,1843.648 C883.34,1843.54 883.286,1843.396 883.286,1843.27 C883.286,1842.928 883.574,1842.604 883.988,1842.604 C884.348,1842.604 884.582,1842.838 884.69,1843.18 L887.03,1850.164 L889.388,1843.162 C889.496,1842.838 889.712,1842.604 890.072,1842.604 L890.144,1842.604 C890.522,1842.604 890.756,1842.838 890.864,1843.162 L893.204,1850.164 L895.58,1843.144 C895.67,1842.856 895.868,1842.604 896.246,1842.604 C896.642,1842.604 896.93,1842.91 896.93,1843.252 C896.93,1843.378 896.876,1843.522 896.84,1843.63 L893.996,1851.514 C893.852,1851.928 893.564,1852.144 893.24,1852.144 L893.186,1852.144 C892.826,1852.144 892.556,1851.928 892.43,1851.514 L890.108,1844.728 L887.768,1851.514 C887.642,1851.928 887.372,1852.144 887.012,1852.144 L886.976,1852.144 Z M898.73,1851.46 C898.73,1851.28 898.784,1851.136 898.91,1851.01 L901.952,1847.266 L899.09,1843.756 C898.946,1843.594 898.874,1843.432 898.874,1843.252 C898.874,1842.856 899.162,1842.604 899.522,1842.604 C899.792,1842.604 899.972,1842.73 900.134,1842.928 L902.816,1846.33 L905.48,1842.946 C905.642,1842.748 905.822,1842.604 906.074,1842.604 C906.434,1842.604 906.704,1842.874 906.704,1843.234 C906.704,1843.414 906.632,1843.558 906.524,1843.684 L903.626,1847.23 L906.65,1850.938 C906.776,1851.1 906.848,1851.262 906.848,1851.442 C906.848,1851.82 906.56,1852.09 906.2,1852.09 C905.93,1852.09 905.75,1851.964 905.588,1851.766 L902.762,1848.184 L899.954,1851.748 C899.792,1851.946 899.612,1852.09 899.36,1852.09 C899,1852.09 898.73,1851.802 898.73,1851.46 Z M910.646,1854.934 C910.034,1854.934 909.584,1854.826 909.116,1854.664 C908.9,1854.574 908.684,1854.394 908.684,1854.07 C908.684,1853.728 908.972,1853.476 909.278,1853.476 C909.404,1853.476 909.512,1853.512 909.62,1853.548 C909.89,1853.638 910.16,1853.71 910.628,1853.71 C911.492,1853.71 911.996,1853.188 912.5,1852.054 L912.572,1851.91 L908.684,1843.666 C908.63,1843.54 908.594,1843.414 908.594,1843.288 C908.594,1842.91 908.9,1842.604 909.296,1842.604 C909.674,1842.604 909.872,1842.838 909.998,1843.144 L913.238,1850.452 L916.118,1843.126 C916.226,1842.838 916.424,1842.604 916.784,1842.604 C917.162,1842.604 917.468,1842.91 917.468,1843.288 C917.468,1843.396 917.432,1843.522 917.396,1843.63 L913.76,1852.306 C912.95,1854.232 912.05,1854.934 910.646,1854.934 Z M919.88,1852 C919.52,1852 919.214,1851.748 919.214,1851.442 L919.214,1851.406 C919.214,1851.172 919.304,1850.992 919.502,1850.776 L925.388,1843.864 L919.952,1843.864 C919.628,1843.864 919.358,1843.612 919.358,1843.288 C919.358,1842.964 919.628,1842.694 919.952,1842.694 L926.594,1842.694 C926.972,1842.694 927.26,1842.946 927.26,1843.252 L927.26,1843.288 C927.26,1843.522 927.17,1843.702 926.972,1843.918 L921.086,1850.83 L926.756,1850.83 C927.08,1850.83 927.35,1851.1 927.35,1851.406 C927.35,1851.73 927.08,1852 926.756,1852 L919.88,1852 Z M671.372,1877.216 C668.168,1877.216 666.17,1874.21 666.17,1870.736 L666.17,1870.7 C666.17,1867.226 668.204,1864.184 671.408,1864.184 C674.612,1864.184 676.61,1867.19 676.61,1870.664 L676.61,1870.7 C676.61,1874.174 674.576,1877.216 671.372,1877.216 Z M671.408,1876.37 C674.018,1876.37 675.638,1873.652 675.638,1870.736 L675.638,1870.7 C675.638,1867.766 673.982,1865.03 671.372,1865.03 C668.762,1865.03 667.142,1867.73 667.142,1870.664 L667.142,1870.7 C667.142,1873.616 668.798,1876.37 671.408,1876.37 Z M680.912,1876.604 L680.912,1865.246 L678.86,1865.948 C678.77,1865.984 678.698,1866.002 678.626,1866.002 C678.41,1866.002 678.23,1865.822 678.23,1865.606 C678.23,1865.39 678.374,1865.282 678.572,1865.21 L680.768,1864.4 C680.966,1864.328 681.146,1864.274 681.344,1864.274 L681.38,1864.274 C681.668,1864.274 681.83,1864.49 681.83,1864.724 L681.83,1876.604 C681.83,1876.856 681.632,1877.072 681.38,1877.072 C681.128,1877.072 680.912,1876.856 680.912,1876.604 Z M684.512,1876.568 C684.512,1876.406 684.584,1876.298 684.728,1876.172 L689.282,1872.05 C691.37,1870.16 692.072,1869.08 692.072,1867.748 C692.072,1866.11 690.74,1865.048 689.228,1865.048 C687.698,1865.048 686.672,1865.804 685.7,1867.154 C685.61,1867.28 685.502,1867.352 685.34,1867.352 C685.106,1867.352 684.908,1867.172 684.908,1866.938 C684.908,1866.866 684.926,1866.776 684.98,1866.704 C686.042,1865.156 687.194,1864.22 689.318,1864.22 C691.46,1864.22 693.062,1865.714 693.062,1867.676 L693.062,1867.712 C693.062,1869.44 692.126,1870.592 689.912,1872.608 L686.06,1876.1 L692.81,1876.1 C693.062,1876.1 693.26,1876.298 693.26,1876.55 C693.26,1876.802 693.062,1877 692.81,1877 L684.962,1877 C684.71,1877 684.512,1876.82 684.512,1876.568 Z M699.938,1877.216 C697.976,1877.216 696.464,1876.352 695.456,1875.128 C695.402,1875.056 695.33,1874.93 695.33,1874.804 C695.33,1874.552 695.546,1874.336 695.798,1874.336 C695.96,1874.336 696.104,1874.426 696.176,1874.516 C697.166,1875.704 698.372,1876.37 699.956,1876.37 C701.648,1876.37 703.07,1875.236 703.07,1873.58 L703.07,1873.544 C703.07,1871.78 701.414,1870.808 699.146,1870.808 L698.696,1870.808 C698.462,1870.808 698.264,1870.628 698.264,1870.394 C698.264,1870.286 698.318,1870.178 698.426,1870.052 L702.566,1865.282 L696.338,1865.282 C696.086,1865.282 695.888,1865.102 695.888,1864.85 C695.888,1864.598 696.086,1864.4 696.338,1864.4 L703.502,1864.4 C703.736,1864.4 703.916,1864.562 703.916,1864.796 C703.916,1864.922 703.844,1865.066 703.754,1865.174 L699.578,1869.944 C701.972,1870.088 704.042,1871.204 704.042,1873.508 L704.042,1873.544 C704.042,1875.74 702.116,1877.216 699.938,1877.216 Z M713.33,1876.622 L713.33,1873.922 L706.652,1873.922 C706.364,1873.922 706.166,1873.724 706.166,1873.436 C706.166,1873.328 706.202,1873.202 706.31,1873.058 L713.258,1864.472 C713.366,1864.328 713.492,1864.238 713.708,1864.238 C714.014,1864.238 714.23,1864.454 714.23,1864.76 L714.23,1873.112 L715.94,1873.112 C716.156,1873.112 716.354,1873.31 716.354,1873.526 C716.354,1873.742 716.156,1873.922 715.94,1873.922 L714.23,1873.922 L714.23,1876.622 C714.23,1876.874 714.032,1877.072 713.78,1877.072 C713.528,1877.072 713.33,1876.874 713.33,1876.622 Z M707.318,1873.112 L713.33,1873.112 L713.33,1865.66 L707.318,1873.112 Z M722.708,1877.216 C721.106,1877.216 719.576,1876.406 718.55,1875.416 C718.406,1875.272 718.352,1875.164 718.352,1875.002 C718.352,1874.786 718.55,1874.57 718.802,1874.57 C718.946,1874.57 719.108,1874.642 719.198,1874.732 C720.26,1875.74 721.484,1876.37 722.744,1876.37 C724.742,1876.37 726.128,1875.02 726.128,1873.202 L726.128,1873.166 C726.128,1871.384 724.706,1870.178 722.672,1870.178 C721.034,1870.178 720.188,1870.88 719.882,1870.88 C719.666,1870.88 719.504,1870.808 719.36,1870.718 C719.18,1870.592 719.108,1870.358 719.126,1870.088 L719.432,1864.904 C719.45,1864.562 719.666,1864.4 719.918,1864.4 L726.164,1864.4 C726.416,1864.4 726.614,1864.598 726.614,1864.85 C726.614,1865.102 726.416,1865.3 726.164,1865.3 L720.296,1865.3 L719.99,1870.016 C720.8,1869.62 721.61,1869.332 722.78,1869.332 C725.21,1869.332 727.1,1870.88 727.1,1873.13 L727.1,1873.166 C727.1,1875.488 725.246,1877.216 722.708,1877.216 Z M734.12,1877.216 C732.824,1877.216 731.672,1876.712 730.916,1875.956 C729.872,1874.912 729.314,1873.652 729.314,1871.042 L729.314,1871.006 C729.314,1867.208 731.312,1864.184 734.444,1864.184 C735.776,1864.184 736.802,1864.634 737.81,1865.426 C737.936,1865.534 738.008,1865.642 738.008,1865.804 C738.008,1866.056 737.792,1866.272 737.54,1866.272 C737.432,1866.272 737.342,1866.236 737.252,1866.164 C736.352,1865.426 735.47,1865.03 734.372,1865.03 C731.816,1865.03 730.16,1867.712 730.25,1871.564 C730.97,1870.34 732.14,1869.224 734.192,1869.224 C736.478,1869.224 738.53,1870.79 738.53,1873.04 L738.53,1873.076 C738.53,1875.452 736.604,1877.216 734.12,1877.216 Z M734.192,1876.37 C736.226,1876.37 737.558,1874.894 737.558,1873.112 L737.558,1873.076 C737.558,1871.348 736.136,1870.052 734.138,1870.052 C732.068,1870.052 730.628,1871.618 730.628,1873.166 L730.628,1873.202 C730.628,1875.002 732.158,1876.37 734.192,1876.37 Z M742.31,1876.64 C742.31,1876.568 742.346,1876.442 742.382,1876.37 L747.8,1865.3 L740.87,1865.3 C740.618,1865.3 740.42,1865.102 740.42,1864.85 C740.42,1864.598 740.618,1864.4 740.87,1864.4 L748.466,1864.4 C748.718,1864.4 748.916,1864.562 748.916,1864.814 C748.916,1864.922 748.862,1865.066 748.808,1865.174 L743.228,1876.748 C743.156,1876.91 742.994,1877.072 742.778,1877.072 C742.526,1877.072 742.31,1876.892 742.31,1876.64 Z M755.324,1877.18 C752.678,1877.18 750.644,1875.722 750.644,1873.634 L750.644,1873.598 C750.644,1872.122 751.85,1871.006 753.434,1870.484 C752.192,1869.98 751.076,1869.044 751.076,1867.55 L751.076,1867.514 C751.076,1865.552 753.146,1864.22 755.324,1864.22 C757.502,1864.22 759.572,1865.552 759.572,1867.514 L759.572,1867.55 C759.572,1869.044 758.456,1869.98 757.214,1870.484 C758.798,1871.006 760.004,1872.122 760.004,1873.598 L760.004,1873.634 C760.004,1875.722 757.97,1877.18 755.324,1877.18 Z M755.324,1870.142 C757.106,1870.142 758.6,1869.098 758.6,1867.55 L758.6,1867.514 C758.6,1866.092 757.16,1865.066 755.324,1865.066 C753.488,1865.066 752.048,1866.092 752.048,1867.514 L752.048,1867.55 C752.048,1869.098 753.542,1870.142 755.324,1870.142 Z M755.324,1876.334 C757.646,1876.334 759.032,1875.092 759.032,1873.67 L759.032,1873.634 C759.032,1872.068 757.376,1870.934 755.324,1870.934 C753.272,1870.934 751.616,1872.068 751.616,1873.634 L751.616,1873.67 C751.616,1875.092 753.002,1876.334 755.324,1876.334 Z M766.178,1877.216 C764.702,1877.216 763.55,1876.604 762.596,1875.83 C762.47,1875.722 762.398,1875.614 762.398,1875.452 C762.398,1875.2 762.596,1874.984 762.848,1874.984 C762.956,1874.984 763.082,1875.02 763.19,1875.11 C764.162,1875.938 765.116,1876.37 766.196,1876.37 C768.734,1876.37 770.516,1873.652 770.372,1869.872 C769.652,1871.168 768.428,1872.302 766.448,1872.302 C763.91,1872.302 762.092,1870.61 762.092,1868.45 L762.092,1868.414 C762.092,1866.092 763.892,1864.184 766.52,1864.184 C767.87,1864.184 768.968,1864.706 769.724,1865.462 C770.696,1866.434 771.308,1867.856 771.308,1870.376 L771.308,1870.412 C771.308,1874.372 769.112,1877.216 766.178,1877.216 Z M766.484,1871.474 C768.626,1871.474 769.994,1869.854 769.994,1868.27 L769.994,1868.234 C769.994,1866.452 768.5,1865.03 766.412,1865.03 C764.342,1865.03 763.064,1866.632 763.064,1868.378 L763.064,1868.414 C763.064,1870.178 764.486,1871.474 766.484,1871.474 Z" id="ABCDEFGHIJKLMNOPQRST" fill="#333333"></path>
    </g>
</svg>