<?xml version="1.0" encoding="UTF-8"?>
<svg width="440px" height="55px" viewBox="0 0 440 55" version="1.1" xmlns="http://www.w3.org/2000/svg" xmlns:xlink="http://www.w3.org/1999/xlink">
    <!-- Generator: Sketch 48.2 (47327) - http://www.bohemiancoding.com/sketch -->
    <title>l_VD_White</title>
    <desc>Created with Sketch.</desc>
    <defs></defs>
    <g id="Vision-Direct" stroke="none" stroke-width="1" fill="none" fill-rule="evenodd" transform="translate(-85.000000, -150.000000)">
        <g id="l_VD_White" transform="translate(85.000000, 150.000000)" fill="#FFFFFE">
            <g id="vd_logo_white">
                <path d="M79.9370526,43.2377193 L80.1062961,43.2377193 C80.59275,43.2309649 80.9873289,43.1045614 81.3045395,42.8585088 C81.6149803,42.6114912 81.8683618,42.2737719 82.0511447,41.8453509 L93.510375,15.4347368 C93.5529276,15.3295614 93.5887105,15.2234211 93.6099868,15.1114912 C93.6302961,15.0053509 93.6380329,14.8866667 93.6380329,14.7592982 C93.6380329,14.4717544 93.5606645,14.2112281 93.4194671,13.9651754 C93.2715,13.7268421 93.0809803,13.5290351 92.8275987,13.3814035 C92.5809868,13.2337719 92.3053618,13.1633333 91.9881513,13.1565789 C91.7347697,13.1565789 91.5026645,13.2202632 91.2908684,13.332193 C91.0790724,13.4450877 90.8895197,13.5927193 90.7270461,13.7683333 C90.5723092,13.9439474 90.4388487,14.1340351 90.3402039,14.3376316 L80.0647105,38.8927193 L69.8308026,14.4225439 C69.6828355,14.0568421 69.4652368,13.7538596 69.1683355,13.5222807 C68.8801382,13.2829825 68.520375,13.1633333 68.09775,13.1565789 C67.7873092,13.1633333 67.4981447,13.2414912 67.2447632,13.3958772 C66.9913816,13.5502632 66.7863553,13.7538596 66.6383882,13.9999123 C66.4904211,14.2469298 66.4130526,14.5132456 66.4062829,14.8017544 C66.4062829,14.949386 66.4198224,15.0757895 66.4410987,15.1954386 C66.4691447,15.3150877 66.5116974,15.4347368 66.5745592,15.5611404 L77.9922039,41.8453509 C78.1614474,42.2737719 78.4080592,42.6114912 78.7252697,42.8585088 C79.04925,43.1045614 79.4505987,43.2309649 79.9370526,43.2377193" id="Fill-1"></path>
                <path d="M98.839125,41.4661404 C98.8526645,41.9370175 99.0083684,42.3307018 99.3178421,42.6336842 C99.6215132,42.9424561 100.016092,43.0968421 100.488039,43.1113158 C100.960954,43.0968421 101.347796,42.9424561 101.636961,42.6336842 C101.932895,42.3307018 102.087632,41.9370175 102.094401,41.4661404 L102.094401,22.5229825 C102.080862,22.044386 101.926125,21.6574561 101.615684,21.3477193 C101.31298,21.0457018 100.925171,20.8835965 100.445487,20.877807 C100.15052,20.8835965 99.8748947,20.9540351 99.6350526,21.109386 C99.3961776,21.2570175 99.1988882,21.4538596 99.0576908,21.6999123 C98.9164934,21.9527193 98.8458947,22.22 98.839125,22.5229825 L98.839125,41.4661404 Z M98.5431908,14.8017544 C98.5499605,15.1394737 98.6350658,15.4414912 98.8043092,15.7020175 C98.9725855,15.9548246 99.1988882,16.159386 99.4803158,16.3060526 C99.7694803,16.4546491 100.086691,16.5241228 100.445487,16.5318421 C100.819757,16.5241228 101.143737,16.4546491 101.439671,16.3060526 C101.727868,16.159386 101.960941,15.9548246 102.130184,15.7020175 C102.299428,15.4414912 102.383566,15.1394737 102.391303,14.8017544 L102.391303,14.2536842 C102.383566,13.9014912 102.299428,13.5927193 102.130184,13.332193 C101.960941,13.079386 101.727868,12.8757895 101.439671,12.7349123 C101.143737,12.5940351 100.819757,12.5235965 100.445487,12.5235965 C100.086691,12.5235965 99.7694803,12.5940351 99.4803158,12.7349123 C99.1988882,12.8757895 98.9725855,13.079386 98.8043092,13.332193 C98.6350658,13.5927193 98.5499605,13.9014912 98.5431908,14.2536842 L98.5431908,14.8017544 Z" id="Fill-2"></path>
                <path d="M116.89498,43.3216667 C117.986842,43.3216667 119.009072,43.1740351 119.946197,42.8787719 C120.891059,42.5912281 121.715033,42.1618421 122.420053,41.5992982 C123.125072,41.0435088 123.674388,40.3545614 124.069934,39.5459649 C124.471283,38.7373684 124.668572,37.8158772 124.675342,36.7824561 L124.675342,36.6985088 C124.668572,35.7200877 124.456776,34.8912281 124.055428,34.2090351 C123.653112,33.5268421 123.110566,32.9498246 122.434559,32.4866667 C121.757586,32.0157895 121.010013,31.6278947 120.17927,31.3046491 C119.354329,30.9814035 118.515849,30.6996491 117.656092,30.4535965 C116.923026,30.2364912 116.218007,30.0107018 115.54877,29.7858772 C114.879533,29.5542982 114.279928,29.3005263 113.751888,29.0197368 C113.222882,28.7379825 112.807026,28.4079825 112.497553,28.0355263 C112.193882,27.6553509 112.039145,27.2124561 112.032375,26.6991228 L112.032375,26.6151754 C112.039145,26.0034211 112.208388,25.4621053 112.553645,24.9902632 C112.898901,24.5126316 113.385355,24.1401754 114.019776,23.8651754 C114.646461,23.5911404 115.394033,23.4570175 116.260559,23.4512281 C117.197684,23.4512281 118.149316,23.605614 119.115454,23.9008772 C120.080625,24.189386 121.031289,24.6042982 121.969382,25.1388596 C122.05352,25.1803509 122.159901,25.222807 122.278855,25.2507895 C122.405546,25.2855263 122.539974,25.3067544 122.687941,25.3067544 C123.097026,25.2932456 123.442283,25.1591228 123.709204,24.8918421 C123.978059,24.6322807 124.118289,24.3013158 124.126026,23.914386 C124.118289,23.5978947 124.040921,23.3238596 123.886184,23.0990351 C123.73048,22.8674561 123.540928,22.6918421 123.322362,22.5644737 C122.618309,22.1852632 121.870737,21.8542982 121.088349,21.5735088 C120.31273,21.2994737 119.523572,21.0881579 118.719908,20.9337719 C117.917211,20.7851754 117.127086,20.7089474 116.345664,20.7089474 C115.259605,20.7089474 114.266388,20.8633333 113.364079,21.1585965 C112.455,21.4538596 111.672612,21.8755263 111.010145,22.4245614 C110.340908,22.9726316 109.826408,23.6268421 109.459875,24.3929825 C109.093342,25.1591228 108.910559,26.0101754 108.902822,26.9528947 L108.902822,27.0368421 C108.917329,28.0287719 109.128158,28.8721053 109.55175,29.5542982 C109.974375,30.2364912 110.531428,30.8057895 111.23548,31.2564035 C111.93373,31.7060526 112.708382,32.0852632 113.561368,32.3872807 C114.406618,32.6902632 115.267342,32.9575439 116.133868,33.1958772 C116.859197,33.3927193 117.550678,33.6040351 118.198638,33.8298246 C118.854336,34.0469298 119.432664,34.3084211 119.939428,34.595 C120.447158,34.8835088 120.848507,35.2289474 121.144441,35.6226316 C121.433605,36.0230702 121.581572,36.487193 121.588342,37.0362281 L121.588342,37.1201754 C121.581572,37.8303509 121.384283,38.4421053 120.996474,38.9554386 C120.616401,39.4687719 120.080625,39.8692105 119.403651,40.1509649 C118.727645,40.4317544 117.945257,40.5803509 117.064224,40.5803509 C115.880487,40.5803509 114.710289,40.3825439 113.546862,39.9888596 C112.391171,39.5951754 111.249987,39.0181579 110.129112,38.2587719 C110.023697,38.1748246 109.897007,38.1121053 109.762579,38.0696491 C109.622349,38.027193 109.473414,38.0069298 109.325447,38.0069298 C108.917329,38.0204386 108.572072,38.1535965 108.304184,38.4208772 C108.036296,38.6814035 107.895099,39.0123684 107.888329,39.3983333 C107.895099,39.6723684 107.957961,39.9116667 108.071112,40.1152632 C108.191033,40.3198246 108.325461,40.4742105 108.480197,40.5803509 C109.276125,41.1428947 110.143618,41.6340351 111.073974,42.042193 C112.011099,42.4503509 112.9695,42.7668421 113.962717,42.9849123 C114.949164,43.2097368 115.929809,43.3216667 116.89498,43.3216667" id="Fill-3"></path>
                <path d="M131.018586,41.4661404 C131.032125,41.9370175 131.187829,42.3307018 131.497303,42.6336842 C131.800974,42.9424561 132.195553,43.0968421 132.6675,43.1113158 C133.139447,43.0968421 133.527257,42.9424561 133.816421,42.6336842 C134.112355,42.3307018 134.267092,41.9370175 134.273862,41.4661404 L134.273862,22.5229825 C134.260322,22.044386 134.105586,21.6574561 133.795145,21.3477193 C133.492441,21.0457018 133.104632,20.8835965 132.624947,20.877807 C132.32998,20.8835965 132.054355,20.9540351 131.814513,21.109386 C131.574671,21.2570175 131.378349,21.4538596 131.237151,21.6999123 C131.095954,21.9527193 131.025355,22.22 131.018586,22.5229825 L131.018586,41.4661404 Z M130.721684,14.8017544 C130.729421,15.1394737 130.814526,15.4414912 130.982803,15.7020175 C131.152046,15.9548246 131.378349,16.159386 131.659776,16.3060526 C131.948941,16.4546491 132.266151,16.5241228 132.624947,16.5318421 C132.99825,16.5241228 133.323197,16.4546491 133.619132,16.3060526 C133.907329,16.159386 134.140401,15.9548246 134.309645,15.7020175 C134.478888,15.4414912 134.563026,15.1394737 134.569796,14.8017544 L134.569796,14.2536842 C134.563026,13.9014912 134.478888,13.5927193 134.309645,13.332193 C134.140401,13.079386 133.907329,12.8757895 133.619132,12.7349123 C133.323197,12.5940351 132.99825,12.5235965 132.624947,12.5235965 C132.266151,12.5235965 131.948941,12.5940351 131.659776,12.7349123 C131.378349,12.8757895 131.152046,13.079386 130.982803,13.332193 C130.814526,13.5927193 130.729421,13.9014912 130.721684,14.2536842 L130.721684,14.8017544 Z" id="Fill-4"></path>
                <path d="M151.907092,40.4954386 C150.751401,40.4886842 149.679849,40.2628947 148.701138,39.8267544 C147.721461,39.3915789 146.868474,38.7865789 146.142178,38.0127193 C145.409112,37.2398246 144.845289,36.3395614 144.443941,35.3138596 C144.042592,34.2929825 143.837566,33.1958772 143.830796,32.0157895 L143.830796,31.9308772 C143.837566,30.7710526 144.028086,29.6884211 144.415895,28.6752632 C144.796934,27.6553509 145.34625,26.762807 146.05127,25.9889474 C146.756289,25.2083333 147.601539,24.6042982 148.57348,24.1604386 C149.554125,23.7252632 150.63148,23.4994737 151.822954,23.4927193 C152.978645,23.4994737 154.050197,23.7252632 155.036645,24.1681579 C156.023092,24.6042982 156.876079,25.2160526 157.609145,25.9957018 C158.342211,26.7763158 158.912803,27.6833333 159.321888,28.71 C159.730007,29.7366667 159.935033,30.8337719 159.941803,32.0157895 L159.941803,32.1007018 C159.935033,33.2605263 159.744513,34.3431579 159.356704,35.3485965 C158.962125,36.3617544 158.412809,37.2533333 157.700053,38.0204386 C156.98923,38.7942982 156.143013,39.3915789 155.163336,39.8267544 C154.183658,40.2628947 153.098566,40.4886842 151.907092,40.4954386 Z M151.822954,43.4065789 C153.478638,43.3930702 155.008599,43.0900877 156.396395,42.492807 C157.792895,41.8945614 158.996941,41.0714912 160.025941,40.017807 C161.054941,38.9699123 161.851836,37.7599123 162.422428,36.3964912 C162.98625,35.0253509 163.275414,33.5692982 163.282184,32.0157895 L163.282184,31.9308772 C163.275414,30.3764035 162.98625,28.9213158 162.429197,27.5646491 C161.866342,26.2070175 161.076217,25.0047368 160.054954,23.9635965 C159.032724,22.9301754 157.83448,22.1148246 156.453454,21.5242982 C155.071461,20.9337719 153.556974,20.6307895 151.907092,20.6240351 C150.251408,20.6385088 148.729184,20.9405263 147.341388,21.537807 C145.952625,22.1360526 144.746645,22.9581579 143.725382,24.0060526 C142.703151,25.0616667 141.907224,26.2707018 141.350171,27.6350877 C140.786349,29.0052632 140.497184,30.4613158 140.490414,32.0157895 L140.490414,32.1007018 C140.497184,33.6542105 140.778612,35.1025439 141.343401,36.4659649 C141.900454,37.8235965 142.682842,39.0258772 143.697336,40.0602632 C144.711829,41.1004386 145.910072,41.9157895 147.284329,42.5063158 C148.665355,43.0968421 150.174039,43.3930702 151.822954,43.4065789 Z" id="Fill-5"></path>
                <path d="M169.16025,41.4661404 C169.173789,41.9370175 169.328526,42.3307018 169.638967,42.6336842 C169.942638,42.9424561 170.337217,43.0968421 170.809164,43.1113158 C171.281112,43.0968421 171.668921,42.9424561 171.958086,42.6336842 C172.25402,42.3307018 172.408757,41.9370175 172.415526,41.4661404 L172.415526,30.4121053 C172.430033,29.0409649 172.711461,27.8386842 173.275283,26.8187719 C173.839105,25.7988596 174.614724,25.0047368 175.601171,24.442193 C176.580849,23.8728947 177.701724,23.584386 178.970566,23.5776316 C180.259717,23.584386 181.352546,23.8516667 182.247118,24.3862281 C183.149428,24.9130702 183.832204,25.6724561 184.305118,26.6499123 C184.777066,27.6350877 185.016908,28.8016667 185.016908,30.1592982 L185.016908,41.4661404 C185.031414,41.9370175 185.186151,42.3307018 185.496592,42.6336842 C185.799296,42.9424561 186.193875,43.0968421 186.665822,43.1113158 C187.12423,43.0968421 187.497533,42.9424561 187.800237,42.6336842 C188.103908,42.3307018 188.258645,41.9370175 188.273151,41.4661404 L188.273151,29.3574561 C188.265414,27.6138596 187.934664,26.0941228 187.278967,24.7866667 C186.6165,23.4792105 185.664868,22.4660526 184.417303,21.7346491 C183.177474,21.0042105 181.669757,20.6385088 179.900921,20.6240351 C178.652388,20.6307895 177.553757,20.8276316 176.608895,21.2010526 C175.665,21.5802632 174.846829,22.0868421 174.156316,22.7265789 C173.473539,23.3663158 172.888441,24.0909649 172.415526,24.8850877 L172.415526,22.5229825 C172.401987,22.044386 172.246283,21.6574561 171.936809,21.3477193 C171.634105,21.0457018 171.246296,20.8835965 170.766612,20.877807 C170.470678,20.8835965 170.19602,20.9540351 169.956178,21.109386 C169.716336,21.2570175 169.519046,21.4538596 169.378816,21.6999123 C169.237618,21.9527193 169.16702,22.22 169.16025,22.5229825 L169.16025,41.4661404" id="Fill-6"></path>
                <path d="M325.236533,40.2416667 L325.236533,41.0859649 C325.24427,41.4661404 325.327441,41.810614 325.496684,42.119386 C325.672697,42.4223684 325.912539,42.6616667 326.215243,42.8363158 C326.518914,43.0128947 326.869974,43.1045614 327.264553,43.1113158 C327.646559,43.1045614 327.991816,43.0128947 328.286783,42.8363158 C328.583684,42.6616667 328.823526,42.4223684 328.993737,42.119386 C329.161046,41.810614 329.246151,41.4661404 329.253888,41.0859649 L329.253888,40.2416667 C329.239382,39.6588596 329.055632,39.1870175 328.689099,38.8213158 C328.322566,38.455614 327.850618,38.2732456 327.264553,38.2587719 C326.665914,38.2732456 326.180428,38.455614 325.807125,38.8213158 C325.440592,39.1870175 325.250072,39.6588596 325.236533,40.2416667" id="Fill-7"></path>
                <path d="M345.067993,43.4065789 C346.287513,43.3988596 347.394849,43.2512281 348.380329,42.9559649 C349.366776,42.6616667 350.262316,42.2535088 351.07275,41.7324561 C351.883184,41.205614 352.630757,40.600614 353.3145,39.9039474 C353.441191,39.7785088 353.546605,39.6231579 353.617204,39.4475439 C353.694572,39.2719298 353.736158,39.0818421 353.736158,38.8927193 C353.730355,38.632193 353.665559,38.3928947 353.532099,38.1748246 C353.397671,37.95 353.221658,37.7676316 352.997289,37.6267544 C352.770987,37.4926316 352.525342,37.422193 352.256487,37.4154386 C352.045658,37.422193 351.861908,37.4646491 351.714908,37.5495614 C351.560171,37.6335088 351.431546,37.7251754 351.325164,37.8371053 C350.791322,38.3504386 350.212993,38.8010526 349.586309,39.2014912 C348.966395,39.6028947 348.288454,39.9116667 347.570862,40.1432456 C346.845533,40.3757895 346.068947,40.4886842 345.237237,40.4954386 C344.089283,40.4886842 343.03127,40.2696491 342.051592,39.8344737 C341.078684,39.4060526 340.234401,38.8010526 339.507138,38.027193 C338.781809,37.2533333 338.218954,36.3617544 337.816638,35.3341228 C337.414322,34.3084211 337.210263,33.2035965 337.202526,32.0157895 L337.202526,31.9308772 C337.210263,30.7498246 337.40852,29.6517544 337.801164,28.632807 C338.195743,27.620614 338.740224,26.7280702 339.452013,25.9542105 C340.157033,25.1871053 340.980039,24.5830702 341.932638,24.1536842 C342.876533,23.7175439 343.911336,23.4994737 345.026408,23.4927193 C345.892934,23.4994737 346.683059,23.6191228 347.387112,23.8516667 C348.092132,24.0832456 348.740092,24.3997368 349.330993,24.7934211 C349.916092,25.1871053 350.474112,25.6232456 350.987645,26.1085965 C351.11627,26.2137719 351.271007,26.3054386 351.453789,26.3758772 C351.637539,26.4463158 351.833862,26.4887719 352.045658,26.4887719 C352.327086,26.4810526 352.587237,26.4183333 352.827079,26.2774561 C353.059184,26.1442982 353.250671,25.9609649 353.391868,25.7216667 C353.532099,25.4900877 353.603664,25.222807 353.609467,24.9275439 C353.603664,24.6747368 353.554342,24.442193 353.446993,24.2453509 C353.348349,24.0485088 353.237132,23.8941228 353.102704,23.7879825 C352.460546,23.1907018 351.742954,22.6561404 350.958632,22.1785088 C350.177211,21.7066667 349.304882,21.3274561 348.337776,21.0524561 C347.366803,20.7716667 346.273007,20.6307895 345.067993,20.6240351 C343.462599,20.6385088 341.980993,20.9405263 340.621243,21.537807 C339.267296,22.1360526 338.084526,22.9581579 337.068099,24.0060526 C336.061342,25.0616667 335.279921,26.2707018 334.715132,27.6350877 C334.157112,29.0052632 333.868914,30.4613158 333.863112,32.0157895 L333.863112,32.1007018 C333.868914,33.6397368 334.157112,35.0880702 334.715132,36.4447368 C335.279921,37.8023684 336.061342,39.0046491 337.068099,40.0457895 C338.084526,41.0859649 339.267296,41.9090351 340.621243,42.4995614 C341.980993,43.0900877 343.462599,43.3930702 345.067993,43.4065789" id="Fill-8"></path>
                <path d="M368.790118,40.4954386 C367.634428,40.4886842 366.562875,40.2628947 365.583197,39.8267544 C364.604487,39.3915789 363.750533,38.7865789 363.025204,38.0127193 C362.292138,37.2398246 361.729283,36.3395614 361.326967,35.3138596 C360.924651,34.2929825 360.720592,33.1958772 360.712855,32.0157895 L360.712855,31.9308772 C360.720592,30.7710526 360.912079,29.6884211 361.298921,28.6752632 C361.678026,27.6553509 362.228309,26.762807 362.934296,25.9889474 C363.639316,25.2083333 364.483599,24.6042982 365.456507,24.1604386 C366.436184,23.7252632 367.515474,23.4994737 368.705013,23.4927193 C369.860704,23.4994737 370.932257,23.7252632 371.919671,24.1681579 C372.906118,24.6042982 373.758138,25.2160526 374.492171,25.9957018 C375.225237,26.7763158 375.795829,27.6833333 376.203947,28.71 C376.614,29.7366667 376.818059,30.8337719 376.823862,32.0157895 L376.823862,32.1007018 C376.818059,33.2605263 376.627539,34.3431579 376.23973,35.3485965 C375.845151,36.3617544 375.295836,37.2533333 374.583079,38.0204386 C373.871289,38.7942982 373.027007,39.3915789 372.046362,39.8267544 C371.066684,40.2628947 369.981592,40.4886842 368.790118,40.4954386 Z M368.705013,43.4065789 C370.361664,43.3930702 371.891625,43.0900877 373.280388,42.492807 C374.675921,41.8945614 375.880934,41.0714912 376.908967,40.017807 C377.937967,38.9699123 378.734862,37.7599123 379.305454,36.3964912 C379.868309,35.0253509 380.157474,33.5692982 380.165211,32.0157895 L380.165211,31.9308772 C380.157474,30.3764035 379.868309,28.9213158 379.313191,27.5646491 C378.748401,26.2070175 377.958276,25.0047368 376.937013,23.9635965 C375.914783,22.9301754 374.717507,22.1148246 373.33648,21.5242982 C371.95352,20.9337719 370.439033,20.6307895 368.790118,20.6240351 C367.133467,20.6385088 365.611243,20.9405263 364.22248,21.537807 C362.834684,22.1360526 361.629671,22.9581579 360.607441,24.0060526 C359.585211,25.0616667 358.79025,26.2707018 358.233197,27.6350877 C357.668408,29.0052632 357.379243,30.4613158 357.373441,32.0157895 L357.373441,32.1007018 C357.379243,33.6542105 357.662605,35.1025439 358.225461,36.4659649 C358.782513,37.8235965 359.564901,39.0258772 360.579395,40.0602632 C361.595822,41.1004386 362.793099,41.9157895 364.168322,42.5063158 C365.548382,43.0968421 367.056099,43.3930702 368.705013,43.4065789 Z" id="Fill-9"></path>
                <path d="M384.731882,40.2416667 L384.731882,41.0859649 C384.739618,41.4661404 384.822789,41.810614 384.993,42.119386 C385.169013,42.4223684 385.408855,42.6616667 385.710592,42.8363158 C386.01523,43.0128947 386.366289,43.1045614 386.760868,43.1113158 C387.142875,43.1045614 387.488132,43.0128947 387.783099,42.8363158 C388.079033,42.6616667 388.318875,42.4223684 388.489086,42.119386 C388.657362,41.810614 388.742467,41.4661404 388.750204,41.0859649 L388.750204,40.2416667 C388.73473,39.6588596 388.551947,39.1870175 388.185414,38.8213158 C387.818882,38.455614 387.345967,38.2732456 386.760868,38.2587719 C386.16223,38.2732456 385.676743,38.455614 385.302474,38.8213158 C384.935941,39.1870175 384.745421,39.6588596 384.731882,40.2416667" id="Fill-10"></path>
                <path d="M414.28952,22.5229825 C414.27598,22.044386 414.121243,21.6574561 413.817572,21.3477193 C413.514868,21.0457018 413.140599,20.8835965 412.682191,20.877807 C412.209276,20.8835965 411.822434,21.0457018 411.53327,21.3477193 C411.23927,21.6574561 411.081632,22.044386 411.076796,22.5229825 L411.076796,33.5760526 C411.069059,34.6027193 410.906586,35.5377193 410.575836,36.3675439 C410.243151,37.2050877 409.786678,37.9287719 409.192875,38.5270175 C408.601974,39.1320175 407.910493,39.5951754 407.115533,39.9184211 C406.318638,40.2416667 405.458882,40.4114912 404.521757,40.4114912 C403.239375,40.4037719 402.145579,40.1374561 401.245204,39.6028947 C400.341928,39.0750877 399.658184,38.3157018 399.186237,37.3382456 C398.713322,36.3540351 398.47348,35.1864912 398.47348,33.8298246 L398.47348,22.5229825 C398.467678,22.2132456 398.398046,21.9314912 398.241375,21.6864035 C398.094375,21.439386 397.896118,21.2425439 397.650474,21.0949123 C397.397092,20.9540351 397.129204,20.877807 396.824566,20.877807 C396.352618,20.8835965 395.965776,21.0457018 395.676612,21.3477193 C395.381645,21.6574561 395.224974,22.044386 395.219171,22.5229825 L395.219171,34.6316667 C395.224974,36.3742982 395.557658,37.8930702 396.212388,39.2014912 C396.875822,40.5089474 397.82552,41.5221053 399.074053,42.2535088 C400.313882,42.9849123 401.822566,43.350614 403.590434,43.3641228 C404.838967,43.3573684 405.938566,43.1595614 406.875691,42.7880702 C407.812816,42.4078947 408.63002,41.8945614 409.313763,41.2548246 C409.997507,40.6150877 410.589375,39.8981579 411.076796,39.1030702 L411.076796,41.4661404 C411.089368,41.9370175 411.244105,42.3307018 411.548743,42.6336842 C411.85048,42.9424561 412.22475,43.0968421 412.682191,43.1113158 C412.993599,43.1045614 413.275026,43.0273684 413.514868,42.8787719 C413.752776,42.7311404 413.943296,42.5342982 414.077724,42.2882456 C414.219888,42.0354386 414.28952,41.7604386 414.28952,41.4661404 L414.28952,22.5229825" id="Fill-11"></path>
                <path d="M421.604704,41.4661404 C421.620178,41.9370175 421.774914,42.3307018 422.084388,42.6336842 C422.387092,42.9424561 422.781671,43.0968421 423.253618,43.1113158 C423.726533,43.0968421 424.113375,42.9424561 424.402539,42.6336842 C424.699441,42.3307018 424.854178,41.9370175 424.861914,41.4661404 L424.861914,37.2880702 L429.385066,32.8176316 L436.953632,42.3519298 C437.159625,42.6259649 437.369487,42.8160526 437.58902,42.9357018 C437.807586,43.0553509 438.060967,43.1113158 438.350132,43.1113158 C438.80177,43.1045614 439.175072,42.9627193 439.464237,42.6819298 C439.753401,42.4078947 439.908138,42.042193 439.913941,41.5915789 C439.913941,41.3879825 439.880092,41.1988596 439.815296,41.0290351 C439.745664,40.8611404 439.64025,40.677807 439.492283,40.4954386 L431.669368,30.6649123 L438.814342,23.6615789 C439.026138,23.4570175 439.180875,23.254386 439.287257,23.0565789 C439.392671,22.8674561 439.448763,22.6416667 439.448763,22.395614 C439.448763,22.1215789 439.386868,21.8755263 439.26598,21.6439474 C439.139289,21.4191228 438.969079,21.2357895 438.744711,21.0949123 C438.525178,20.9540351 438.265026,20.8835965 437.970059,20.877807 C437.715711,20.877807 437.490375,20.9260526 437.286316,21.032193 C437.080322,21.1373684 436.891737,21.2994737 436.701217,21.5098246 L424.861914,33.5345614 L424.861914,13.5357895 C424.861914,13.2337719 424.783579,12.9664912 424.642382,12.7136842 C424.495382,12.4676316 424.297125,12.2707895 424.05148,12.122193 C423.803901,11.967807 423.522474,11.8973684 423.212033,11.890614 C422.916099,11.8973684 422.640474,11.967807 422.402566,12.122193 C422.161757,12.2707895 421.9635,12.4676316 421.824237,12.7136842 C421.682072,12.9664912 421.612441,13.2337719 421.604704,13.5357895 L421.604704,41.4661404" id="Fill-12"></path>
                <path d="M201.635645,37.0362281 L201.635645,19.2316667 L206.667493,19.2316667 C208.006934,19.2384211 209.218717,19.4564912 210.310579,19.8858772 C211.403408,20.3152632 212.340533,20.9260526 213.129691,21.7211404 C213.912079,22.5085088 214.518454,23.4512281 214.947849,24.5338596 C215.371441,25.6232456 215.58227,26.8187719 215.589039,28.1339474 L215.589039,28.2178947 C215.58227,29.5330702 215.371441,30.7285965 214.947849,31.8044737 C214.518454,32.8803509 213.912079,33.8085965 213.129691,34.5892105 C212.340533,35.3688596 211.403408,35.9738596 210.310579,36.3964912 C209.218717,36.8181579 208.006934,37.0285088 206.667493,37.0362281 L201.635645,37.0362281 Z M195.123158,39.6521053 C195.130895,40.2628947 195.277895,40.8119298 195.567059,41.2972807 C195.849454,41.789386 196.237263,42.1763158 196.72952,42.4648246 C197.215974,42.745614 197.766257,42.8932456 198.379401,42.9 L206.667493,42.9 C208.534974,42.8932456 210.268026,42.647193 211.875355,42.1618421 C213.482684,41.6764912 214.934309,40.9865789 216.224428,40.095 C217.513579,39.2014912 218.619947,38.1468421 219.543533,36.9233333 C220.459382,35.6998246 221.165368,34.3431579 221.657625,32.8591228 C222.143112,31.3760526 222.390691,29.8003509 222.398428,28.1339474 L222.398428,28.0490351 C222.390691,25.9609649 222.003849,24.0272807 221.247572,22.2489474 C220.495164,20.4696491 219.415875,18.9151754 218.021309,17.5932456 C216.625776,16.2645614 214.969125,15.2311404 213.052322,14.4920175 C211.12875,13.7538596 209.000151,13.3814035 206.667493,13.3669298 L198.379401,13.3669298 C197.766257,13.3746491 197.215974,13.5222807 196.72952,13.8030702 C196.237263,14.0915789 195.849454,14.4785088 195.567059,14.9638596 C195.277895,15.4559649 195.130895,16.0040351 195.123158,16.6157895 L195.123158,39.6521053 Z" id="Fill-13"></path>
                <path d="M227.810349,39.9464035 C227.817118,40.5446491 227.965086,41.0859649 228.246513,41.5635965 C228.535678,42.0489474 228.916717,42.4291228 229.402204,42.7166667 C229.881888,42.9984211 230.424434,43.1470175 231.023072,43.1537719 C231.623645,43.1470175 232.166191,42.9984211 232.645875,42.7166667 C233.131362,42.4291228 233.510467,42.0489474 233.799632,41.5635965 C234.082993,41.0859649 234.229993,40.5446491 234.23773,39.9464035 L234.23773,23.2399123 C234.229993,22.6416667 234.082993,22.1003509 233.799632,21.6227193 C233.510467,21.1373684 233.131362,20.7581579 232.645875,20.4696491 C232.166191,20.1878947 231.623645,20.0402632 231.023072,20.0335088 C230.424434,20.0402632 229.881888,20.1878947 229.402204,20.4696491 C228.916717,20.7581579 228.535678,21.1373684 228.246513,21.6227193 C227.965086,22.1003509 227.817118,22.6416667 227.810349,23.2399123 L227.810349,39.9464035 Z M227.428342,14.970614 C227.436079,15.5891228 227.598553,16.1314035 227.908026,16.5810526 C228.225237,17.0384211 228.648829,17.3828947 229.190408,17.6357018 C229.727151,17.8817544 230.341263,18.0014035 231.023072,18.0081579 C231.706816,18.0014035 232.320928,17.8817544 232.856704,17.6357018 C233.39925,17.3828947 233.821875,17.0384211 234.138118,16.5810526 C234.449526,16.1314035 234.612,15.5891228 234.617803,14.970614 L234.617803,14.8866667 C234.612,14.267193 234.449526,13.7326316 234.138118,13.2829825 C233.821875,12.8400877 233.39925,12.495614 232.856704,12.2563158 C232.320928,12.0170175 231.706816,11.890614 231.023072,11.890614 C230.341263,11.890614 229.727151,12.0170175 229.190408,12.2563158 C228.648829,12.495614 228.225237,12.8400877 227.908026,13.2829825 C227.598553,13.7326316 227.436079,14.267193 227.428342,14.8866667 L227.428342,14.970614 Z" id="Fill-14"></path>
                <path d="M240.284072,39.9464035 C240.291809,40.5446491 240.438809,41.0859649 240.720237,41.5635965 C241.009401,42.0489474 241.391408,42.4291228 241.876895,42.7166667 C242.356579,42.9984211 242.898158,43.1470175 243.49873,43.1537719 C244.097368,43.1470175 244.639914,42.9984211 245.119599,42.7166667 C245.605086,42.4291228 245.987092,42.0489474 246.275289,41.5635965 C246.556717,41.0859649 246.704684,40.5446491 246.712421,39.9464035 L246.712421,33.9552632 C246.719191,31.6848246 247.156322,29.9055263 248.030586,28.6260526 C248.895178,27.3465789 250.151447,26.5235088 251.785855,26.1510526 C252.229757,26.0526316 252.632072,25.8770175 252.990868,25.6164912 C253.357401,25.3636842 253.645599,25.0259649 253.865132,24.617807 C254.076928,24.2028947 254.190079,23.7175439 254.195882,23.155 C254.195882,22.5432456 254.069191,22.0096491 253.829349,21.537807 C253.583704,21.0736842 253.222974,20.7089474 252.757796,20.4416667 C252.293586,20.174386 251.728796,20.0402632 251.067296,20.0335088 C250.432875,20.0470175 249.840039,20.2438596 249.297493,20.6385088 C248.755914,21.032193 248.268493,21.5455263 247.832329,22.1852632 C247.396164,22.8182456 247.021895,23.507193 246.712421,24.2521053 L246.712421,23.2399123 C246.704684,22.6416667 246.556717,22.1003509 246.275289,21.6227193 C245.987092,21.1373684 245.605086,20.7581579 245.119599,20.4696491 C244.639914,20.1878947 244.097368,20.0402632 243.49873,20.0335088 C242.898158,20.0402632 242.356579,20.1878947 241.876895,20.4696491 C241.391408,20.7581579 241.009401,21.1373684 240.720237,21.6227193 C240.438809,22.1003509 240.291809,22.6416667 240.284072,23.2399123 L240.284072,39.9464035" id="Fill-15"></path>
                <path d="M275.930605,40.6642982 C276.170447,40.4539474 276.367737,40.1924561 276.530211,39.8769298 C276.684947,39.5604386 276.770053,39.1870175 276.776822,38.7663158 C276.770053,38.2809649 276.663671,37.8515789 276.451875,37.4714035 C276.233309,37.0912281 275.944145,36.7901754 275.571809,36.5711404 C275.198507,36.3540351 274.767178,36.2421053 274.281691,36.234386 C273.951908,36.234386 273.662743,36.2768421 273.422901,36.3617544 C273.175322,36.4447368 272.943217,36.5711404 272.717882,36.74 C272.067987,37.2253509 271.363934,37.6055263 270.609592,37.8650877 C269.856217,38.125614 269.038046,38.2587719 268.150243,38.2587719 C266.705388,38.2587719 265.500375,37.8795614 264.542941,37.1336842 C263.583572,36.3887719 262.943349,35.2849123 262.610664,33.8298246 L275.339704,33.8298246 C275.910296,33.8230702 276.416092,33.6957018 276.86773,33.4428947 C277.319368,33.1891228 277.678164,32.8301754 277.939283,32.3737719 C278.199434,31.9096491 278.333862,31.3683333 278.341599,30.7498246 C278.341599,29.8003509 278.207171,28.8228947 277.93348,27.8174561 C277.657855,26.8120175 277.242,25.8345614 276.677211,24.8918421 C276.122092,23.9500877 275.409336,23.0990351 274.542809,22.3473684 C273.675316,21.5947368 272.654053,20.9897368 271.477086,20.5468421 C270.292382,20.1039474 268.946171,19.8714035 267.430717,19.8646491 C265.776,19.8781579 264.267316,20.1878947 262.899829,20.7928947 C261.532342,21.4046491 260.349572,22.2489474 259.354421,23.3315789 C258.360237,24.4064912 257.593322,25.6589474 257.049809,27.0725439 C256.507263,28.4919298 256.233572,30.0107018 256.225836,31.635614 L256.225836,31.7195614 C256.233572,33.4573684 256.536276,35.0378947 257.121375,36.4659649 C257.705507,37.8930702 258.530447,39.1242982 259.594263,40.1577193 C260.659046,41.1911404 261.905645,41.9929825 263.34373,42.5555263 C264.780849,43.1180702 266.352395,43.3988596 268.066105,43.4065789 C269.71502,43.3988596 271.187921,43.1537719 272.491579,42.6684211 C273.79427,42.1830702 274.937388,41.514386 275.930605,40.6642982 Z M262.525559,29.8215789 C262.69577,28.8441228 262.997507,27.9998246 263.428836,27.2828947 C263.865,26.5592105 264.414316,26.0034211 265.092257,25.6097368 C265.761493,25.2160526 266.542914,25.0192105 267.430717,25.0114912 C268.333993,25.0192105 269.123151,25.222807 269.792388,25.6232456 C270.454855,26.0169298 270.997401,26.5794737 271.407454,27.2964035 C271.815572,28.0210526 272.083461,28.8576316 272.210151,29.8215789 L262.525559,29.8215789 Z" id="Fill-16"></path>
                <path d="M293.944875,43.4065789 C295.178901,43.3988596 296.283336,43.2792105 297.256243,43.0341228 C298.229151,42.7948246 299.103414,42.4571053 299.878066,42.0209649 C300.646914,41.5857895 301.351934,41.0792105 301.978618,40.4954386 C302.260046,40.2416667 302.479579,39.9464035 302.648822,39.6096491 C302.817099,39.2719298 302.902204,38.8927193 302.909941,38.4700877 C302.902204,37.9567544 302.781316,37.499386 302.543408,37.0854386 C302.311303,36.6705263 301.986355,36.3463158 301.584039,36.1002632 C301.175921,35.8619298 300.716546,35.7345614 300.203013,35.727807 C299.816171,35.7345614 299.477684,35.805 299.174013,35.9314035 C298.877112,36.0510526 298.639204,36.1851754 298.468993,36.3192982 C297.862618,36.8104386 297.214658,37.190614 296.530914,37.4646491 C295.839434,37.7386842 295.078322,37.872807 294.239842,37.8795614 C293.359776,37.872807 292.569651,37.7107018 291.857862,37.3874561 C291.153809,37.0709649 290.547434,36.6280702 290.046474,36.0587719 C289.547447,35.4817544 289.158671,34.8207895 288.892717,34.0691228 C288.623862,33.3155263 288.490401,32.5069298 288.490401,31.635614 L288.490401,31.5507018 C288.490401,30.7141228 288.629664,29.92 288.89852,29.1818421 C289.166408,28.4427193 289.540678,27.7894737 290.032934,27.2192105 C290.518421,26.6499123 291.104487,26.2070175 291.774691,25.8837719 C292.443928,25.5605263 293.176026,25.3984211 293.986461,25.3916667 C294.825908,25.3916667 295.558007,25.5257895 296.200164,25.7785965 C296.841355,26.0246491 297.439993,26.3758772 298.004783,26.8264912 C298.195303,26.9808772 298.448684,27.1207895 298.758158,27.2549123 C299.075368,27.3813158 299.441901,27.4517544 299.864526,27.4585088 C300.407072,27.4517544 300.894493,27.3253509 301.338395,27.0725439 C301.774559,26.8187719 302.119816,26.4742982 302.380934,26.0458772 C302.642053,25.6164912 302.775513,25.1311404 302.781316,24.5898246 C302.775513,24.2241228 302.719421,23.8941228 302.613039,23.605614 C302.507625,23.3171053 302.373197,23.0710526 302.218461,22.8674561 C302.063724,22.670614 301.916724,22.5085088 301.766822,22.395614 C300.822928,21.5870175 299.723329,20.9685088 298.468993,20.525614 C297.206921,20.0894737 295.728217,19.8714035 294.028046,19.8646491 C292.288224,19.8781579 290.696368,20.1878947 289.243776,20.7928947 C287.798921,21.4046491 286.544586,22.2489474 285.486572,23.3315789 C284.430493,24.4064912 283.605553,25.6589474 283.027224,27.0725439 C282.449862,28.4919298 282.154895,30.0107018 282.147158,31.635614 L282.147158,31.7195614 C282.154895,33.3444737 282.449862,34.8632456 283.034961,36.2691228 C283.613289,37.6759649 284.43823,38.9129825 285.494309,39.9811404 C286.552322,41.0512281 287.798921,41.887807 289.230237,42.4850877 C290.660586,43.0900877 292.232132,43.3930702 293.944875,43.4065789" id="Fill-17"></path>
                <path d="M315.046145,43.2792105 C315.735691,43.2792105 316.377849,43.2377193 316.961013,43.1392982 C317.553849,43.0399123 318.139914,42.8787719 318.723079,42.647193 C319.027717,42.5342982 319.295605,42.3586842 319.548987,42.1261404 C319.794632,41.8945614 319.992888,41.6205263 320.139888,41.2972807 C320.294625,40.9740351 320.367158,40.622807 320.372961,40.2416667 C320.367158,39.742807 320.24627,39.2931579 320.000625,38.8985088 C319.760783,38.4980702 319.443572,38.1815789 319.041257,37.9422807 C318.640875,37.7107018 318.195039,37.5910526 317.709553,37.5842982 C317.632184,37.5842982 317.518066,37.5910526 317.355592,37.6055263 C317.200855,37.6190351 317.061592,37.6267544 316.948441,37.6267544 C316.229882,37.6267544 315.706678,37.444386 315.369158,37.0854386 C315.038408,36.7197368 314.868197,36.1707018 314.875934,35.4325439 L314.875934,25.7708772 L317.709553,25.7708772 C318.223086,25.7641228 318.68923,25.6377193 319.097349,25.3984211 C319.513204,25.1523684 319.838151,24.8291228 320.083796,24.4142105 C320.323638,23.9992982 320.450329,23.5419298 320.457099,23.0285965 C320.450329,22.5152632 320.323638,22.0511404 320.083796,21.6439474 C319.838151,21.2290351 319.513204,20.9048246 319.097349,20.6597368 C318.68923,20.4127193 318.223086,20.2940351 317.709553,20.2863158 L314.875934,20.2863158 L314.875934,17.4600877 C314.868197,16.8618421 314.721197,16.3205263 314.43977,15.8428947 C314.150605,15.3575439 313.768599,14.9773684 313.283112,14.6898246 C312.803428,14.4080702 312.261849,14.2604386 311.663211,14.2536842 C311.064572,14.2604386 310.520092,14.4080702 310.042342,14.6898246 C309.554921,14.9773684 309.174849,15.3575439 308.886651,15.8428947 C308.605224,16.3205263 308.455322,16.8618421 308.447586,17.4600877 L308.447586,20.2863158 L308.236757,20.2863158 C307.722257,20.2940351 307.265783,20.4127193 306.847993,20.6597368 C306.432138,20.9048246 306.109125,21.2290351 305.862513,21.6439474 C305.622671,22.0511404 305.49598,22.5152632 305.488243,23.0285965 C305.49598,23.5419298 305.622671,23.9992982 305.862513,24.4142105 C306.109125,24.8291228 306.432138,25.1523684 306.847993,25.3984211 C307.265783,25.6377193 307.722257,25.7641228 308.236757,25.7708772 L308.447586,25.7708772 L308.447586,36.487193 C308.455322,37.7878947 308.610059,38.8782456 308.928237,39.7572807 C309.245447,40.6285965 309.689349,41.3252632 310.274447,41.8453509 C310.852776,42.3586842 311.549092,42.7311404 312.352757,42.9559649 C313.164158,43.1740351 314.057763,43.2869298 315.046145,43.2792105" id="Fill-18"></path>
                <path d="M37.7596579,22.3907895 L39.1725987,26.1452632 C40.2112697,28.797807 44.191875,27.2790351 43.2141316,24.6303509 L40.1280987,16.4372807 L48.3571974,16.4372807 C51.9161447,16.4372807 54.8280987,19.3426316 54.8280987,22.8935088 L54.8280987,32.4036842 C54.8280987,35.9545614 51.9161447,38.8589474 48.3571974,38.8589474 L38.6503618,38.8589474 L38.6503618,48.5447368 C38.6503618,52.095614 35.739375,55 32.1794605,55 L22.6486382,55 C19.0887237,55 16.1777368,52.095614 16.1777368,48.5447368 L16.1777368,42.3770175 C25.7917303,40.3101754 34.4231447,33.5664035 37.7596579,22.3907895" id="Fill-19"></path>
                <path d="M22.6486382,0.297192982 L32.1794605,0.297192982 C35.739375,0.297192982 38.6503618,3.20157895 38.6503618,6.75245614 L38.6503618,14.9252632 C38.2490132,14.8085088 37.7857697,14.8142982 37.2809408,14.9995614 C30.3216513,17.6086842 35.8505921,15.5360526 28.8903355,18.1461404 C26.2375658,19.1592982 27.7423816,23.1569298 30.4077237,22.1765789 L33.6117434,20.9762281 C29.5692434,34.8748246 15.4408026,41.1158772 3.30169737,38.0262281 C1.33460526,36.915614 0,34.8072807 0,32.4036842 L0,22.8935088 C0,19.3426316 2.91195395,16.4372807 6.46993421,16.4372807 L16.1777368,16.4372807 L16.1777368,6.75245614 C16.1777368,3.20157895 19.0887237,0.297192982 22.6486382,0.297192982" id="Fill-20"></path>
            </g>
        </g>
    </g>
</svg>