<?xml version="1.0" encoding="UTF-8"?>
<svg width="324px" height="65px" viewBox="0 0 324 65" version="1.1" xmlns="http://www.w3.org/2000/svg" xmlns:xlink="http://www.w3.org/1999/xlink">
    <!-- Generator: Sketch 48.2 (47327) - http://www.bohemiancoding.com/sketch -->
    <title>ABCDEFGHIJKLMNOPQRST</title>
    <desc>Created with Sketch.</desc>
    <defs></defs>
    <g id="merchMAKER" stroke="none" stroke-width="1" fill="none" fill-rule="evenodd" transform="translate(-664.000000, -1913.000000)">
        <g id="02-Font-Colours" transform="translate(0.000000, 1459.000000)" fill="#333333">
            <path d="M669.482,463.032 L672.812,463.032 L671.192,458.316 L671.156,458.316 L669.482,463.032 Z M669.752,455.148 L672.65,455.148 L677.456,468 L674.522,468 L673.55,465.138 L668.744,465.138 L667.736,468 L664.892,468 L669.752,455.148 Z M681.398,460.35 L684.26,460.35 C684.764003,460.35 685.177998,460.230001 685.502,459.99 C685.826002,459.749999 685.988,459.360003 685.988,458.82 C685.988,458.519998 685.934001,458.274001 685.826,458.082 C685.717999,457.889999 685.574001,457.740001 685.394,457.632 C685.213999,457.523999 685.007001,457.449 684.773,457.407 C684.538999,457.365 684.296001,457.344 684.044,457.344 L681.398,457.344 L681.398,460.35 Z M678.572,455.148 L684.62,455.148 C685.232003,455.148 685.789997,455.201999 686.294,455.31 C686.798003,455.418001 687.229998,455.594999 687.59,455.841 C687.950002,456.087001 688.228999,456.413998 688.427,456.822 C688.625001,457.230002 688.724,457.733997 688.724,458.334 C688.724,458.982003 688.577001,459.521998 688.283,459.954 C687.988999,460.386002 687.554003,460.739999 686.978,461.016 C687.770004,461.244001 688.360998,461.642997 688.751,462.213 C689.141002,462.783003 689.336,463.469996 689.336,464.274 C689.336,464.922003 689.210001,465.482998 688.958,465.957 C688.705999,466.431002 688.367002,466.817998 687.941,467.118 C687.514998,467.418002 687.029003,467.639999 686.483,467.784 C685.936997,467.928001 685.376003,468 684.8,468 L678.572,468 L678.572,455.148 Z M681.398,465.804 L684.422,465.804 C684.698001,465.804 684.961999,465.777 685.214,465.723 C685.466001,465.669 685.687999,465.579001 685.88,465.453 C686.072001,465.326999 686.224999,465.156001 686.339,464.94 C686.453001,464.723999 686.51,464.448002 686.51,464.112 C686.51,463.451997 686.324002,462.981001 685.952,462.699 C685.579998,462.416999 685.088003,462.276 684.476,462.276 L681.398,462.276 L681.398,465.804 Z M699.812,459.468 C699.764,459.143998 699.656001,458.847001 699.488,458.577 C699.319999,458.306999 699.110001,458.070001 698.858,457.866 C698.605999,457.661999 698.321002,457.503001 698.003,457.389 C697.684998,457.274999 697.352002,457.218 697.004,457.218 C696.367997,457.218 695.828002,457.340999 695.384,457.587 C694.939998,457.833001 694.580001,458.162998 694.304,458.577 C694.027999,458.991002 693.827001,459.461997 693.701,459.99 C693.574999,460.518003 693.512,461.063997 693.512,461.628 C693.512,462.168003 693.574999,462.692997 693.701,463.203 C693.827001,463.713003 694.027999,464.171998 694.304,464.58 C694.580001,464.988002 694.939998,465.314999 695.384,465.561 C695.828002,465.807001 696.367997,465.93 697.004,465.93 C697.868004,465.93 698.542998,465.666003 699.029,465.138 C699.515002,464.609997 699.811999,463.914004 699.92,463.05 L702.656,463.05 C702.584,463.854004 702.398001,464.579997 702.098,465.228 C701.797998,465.876003 701.402002,466.427998 700.91,466.884 C700.417998,467.340002 699.842003,467.687999 699.182,467.928 C698.521997,468.168001 697.796004,468.288 697.004,468.288 C696.019995,468.288 695.135004,468.117002 694.349,467.775 C693.562996,467.432998 692.900003,466.962003 692.36,466.362 C691.819997,465.761997 691.406001,465.057004 691.118,464.247 C690.829999,463.436996 690.686,462.564005 690.686,461.628 C690.686,460.667995 690.829999,459.777004 691.118,458.955 C691.406001,458.132996 691.819997,457.416003 692.36,456.804 C692.900003,456.191997 693.562996,455.712002 694.349,455.364 C695.135004,455.015998 696.019995,454.842 697.004,454.842 C697.712004,454.842 698.380997,454.943999 699.011,455.148 C699.641003,455.352001 700.204998,455.648998 700.703,456.039 C701.201002,456.429002 701.611998,456.911997 701.936,457.488 C702.260002,458.064003 702.464,458.723996 702.548,459.468 L699.812,459.468 Z M707.408,465.624 L709.928,465.624 C710.336002,465.624 710.731998,465.558001 711.116,465.426 C711.500002,465.293999 711.841999,465.075002 712.142,464.769 C712.442002,464.462998 712.681999,464.064002 712.862,463.572 C713.042001,463.079998 713.132,462.480004 713.132,461.772 C713.132,461.123997 713.069001,460.539003 712.943,460.017 C712.816999,459.494997 712.610001,459.048002 712.322,458.676 C712.033999,458.303998 711.653002,458.019001 711.179,457.821 C710.704998,457.622999 710.120003,457.524 709.424,457.524 L707.408,457.524 L707.408,465.624 Z M704.582,455.148 L710.126,455.148 C710.954004,455.148 711.724996,455.279999 712.439,455.544 C713.153004,455.808001 713.770997,456.203997 714.293,456.732 C714.815003,457.260003 715.222999,457.919996 715.517,458.712 C715.811001,459.504004 715.958,460.433995 715.958,461.502 C715.958,462.438005 715.838001,463.301996 715.598,464.094 C715.357999,464.886004 714.995002,465.569997 714.509,466.146 C714.022998,466.722003 713.417004,467.174998 712.691,467.505 C711.964996,467.835002 711.110005,468 710.126,468 L704.582,468 L704.582,455.148 Z M717.92,455.148 L727.532,455.148 L727.532,457.524 L720.746,457.524 L720.746,460.278 L726.974,460.278 L726.974,462.474 L720.746,462.474 L720.746,465.624 L727.676,465.624 L727.676,468 L717.92,468 L717.92,455.148 Z M729.584,455.148 L738.62,455.148 L738.62,457.524 L732.41,457.524 L732.41,460.494 L737.792,460.494 L737.792,462.69 L732.41,462.69 L732.41,468 L729.584,468 L729.584,455.148 Z M749.546,466.542 C749.041997,467.190003 748.484003,467.642999 747.872,467.901 C747.259997,468.159001 746.642003,468.288 746.018,468.288 C745.033995,468.288 744.149004,468.117002 743.363,467.775 C742.576996,467.432998 741.914003,466.962003 741.374,466.362 C740.833997,465.761997 740.420001,465.057004 740.132,464.247 C739.843999,463.436996 739.7,462.564005 739.7,461.628 C739.7,460.667995 739.843999,459.777004 740.132,458.955 C740.420001,458.132996 740.833997,457.416003 741.374,456.804 C741.914003,456.191997 742.576996,455.712002 743.363,455.364 C744.149004,455.015998 745.033995,454.842 746.018,454.842 C746.678003,454.842 747.316997,454.940999 747.935,455.139 C748.553003,455.337001 749.110998,455.627998 749.609,456.012 C750.107002,456.396002 750.517998,456.869997 750.842,457.434 C751.166002,457.998003 751.364,458.645996 751.436,459.378 L748.736,459.378 C748.567999,458.657996 748.244002,458.118002 747.764,457.758 C747.283998,457.397998 746.702003,457.218 746.018,457.218 C745.381997,457.218 744.842002,457.340999 744.398,457.587 C743.953998,457.833001 743.594001,458.162998 743.318,458.577 C743.041999,458.991002 742.841001,459.461997 742.715,459.99 C742.588999,460.518003 742.526,461.063997 742.526,461.628 C742.526,462.168003 742.588999,462.692997 742.715,463.203 C742.841001,463.713003 743.041999,464.171998 743.318,464.58 C743.594001,464.988002 743.953998,465.314999 744.398,465.561 C744.842002,465.807001 745.381997,465.93 746.018,465.93 C746.954005,465.93 747.676997,465.693002 748.187,465.219 C748.697003,464.744998 748.994,464.058004 749.078,463.158 L746.234,463.158 L746.234,461.052 L751.634,461.052 L751.634,468 L749.834,468 L749.546,466.542 Z M753.92,455.148 L756.746,455.148 L756.746,460.08 L761.948,460.08 L761.948,455.148 L764.774,455.148 L764.774,468 L761.948,468 L761.948,462.456 L756.746,462.456 L756.746,468 L753.92,468 L753.92,455.148 Z M767.258,455.148 L770.084,455.148 L770.084,468 L767.258,468 L767.258,455.148 Z M780.092,463.95 C780.092,464.370002 780.05,464.831997 779.966,465.336 C779.882,465.840003 779.690001,466.310998 779.39,466.749 C779.089998,467.187002 778.658003,467.552999 778.094,467.847 C777.529997,468.141001 776.768005,468.288 775.808,468.288 C775.267997,468.288 774.746003,468.213001 774.242,468.063 C773.737997,467.912999 773.288002,467.679002 772.892,467.361 C772.495998,467.042998 772.178001,466.635002 771.938,466.137 C771.697999,465.638998 771.578,465.036004 771.578,464.328 L771.578,463.212 L774.134,463.212 L774.134,463.788 C774.134,464.100002 774.158,464.387999 774.206,464.652 C774.254,464.916001 774.337999,465.140999 774.458,465.327 C774.578001,465.513001 774.742999,465.659999 774.953,465.768 C775.163001,465.876001 775.435998,465.93 775.772,465.93 C776.144002,465.93 776.431999,465.864001 776.636,465.732 C776.840001,465.599999 776.987,465.429001 777.077,465.219 C777.167,465.008999 777.221,464.781001 777.239,464.535 C777.257,464.288999 777.266,464.052001 777.266,463.824 L777.266,455.148 L780.092,455.148 L780.092,463.95 Z M782.576,455.148 L785.402,455.148 L785.402,460.476 L790.424,455.148 L793.952,455.148 L788.93,460.224 L794.438,468 L790.892,468 L787.022,462.222 L785.402,463.86 L785.402,468 L782.576,468 L782.576,455.148 Z M795.572,455.148 L798.398,455.148 L798.398,465.624 L804.662,465.624 L804.662,468 L795.572,468 L795.572,455.148 Z M806.246,455.148 L810.224,455.148 L813.23,463.986 L813.266,463.986 L816.11,455.148 L820.088,455.148 L820.088,468 L817.442,468 L817.442,458.892 L817.406,458.892 L814.256,468 L812.078,468 L808.928,458.982 L808.892,458.982 L808.892,468 L806.246,468 L806.246,455.148 Z M822.572,455.148 L825.38,455.148 L830.744,463.77 L830.78,463.77 L830.78,455.148 L833.426,455.148 L833.426,468 L830.6,468 L825.254,459.396 L825.218,459.396 L825.218,468 L822.572,468 L822.572,455.148 Z M838.178,461.628 C838.178,462.168003 838.240999,462.692997 838.367,463.203 C838.493001,463.713003 838.693999,464.171998 838.97,464.58 C839.246001,464.988002 839.605998,465.314999 840.05,465.561 C840.494002,465.807001 841.033997,465.93 841.67,465.93 C842.306003,465.93 842.845998,465.807001 843.29,465.561 C843.734002,465.314999 844.093999,464.988002 844.37,464.58 C844.646001,464.171998 844.846999,463.713003 844.973,463.203 C845.099001,462.692997 845.162,462.168003 845.162,461.628 C845.162,461.063997 845.099001,460.518003 844.973,459.99 C844.846999,459.461997 844.646001,458.991002 844.37,458.577 C844.093999,458.162998 843.734002,457.833001 843.29,457.587 C842.845998,457.340999 842.306003,457.218 841.67,457.218 C841.033997,457.218 840.494002,457.340999 840.05,457.587 C839.605998,457.833001 839.246001,458.162998 838.97,458.577 C838.693999,458.991002 838.493001,459.461997 838.367,459.99 C838.240999,460.518003 838.178,461.063997 838.178,461.628 Z M835.352,461.628 C835.352,460.667995 835.495999,459.777004 835.784,458.955 C836.072001,458.132996 836.485997,457.416003 837.026,456.804 C837.566003,456.191997 838.228996,455.712002 839.015,455.364 C839.801004,455.015998 840.685995,454.842 841.67,454.842 C842.666005,454.842 843.553996,455.015998 844.334,455.364 C845.114004,455.712002 845.773997,456.191997 846.314,456.804 C846.854003,457.416003 847.267999,458.132996 847.556,458.955 C847.844001,459.777004 847.988,460.667995 847.988,461.628 C847.988,462.564005 847.844001,463.436996 847.556,464.247 C847.267999,465.057004 846.854003,465.761997 846.314,466.362 C845.773997,466.962003 845.114004,467.432998 844.334,467.775 C843.553996,468.117002 842.666005,468.288 841.67,468.288 C840.685995,468.288 839.801004,468.117002 839.015,467.775 C838.228996,467.432998 837.566003,466.962003 837.026,466.362 C836.485997,465.761997 836.072001,465.057004 835.784,464.247 C835.495999,463.436996 835.352,462.564005 835.352,461.628 Z M852.74,461.196 L854.936,461.196 C855.260002,461.196 855.571998,461.172 855.872,461.124 C856.172001,461.076 856.435999,460.983001 856.664,460.845 C856.892001,460.706999 857.074999,460.512001 857.213,460.26 C857.351001,460.007999 857.42,459.678002 857.42,459.27 C857.42,458.861998 857.351001,458.532001 857.213,458.28 C857.074999,458.027999 856.892001,457.833001 856.664,457.695 C856.435999,457.556999 856.172001,457.464 855.872,457.416 C855.571998,457.368 855.260002,457.344 854.936,457.344 L852.74,457.344 L852.74,461.196 Z M849.914,455.148 L855.71,455.148 C856.514004,455.148 857.197997,455.264999 857.762,455.499 C858.326003,455.733001 858.784998,456.041998 859.139,456.426 C859.493002,456.810002 859.750999,457.247998 859.913,457.74 C860.075001,458.232002 860.156,458.741997 860.156,459.27 C860.156,459.786003 860.075001,460.292998 859.913,460.791 C859.750999,461.289002 859.493002,461.729998 859.139,462.114 C858.784998,462.498002 858.326003,462.806999 857.762,463.041 C857.197997,463.275001 856.514004,463.392 855.71,463.392 L852.74,463.392 L852.74,468 L849.914,468 L849.914,455.148 Z M870.38,464.58 C870.620001,464.255998 870.811999,463.854002 870.956,463.374 C871.100001,462.893998 871.172,462.312003 871.172,461.628 C871.172,461.063997 871.109001,460.518003 870.983,459.99 C870.856999,459.461997 870.656001,458.991002 870.38,458.577 C870.103999,458.162998 869.744002,457.833001 869.3,457.587 C868.855998,457.340999 868.316003,457.218 867.68,457.218 C867.043997,457.218 866.504002,457.340999 866.06,457.587 C865.615998,457.833001 865.256001,458.162998 864.98,458.577 C864.703999,458.991002 864.503001,459.461997 864.377,459.99 C864.250999,460.518003 864.188,461.063997 864.188,461.628 C864.188,462.168003 864.250999,462.692997 864.377,463.203 C864.503001,463.713003 864.703999,464.171998 864.98,464.58 C865.256001,464.988002 865.615998,465.314999 866.06,465.561 C866.504002,465.807001 867.043997,465.93 867.68,465.93 C867.980002,465.93 868.207999,465.918 868.364,465.894 C868.520001,465.87 868.669999,465.822 868.814,465.75 L867.608,464.652 L868.922,463.248 L870.38,464.58 Z M870.794,467.55 C869.941996,468.042002 868.904006,468.288 867.68,468.288 C866.695995,468.288 865.811004,468.117002 865.025,467.775 C864.238996,467.432998 863.576003,466.962003 863.036,466.362 C862.495997,465.761997 862.082001,465.057004 861.794,464.247 C861.505999,463.436996 861.362,462.564005 861.362,461.628 C861.362,460.667995 861.505999,459.777004 861.794,458.955 C862.082001,458.132996 862.495997,457.416003 863.036,456.804 C863.576003,456.191997 864.238996,455.712002 865.025,455.364 C865.811004,455.015998 866.695995,454.842 867.68,454.842 C868.676005,454.842 869.563996,455.015998 870.344,455.364 C871.124004,455.712002 871.783997,456.191997 872.324,456.804 C872.864003,457.416003 873.277999,458.132996 873.566,458.955 C873.854001,459.777004 873.998,460.667995 873.998,461.628 C873.998,462.564005 873.854001,463.433996 873.566,464.238 C873.277999,465.042004 872.864003,465.749997 872.324,466.362 L873.926,467.82 L872.612,469.188 L870.794,467.55 Z M878.75,460.962 L881.846,460.962 C882.494003,460.962 882.979998,460.818001 883.304,460.53 C883.628002,460.241999 883.79,459.774003 883.79,459.126 C883.79,458.501997 883.628002,458.049001 883.304,457.767 C882.979998,457.484999 882.494003,457.344 881.846,457.344 L878.75,457.344 L878.75,460.962 Z M875.924,455.148 L882.854,455.148 C883.430003,455.148 883.948998,455.240999 884.411,455.427 C884.873002,455.613001 885.268998,455.867998 885.599,456.192 C885.929002,456.516002 886.180999,456.890998 886.355,457.317 C886.529001,457.743002 886.616,458.201998 886.616,458.694 C886.616,459.450004 886.457002,460.103997 886.139,460.656 C885.820998,461.208003 885.302004,461.627999 884.582,461.916 L884.582,461.952 C884.930002,462.048 885.217999,462.194999 885.446,462.393 C885.674001,462.591001 885.859999,462.824999 886.004,463.095 C886.148001,463.365001 886.253,463.661998 886.319,463.986 C886.385,464.310002 886.43,464.633998 886.454,464.958 C886.466,465.162001 886.478,465.401999 886.49,465.678 C886.502,465.954001 886.523,466.235999 886.553,466.524 C886.583,466.812001 886.631,467.084999 886.697,467.343 C886.763,467.601001 886.861999,467.819999 886.994,468 L884.168,468 C884.011999,467.591998 883.916,467.106003 883.88,466.542 C883.844,465.977997 883.79,465.438003 883.718,464.922 C883.622,464.249997 883.418002,463.758002 883.106,463.446 C882.793998,463.133998 882.284004,462.978 881.576,462.978 L878.75,462.978 L878.75,468 L875.924,468 L875.924,455.148 Z M890.846,463.734 C890.846,464.166002 890.923999,464.531998 891.08,464.832 C891.236001,465.132002 891.442999,465.374999 891.701,465.561 C891.959001,465.747001 892.261998,465.885 892.61,465.975 C892.958002,466.065 893.317998,466.11 893.69,466.11 C893.942001,466.11 894.211999,466.089 894.5,466.047 C894.788001,466.005 895.057999,465.924001 895.31,465.804 C895.562001,465.683999 895.771999,465.519001 895.94,465.309 C896.108001,465.098999 896.192,464.832002 896.192,464.508 C896.192,464.159998 896.081001,463.878001 895.859,463.662 C895.636999,463.445999 895.346002,463.266001 894.986,463.122 C894.625998,462.977999 894.218002,462.852001 893.762,462.744 C893.305998,462.635999 892.844002,462.516001 892.376,462.384 C891.895998,462.263999 891.428002,462.117001 890.972,461.943 C890.515998,461.768999 890.108002,461.544001 889.748,461.268 C889.387998,460.991999 889.097001,460.647002 888.875,460.233 C888.652999,459.818998 888.542,459.318003 888.542,458.73 C888.542,458.069997 888.682999,457.497002 888.965,457.011 C889.247001,456.524998 889.615998,456.120002 890.072,455.796 C890.528002,455.471998 891.043997,455.232001 891.62,455.076 C892.196003,454.919999 892.771997,454.842 893.348,454.842 C894.020003,454.842 894.664997,454.916999 895.283,455.067 C895.901003,455.217001 896.449998,455.459998 896.93,455.796 C897.410002,456.132002 897.790999,456.560997 898.073,457.083 C898.355001,457.605003 898.496,458.237996 898.496,458.982 L895.76,458.982 C895.736,458.597998 895.655001,458.280001 895.517,458.028 C895.378999,457.775999 895.196001,457.578001 894.968,457.434 C894.739999,457.289999 894.479001,457.188 894.185,457.128 C893.890999,457.068 893.570002,457.038 893.222,457.038 C892.993999,457.038 892.766001,457.062 892.538,457.11 C892.309999,457.158 892.103001,457.241999 891.917,457.362 C891.730999,457.482001 891.578001,457.631999 891.458,457.812 C891.337999,457.992001 891.278,458.219999 891.278,458.496 C891.278,458.748001 891.326,458.951999 891.422,459.108 C891.518,459.264001 891.706999,459.407999 891.989,459.54 C892.271001,459.672001 892.660998,459.803999 893.159,459.936 C893.657002,460.068001 894.307996,460.235999 895.112,460.44 C895.352001,460.488 895.684998,460.574999 896.111,460.701 C896.537002,460.827001 896.959998,461.027999 897.38,461.304 C897.800002,461.580001 898.162998,461.948998 898.469,462.411 C898.775002,462.873002 898.928,463.463996 898.928,464.184 C898.928,464.772003 898.814001,465.317997 898.586,465.822 C898.357999,466.326003 898.019002,466.760998 897.569,467.127 C897.118998,467.493002 896.561003,467.777999 895.895,467.982 C895.228997,468.186001 894.458004,468.288 893.582,468.288 C892.873996,468.288 892.187003,468.201001 891.521,468.027 C890.854997,467.852999 890.267003,467.580002 889.757,467.208 C889.246997,466.835998 888.842001,466.362003 888.542,465.786 C888.241998,465.209997 888.098,464.526004 888.11,463.734 L890.846,463.734 Z M903.446,457.524 L899.594,457.524 L899.594,455.148 L910.124,455.148 L910.124,457.524 L906.272,457.524 L906.272,468 L903.446,468 L903.446,457.524 Z M922.508,463.14 C922.508,464.880009 922.022005,466.172996 921.05,467.019 C920.077995,467.865004 918.734009,468.288 917.018,468.288 C915.277991,468.288 913.931005,467.868004 912.977,467.028 C912.022995,466.187996 911.546,464.892009 911.546,463.14 L911.546,455.148 L914.372,455.148 L914.372,463.14 C914.372,463.488002 914.402,463.829998 914.462,464.166 C914.522,464.502002 914.647999,464.798999 914.84,465.057 C915.032001,465.315001 915.298998,465.524999 915.641,465.687 C915.983002,465.849001 916.441997,465.93 917.018,465.93 C918.026005,465.93 918.721998,465.705002 919.106,465.255 C919.490002,464.804998 919.682,464.100005 919.682,463.14 L919.682,455.148 L922.508,455.148 L922.508,463.14 Z M930.914,468 L927.728,468 L923.57,455.148 L926.468,455.148 L929.33,464.184 L929.366,464.184 L932.264,455.148 L935.18,455.148 L930.914,468 Z M948.518,468 L945.71,468 L943.532,459.252 L943.496,459.252 L941.354,468 L938.492,468 L935.09,455.148 L937.916,455.148 L939.95,463.896 L939.986,463.896 L942.218,455.148 L944.864,455.148 L947.06,464.004 L947.096,464.004 L949.202,455.148 L951.974,455.148 L948.518,468 Z M956.42,461.268 L952.28,455.148 L955.556,455.148 L958.076,459.252 L960.686,455.148 L963.782,455.148 L959.66,461.286 L964.142,468 L960.776,468 L957.968,463.554 L955.106,468 L951.938,468 L956.42,461.268 Z M968.606,462.996 L963.89,455.148 L967.058,455.148 L970.064,460.224 L973.052,455.148 L976.202,455.148 L971.432,463.068 L971.432,468 L968.606,468 L968.606,462.996 Z M976.454,465.768 L983.348,457.524 L976.994,457.524 L976.994,455.148 L987.11,455.148 L987.11,457.38 L980.216,465.624 L987.29,465.624 L987.29,468 L976.454,468 L976.454,465.768 Z M674.396,492.964 C674.131999,493.120001 673.766002,493.198 673.298,493.198 C672.901998,493.198 672.587001,493.087001 672.353,492.865 C672.118999,492.642999 672.002,492.280003 672.002,491.776 C671.581998,492.280003 671.093003,492.642999 670.535,492.865 C669.976997,493.087001 669.374003,493.198 668.726,493.198 C668.305998,493.198 667.907002,493.15 667.529,493.054 C667.150998,492.958 666.824001,492.808001 666.548,492.604 C666.271999,492.399999 666.053001,492.133002 665.891,491.803 C665.728999,491.472998 665.648,491.074002 665.648,490.606 C665.648,490.077997 665.737999,489.646002 665.918,489.31 C666.098001,488.973998 666.334999,488.701001 666.629,488.491 C666.923001,488.280999 667.258998,488.122001 667.637,488.014 C668.015002,487.905999 668.401998,487.816 668.798,487.744 C669.218002,487.66 669.616998,487.597 669.995,487.555 C670.373002,487.513 670.705999,487.453 670.994,487.375 C671.282001,487.297 671.509999,487.183001 671.678,487.033 C671.846001,486.882999 671.93,486.664001 671.93,486.376 C671.93,486.039998 671.867001,485.770001 671.741,485.566 C671.614999,485.361999 671.453001,485.206001 671.255,485.098 C671.056999,484.989999 670.835001,484.918 670.589,484.882 C670.342999,484.846 670.100001,484.828 669.86,484.828 C669.211997,484.828 668.672002,484.950999 668.24,485.197 C667.807998,485.443001 667.574,485.907997 667.538,486.592 L666.008,486.592 C666.032,486.015997 666.151999,485.530002 666.368,485.134 C666.584001,484.737998 666.871998,484.417001 667.232,484.171 C667.592002,483.924999 668.002998,483.748001 668.465,483.64 C668.927002,483.531999 669.421997,483.478 669.95,483.478 C670.370002,483.478 670.786998,483.508 671.201,483.568 C671.615002,483.628 671.989998,483.750999 672.326,483.937 C672.662002,484.123001 672.931999,484.383998 673.136,484.72 C673.340001,485.056002 673.442,485.493997 673.442,486.034 L673.442,490.822 C673.442,491.182002 673.463,491.445999 673.505,491.614 C673.547,491.782001 673.687999,491.866 673.928,491.866 C674.060001,491.866 674.215999,491.836 674.396,491.776 L674.396,492.964 Z M671.912,488.194 C671.719999,488.338001 671.468002,488.443 671.156,488.509 C670.843998,488.575 670.517002,488.629 670.175,488.671 C669.832998,488.713 669.488002,488.761 669.14,488.815 C668.791998,488.869 668.480001,488.955999 668.204,489.076 C667.927999,489.196001 667.703001,489.366999 667.529,489.589 C667.354999,489.811001 667.268,490.113998 667.268,490.498 C667.268,490.750001 667.318999,490.962999 667.421,491.137 C667.523001,491.311001 667.654999,491.451999 667.817,491.56 C667.979001,491.668001 668.167999,491.746 668.384,491.794 C668.600001,491.842 668.827999,491.866 669.068,491.866 C669.572003,491.866 670.003998,491.797001 670.364,491.659 C670.724002,491.520999 671.017999,491.347001 671.246,491.137 C671.474001,490.926999 671.641999,490.699001 671.75,490.453 C671.858001,490.206999 671.912,489.976001 671.912,489.76 L671.912,488.194 Z M675.872,480.148 L677.402,480.148 L677.402,484.954 L677.438,484.954 C677.690001,484.437997 678.085997,484.063001 678.626,483.829 C679.166003,483.594999 679.759997,483.478 680.408,483.478 C681.128004,483.478 681.754997,483.609999 682.289,483.874 C682.823003,484.138001 683.266998,484.494998 683.621,484.945 C683.975002,485.395002 684.241999,485.913997 684.422,486.502 C684.602001,487.090003 684.692,487.713997 684.692,488.374 C684.692,489.034003 684.605001,489.657997 684.431,490.246 C684.256999,490.834003 683.993002,491.346998 683.639,491.785 C683.284998,492.223002 682.841003,492.567999 682.307,492.82 C681.772997,493.072001 681.152004,493.198 680.444,493.198 C680.215999,493.198 679.961001,493.174 679.679,493.126 C679.396999,493.078 679.118001,493.000001 678.842,492.892 C678.565999,492.783999 678.305001,492.637001 678.059,492.451 C677.812999,492.264999 677.606001,492.034001 677.438,491.758 L677.402,491.758 L677.402,493 L675.872,493 L675.872,480.148 Z M683.072,488.266 C683.072,487.833998 683.015001,487.411002 682.901,486.997 C682.786999,486.582998 682.613001,486.214002 682.379,485.89 C682.144999,485.565998 681.845002,485.308001 681.479,485.116 C681.112998,484.923999 680.684002,484.828 680.192,484.828 C679.675997,484.828 679.238002,484.929999 678.878,485.134 C678.517998,485.338001 678.224001,485.604998 677.996,485.935 C677.767999,486.265002 677.603001,486.639998 677.501,487.06 C677.398999,487.480002 677.348,487.905998 677.348,488.338 C677.348,488.794002 677.401999,489.234998 677.51,489.661 C677.618001,490.087002 677.788999,490.461998 678.023,490.786 C678.257001,491.110002 678.559998,491.370999 678.932,491.569 C679.304002,491.767001 679.753997,491.866 680.282,491.866 C680.810003,491.866 681.250998,491.764001 681.605,491.56 C681.959002,491.355999 682.243999,491.086002 682.46,490.75 C682.676001,490.413998 682.832,490.030002 682.928,489.598 C683.024,489.165998 683.072,488.722002 683.072,488.266 Z M692.81,486.682 C692.689999,486.093997 692.438002,485.638002 692.054,485.314 C691.669998,484.989998 691.154003,484.828 690.506,484.828 C689.953997,484.828 689.492002,484.929999 689.12,485.134 C688.747998,485.338001 688.451001,485.607998 688.229,485.944 C688.006999,486.280002 687.848,486.666998 687.752,487.105 C687.656,487.543002 687.608,487.995998 687.608,488.464 C687.608,488.896002 687.658999,489.315998 687.761,489.724 C687.863001,490.132002 688.021999,490.494998 688.238,490.813 C688.454001,491.131002 688.735998,491.385999 689.084,491.578 C689.432002,491.770001 689.845998,491.866 690.326,491.866 C691.082004,491.866 691.672998,491.668002 692.099,491.272 C692.525002,490.875998 692.786,490.318004 692.882,489.598 L694.448,489.598 C694.279999,490.750006 693.851003,491.637997 693.161,492.262 C692.470997,492.886003 691.532006,493.198 690.344,493.198 C689.635996,493.198 689.009003,493.084001 688.463,492.856 C687.916997,492.627999 687.461002,492.304002 687.095,491.884 C686.728998,491.463998 686.453001,490.963003 686.267,490.381 C686.080999,489.798997 685.988,489.160003 685.988,488.464 C685.988,487.767997 686.077999,487.117003 686.258,486.511 C686.438001,485.904997 686.710998,485.377002 687.077,484.927 C687.443002,484.476998 687.901997,484.123001 688.454,483.865 C689.006003,483.606999 689.647996,483.478 690.38,483.478 C690.908003,483.478 691.402998,483.540999 691.865,483.667 C692.327002,483.793001 692.734998,483.987999 693.089,484.252 C693.443002,484.516001 693.733999,484.848998 693.962,485.251 C694.190001,485.653002 694.334,486.129997 694.394,486.682 L692.81,486.682 Z M697.274,488.428 C697.274,488.860002 697.330999,489.282998 697.445,489.697 C697.559001,490.111002 697.732999,490.479998 697.967,490.804 C698.201001,491.128002 698.500998,491.385999 698.867,491.578 C699.233002,491.770001 699.661998,491.866 700.154,491.866 C700.670003,491.866 701.107998,491.764001 701.468,491.56 C701.828002,491.355999 702.121999,491.089002 702.35,490.759 C702.578001,490.428998 702.742999,490.054002 702.845,489.634 C702.947001,489.213998 702.998,488.788002 702.998,488.356 C702.998,487.899998 702.944001,487.459002 702.836,487.033 C702.727999,486.606998 702.557001,486.232002 702.323,485.908 C702.088999,485.583998 701.786002,485.323001 701.414,485.125 C701.041998,484.926999 700.592003,484.828 700.064,484.828 C699.547997,484.828 699.110002,484.929999 698.75,485.134 C698.389998,485.338001 698.102001,485.607998 697.886,485.944 C697.669999,486.280002 697.514,486.663998 697.418,487.096 C697.322,487.528002 697.274,487.971998 697.274,488.428 Z M704.474,493 L702.944,493 L702.944,491.74 L702.908,491.74 C702.655999,492.256003 702.260003,492.627999 701.72,492.856 C701.179997,493.084001 700.586003,493.198 699.938,493.198 C699.217996,493.198 698.591003,493.066001 698.057,492.802 C697.522997,492.537999 697.079002,492.184002 696.725,491.74 C696.370998,491.295998 696.104001,490.780003 695.924,490.192 C695.743999,489.603997 695.654,488.980003 695.654,488.32 C695.654,487.659997 695.740999,487.036003 695.915,486.448 C696.089001,485.859997 696.352998,485.347002 696.707,484.909 C697.061002,484.470998 697.504997,484.123001 698.039,483.865 C698.573003,483.606999 699.193996,483.478 699.902,483.478 C700.142001,483.478 700.399999,483.502 700.676,483.55 C700.952001,483.598 701.227999,483.678999 701.504,483.793 C701.780001,483.907001 702.040999,484.056999 702.287,484.243 C702.533001,484.429001 702.739999,484.659999 702.908,484.936 L702.944,484.936 L702.944,480.148 L704.474,480.148 L704.474,493 Z M713.294,487.456 C713.27,487.095998 713.189001,486.754002 713.051,486.43 C712.912999,486.105998 712.727001,485.827001 712.493,485.593 C712.258999,485.358999 711.983002,485.173001 711.665,485.035 C711.346998,484.896999 710.996002,484.828 710.612,484.828 C710.215998,484.828 709.859002,484.896999 709.541,485.035 C709.222998,485.173001 708.950001,485.361999 708.722,485.602 C708.493999,485.842001 708.314001,486.120998 708.182,486.439 C708.049999,486.757002 707.972,487.095998 707.948,487.456 L713.294,487.456 Z M714.77,490.048 C714.565999,491.092005 714.116003,491.877997 713.42,492.406 C712.723997,492.934003 711.848005,493.198 710.792,493.198 C710.047996,493.198 709.403003,493.078001 708.857,492.838 C708.310997,492.597999 707.852002,492.262002 707.48,491.83 C707.107998,491.397998 706.829001,490.882003 706.643,490.282 C706.456999,489.681997 706.352,489.028004 706.328,488.32 C706.328,487.611996 706.435999,486.964003 706.652,486.376 C706.868001,485.787997 707.170998,485.278002 707.561,484.846 C707.951002,484.413998 708.412997,484.078001 708.947,483.838 C709.481003,483.597999 710.065997,483.478 710.702,483.478 C711.530004,483.478 712.216997,483.648998 712.763,483.991 C713.309003,484.333002 713.746998,484.767997 714.077,485.296 C714.407002,485.824003 714.634999,486.399997 714.761,487.024 C714.887001,487.648003 714.938,488.241997 714.914,488.806 L707.948,488.806 C707.936,489.214002 707.983999,489.600998 708.092,489.967 C708.200001,490.333002 708.373999,490.656999 708.614,490.939 C708.854001,491.221001 709.159998,491.445999 709.532,491.614 C709.904002,491.782001 710.341997,491.866 710.846,491.866 C711.494003,491.866 712.024998,491.716002 712.439,491.416 C712.853002,491.115998 713.125999,490.660003 713.258,490.048 L714.77,490.048 Z M717.128,485.044 L715.562,485.044 L715.562,483.694 L717.128,483.694 L717.128,482.308 C717.128,481.551996 717.346998,480.979002 717.785,480.589 C718.223002,480.198998 718.861996,480.004 719.702,480.004 C719.846001,480.004 720.010999,480.016 720.197,480.04 C720.383001,480.064 720.547999,480.1 720.692,480.148 L720.692,481.48 C720.559999,481.432 720.416001,481.399 720.26,481.381 C720.103999,481.363 719.960001,481.354 719.828,481.354 C719.455998,481.354 719.168001,481.425999 718.964,481.57 C718.759999,481.714001 718.658,481.989998 718.658,482.398 L718.658,483.694 L720.458,483.694 L720.458,485.044 L718.658,485.044 L718.658,493 L717.128,493 L717.128,485.044 Z M729.854,492.208 C729.854,493.732008 729.506003,494.871996 728.81,495.628 C728.113997,496.384004 727.022007,496.762 725.534,496.762 C725.101998,496.762 724.661002,496.714 724.211,496.618 C723.760998,496.522 723.353002,496.366001 722.987,496.15 C722.620998,495.933999 722.318001,495.652002 722.078,495.304 C721.837999,494.955998 721.706,494.530003 721.682,494.026 L723.212,494.026 C723.224,494.302001 723.310999,494.535999 723.473,494.728 C723.635001,494.920001 723.832999,495.075999 724.067,495.196 C724.301001,495.316001 724.555999,495.403 724.832,495.457 C725.108001,495.511 725.371999,495.538 725.624,495.538 C726.128003,495.538 726.553998,495.451001 726.902,495.277 C727.250002,495.102999 727.537999,494.863002 727.766,494.557 C727.994001,494.250998 728.158999,493.882002 728.261,493.45 C728.363001,493.017998 728.414,492.544003 728.414,492.028 L728.414,491.416 L728.378,491.416 C728.113999,491.992003 727.715003,492.414999 727.181,492.685 C726.646997,492.955001 726.080003,493.09 725.48,493.09 C724.783997,493.09 724.178003,492.964001 723.662,492.712 C723.145997,492.459999 722.714002,492.121002 722.366,491.695 C722.017998,491.268998 721.757001,490.771003 721.583,490.201 C721.408999,489.630997 721.322,489.028003 721.322,488.392 C721.322,487.839997 721.393999,487.273003 721.538,486.691 C721.682001,486.108997 721.921998,485.581002 722.258,485.107 C722.594002,484.632998 723.037997,484.243002 723.59,483.937 C724.142003,483.630998 724.819996,483.478 725.624,483.478 C726.212003,483.478 726.751998,483.606999 727.244,483.865 C727.736002,484.123001 728.119999,484.509997 728.396,485.026 L728.414,485.026 L728.414,483.694 L729.854,483.694 L729.854,492.208 Z M725.57,491.758 C726.074003,491.758 726.502998,491.653001 726.857,491.443 C727.211002,491.232999 727.495999,490.957002 727.712,490.615 C727.928001,490.272998 728.086999,489.886002 728.189,489.454 C728.291001,489.021998 728.342,488.590002 728.342,488.158 C728.342,487.749998 728.294,487.348002 728.198,486.952 C728.102,486.555998 727.949001,486.199002 727.739,485.881 C727.528999,485.562998 727.256002,485.308001 726.92,485.116 C726.583998,484.923999 726.176002,484.828 725.696,484.828 C725.203998,484.828 724.784002,484.920999 724.436,485.107 C724.087998,485.293001 723.803001,485.541998 723.581,485.854 C723.358999,486.166002 723.197001,486.525998 723.095,486.934 C722.992999,487.342002 722.942,487.767998 722.942,488.212 C722.942,488.632002 722.984,489.051998 723.068,489.472 C723.152,489.892002 723.295999,490.272998 723.5,490.615 C723.704001,490.957002 723.973998,491.232999 724.31,491.443 C724.646002,491.653001 725.065997,491.758 725.57,491.758 Z M732.158,480.148 L733.688,480.148 L733.688,485.062 L733.724,485.062 C733.844001,484.773999 734.011999,484.531001 734.228,484.333 C734.444001,484.134999 734.686999,483.973001 734.957,483.847 C735.227001,483.720999 735.508999,483.628 735.803,483.568 C736.097001,483.508 736.381999,483.478 736.658,483.478 C737.270003,483.478 737.779998,483.561999 738.188,483.73 C738.596002,483.898001 738.925999,484.131999 739.178,484.432 C739.430001,484.732002 739.606999,485.088998 739.709,485.503 C739.811001,485.917002 739.862,486.375997 739.862,486.88 L739.862,493 L738.332,493 L738.332,486.7 C738.332,486.123997 738.164002,485.668002 737.828,485.332 C737.491998,484.995998 737.030003,484.828 736.442,484.828 C735.973998,484.828 735.569002,484.899999 735.227,485.044 C734.884998,485.188001 734.600001,485.391999 734.372,485.656 C734.143999,485.920001 733.973001,486.228998 733.859,486.583 C733.744999,486.937002 733.688,487.323998 733.688,487.744 L733.688,493 L732.158,493 L732.158,480.148 Z M743.786,482.02 L742.256,482.02 L742.256,480.148 L743.786,480.148 L743.786,482.02 Z M742.256,483.694 L743.786,483.694 L743.786,493 L742.256,493 L742.256,483.694 Z M747.782,482.02 L746.252,482.02 L746.252,480.148 L747.782,480.148 L747.782,482.02 Z M747.782,494.17 C747.782,494.998004 747.581002,495.600998 747.179,495.979 C746.776998,496.357002 746.234003,496.546 745.55,496.546 C745.273999,496.546 745.016001,496.522 744.776,496.474 L744.776,495.16 C744.836,495.172 744.887,495.181 744.929,495.187 C744.971,495.193 745.016,495.196 745.064,495.196 L745.388,495.196 C745.724002,495.196 745.951999,495.103001 746.072,494.917 C746.192001,494.730999 746.252,494.398002 746.252,493.918 L746.252,483.694 L747.782,483.694 L747.782,494.17 Z M750.248,480.148 L751.778,480.148 L751.778,487.762 L756.026,483.694 L758.078,483.694 L754.388,487.078 L758.348,493 L756.404,493 L753.218,488.14 L751.778,489.472 L751.778,493 L750.248,493 L750.248,480.148 Z M759.59,480.148 L761.12,480.148 L761.12,493 L759.59,493 L759.59,480.148 Z M763.496,483.694 L764.936,483.694 L764.936,485.062 L764.972,485.062 C765.668003,484.005995 766.669993,483.478 767.978,483.478 C768.554003,483.478 769.075998,483.597999 769.544,483.838 C770.012002,484.078001 770.341999,484.485997 770.534,485.062 C770.846002,484.557997 771.256997,484.168001 771.767,483.892 C772.277003,483.615999 772.837997,483.478 773.45,483.478 C773.918002,483.478 774.340998,483.528999 774.719,483.631 C775.097002,483.733001 775.420999,483.891999 775.691,484.108 C775.961001,484.324001 776.170999,484.602998 776.321,484.945 C776.471001,485.287002 776.546,485.697998 776.546,486.178 L776.546,493 L775.016,493 L775.016,486.898 C775.016,486.609999 774.992,486.340001 774.944,486.088 C774.896,485.835999 774.806001,485.617001 774.674,485.431 C774.541999,485.244999 774.359001,485.098001 774.125,484.99 C773.890999,484.881999 773.588002,484.828 773.216,484.828 C772.459996,484.828 771.866002,485.043998 771.434,485.476 C771.001998,485.908002 770.786,486.483996 770.786,487.204 L770.786,493 L769.256,493 L769.256,486.898 C769.256,486.597999 769.229,486.322001 769.175,486.07 C769.121,485.817999 769.028001,485.599001 768.896,485.413 C768.763999,485.226999 768.587001,485.083001 768.365,484.981 C768.142999,484.878999 767.858002,484.828 767.51,484.828 C767.065998,484.828 766.685002,484.917999 766.367,485.098 C766.048998,485.278001 765.791001,485.493999 765.593,485.746 C765.394999,485.998001 765.251,486.258999 765.161,486.529 C765.071,486.799001 765.026,487.023999 765.026,487.204 L765.026,493 L763.496,493 L763.496,483.694 Z M778.85,483.694 L780.29,483.694 L780.29,485.17 L780.326,485.17 C780.962003,484.041994 781.969993,483.478 783.35,483.478 C783.962003,483.478 784.471998,483.561999 784.88,483.73 C785.288002,483.898001 785.617999,484.131999 785.87,484.432 C786.122001,484.732002 786.298999,485.088998 786.401,485.503 C786.503001,485.917002 786.554,486.375997 786.554,486.88 L786.554,493 L785.024,493 L785.024,486.7 C785.024,486.123997 784.856002,485.668002 784.52,485.332 C784.183998,484.995998 783.722003,484.828 783.134,484.828 C782.665998,484.828 782.261002,484.899999 781.919,485.044 C781.576998,485.188001 781.292001,485.391999 781.064,485.656 C780.835999,485.920001 780.665001,486.228998 780.551,486.583 C780.436999,486.937002 780.38,487.323998 780.38,487.744 L780.38,493 L778.85,493 L778.85,483.694 Z M789.974,488.356 C789.974,488.920003 790.048999,489.420998 790.199,489.859 C790.349001,490.297002 790.555999,490.662999 790.82,490.957 C791.084001,491.251001 791.392998,491.475999 791.747,491.632 C792.101002,491.788001 792.475998,491.866 792.872,491.866 C793.268002,491.866 793.642998,491.788001 793.997,491.632 C794.351002,491.475999 794.659999,491.251001 794.924,490.957 C795.188001,490.662999 795.394999,490.297002 795.545,489.859 C795.695001,489.420998 795.77,488.920003 795.77,488.356 C795.77,487.791997 795.695001,487.291002 795.545,486.853 C795.394999,486.414998 795.188001,486.046001 794.924,485.746 C794.659999,485.445998 794.351002,485.218001 793.997,485.062 C793.642998,484.905999 793.268002,484.828 792.872,484.828 C792.475998,484.828 792.101002,484.905999 791.747,485.062 C791.392998,485.218001 791.084001,485.445998 790.82,485.746 C790.555999,486.046001 790.349001,486.414998 790.199,486.853 C790.048999,487.291002 789.974,487.791997 789.974,488.356 Z M788.354,488.356 C788.354,487.671997 788.449999,487.033003 788.642,486.439 C788.834001,485.844997 789.121998,485.329002 789.506,484.891 C789.890002,484.452998 790.363997,484.108001 790.928,483.856 C791.492003,483.603999 792.139996,483.478 792.872,483.478 C793.616004,483.478 794.266997,483.603999 794.825,483.856 C795.383003,484.108001 795.853998,484.452998 796.238,484.891 C796.622002,485.329002 796.909999,485.844997 797.102,486.439 C797.294001,487.033003 797.39,487.671997 797.39,488.356 C797.39,489.040003 797.294001,489.675997 797.102,490.264 C796.909999,490.852003 796.622002,491.364998 796.238,491.803 C795.853998,492.241002 795.383003,492.582999 794.825,492.829 C794.266997,493.075001 793.616004,493.198 792.872,493.198 C792.139996,493.198 791.492003,493.075001 790.928,492.829 C790.363997,492.582999 789.890002,492.241002 789.506,491.803 C789.121998,491.364998 788.834001,490.852003 788.642,490.264 C788.449999,489.675997 788.354,489.040003 788.354,488.356 Z M799.244,483.694 L800.774,483.694 L800.774,484.954 L800.81,484.954 C801.062001,484.437997 801.457997,484.063001 801.998,483.829 C802.538003,483.594999 803.131997,483.478 803.78,483.478 C804.500004,483.478 805.126997,483.609999 805.661,483.874 C806.195003,484.138001 806.638998,484.494998 806.993,484.945 C807.347002,485.395002 807.613999,485.913997 807.794,486.502 C807.974001,487.090003 808.064,487.713997 808.064,488.374 C808.064,489.034003 807.977001,489.657997 807.803,490.246 C807.628999,490.834003 807.365002,491.346998 807.011,491.785 C806.656998,492.223002 806.213003,492.567999 805.679,492.82 C805.144997,493.072001 804.524004,493.198 803.816,493.198 C803.587999,493.198 803.333001,493.174 803.051,493.126 C802.768999,493.078 802.490001,493.000001 802.214,492.892 C801.937999,492.783999 801.677001,492.637001 801.431,492.451 C801.184999,492.264999 800.978001,492.034001 800.81,491.758 L800.774,491.758 L800.774,496.546 L799.244,496.546 L799.244,483.694 Z M806.444,488.266 C806.444,487.833998 806.387001,487.411002 806.273,486.997 C806.158999,486.582998 805.985001,486.214002 805.751,485.89 C805.516999,485.565998 805.217002,485.308001 804.851,485.116 C804.484998,484.923999 804.056002,484.828 803.564,484.828 C803.047997,484.828 802.610002,484.929999 802.25,485.134 C801.889998,485.338001 801.596001,485.604998 801.368,485.935 C801.139999,486.265002 800.975001,486.639998 800.873,487.06 C800.770999,487.480002 800.72,487.905998 800.72,488.338 C800.72,488.794002 800.773999,489.234998 800.882,489.661 C800.990001,490.087002 801.160999,490.461998 801.395,490.786 C801.629001,491.110002 801.931998,491.370999 802.304,491.569 C802.676002,491.767001 803.125997,491.866 803.654,491.866 C804.182003,491.866 804.622998,491.764001 804.977,491.56 C805.331002,491.355999 805.615999,491.086002 805.832,490.75 C806.048001,490.413998 806.204,490.030002 806.3,489.598 C806.396,489.165998 806.444,488.722002 806.444,488.266 Z M810.98,488.428 C810.98,488.860002 811.036999,489.282998 811.151,489.697 C811.265001,490.111002 811.438999,490.479998 811.673,490.804 C811.907001,491.128002 812.206998,491.385999 812.573,491.578 C812.939002,491.770001 813.367998,491.866 813.86,491.866 C814.376003,491.866 814.813998,491.764001 815.174,491.56 C815.534002,491.355999 815.827999,491.089002 816.056,490.759 C816.284001,490.428998 816.448999,490.054002 816.551,489.634 C816.653001,489.213998 816.704,488.788002 816.704,488.356 C816.704,487.899998 816.650001,487.459002 816.542,487.033 C816.433999,486.606998 816.263001,486.232002 816.029,485.908 C815.794999,485.583998 815.492002,485.323001 815.12,485.125 C814.747998,484.926999 814.298003,484.828 813.77,484.828 C813.253997,484.828 812.816002,484.929999 812.456,485.134 C812.095998,485.338001 811.808001,485.607998 811.592,485.944 C811.375999,486.280002 811.22,486.663998 811.124,487.096 C811.028,487.528002 810.98,487.971998 810.98,488.428 Z M818.18,496.546 L816.65,496.546 L816.65,491.74 L816.614,491.74 C816.361999,492.256003 815.966003,492.627999 815.426,492.856 C814.885997,493.084001 814.292003,493.198 813.644,493.198 C812.923996,493.198 812.297003,493.066001 811.763,492.802 C811.228997,492.537999 810.785002,492.184002 810.431,491.74 C810.076998,491.295998 809.810001,490.780003 809.63,490.192 C809.449999,489.603997 809.36,488.980003 809.36,488.32 C809.36,487.659997 809.446999,487.036003 809.621,486.448 C809.795001,485.859997 810.058998,485.347002 810.413,484.909 C810.767002,484.470998 811.210997,484.123001 811.745,483.865 C812.279003,483.606999 812.899996,483.478 813.608,483.478 C813.848001,483.478 814.105999,483.502 814.382,483.55 C814.658001,483.598 814.933999,483.678999 815.21,483.793 C815.486001,483.907001 815.746999,484.056999 815.993,484.243 C816.239001,484.429001 816.445999,484.659999 816.614,484.936 L816.65,484.936 L816.65,483.694 L818.18,483.694 L818.18,496.546 Z M820.484,483.694 L821.924,483.694 L821.924,485.656 L821.96,485.656 C822.332002,484.899996 822.787997,484.342002 823.328,483.982 C823.868003,483.621998 824.551996,483.454 825.38,483.478 L825.38,485.098 C824.767997,485.098 824.246002,485.181999 823.814,485.35 C823.381998,485.518001 823.034001,485.763998 822.77,486.088 C822.505999,486.412002 822.314001,486.804998 822.194,487.267 C822.073999,487.729002 822.014,488.259997 822.014,488.86 L822.014,493 L820.484,493 L820.484,483.694 Z M827.468,490.066 C827.48,490.402002 827.557999,490.686999 827.702,490.921 C827.846001,491.155001 828.034999,491.340999 828.269,491.479 C828.503001,491.617001 828.766999,491.716 829.061,491.776 C829.355001,491.836 829.657998,491.866 829.97,491.866 C830.210001,491.866 830.461999,491.848 830.726,491.812 C830.990001,491.776 831.232999,491.71 831.455,491.614 C831.677001,491.518 831.859999,491.377001 832.004,491.191 C832.148001,491.004999 832.22,490.768001 832.22,490.48 C832.22,490.083998 832.070001,489.784001 831.77,489.58 C831.469998,489.375999 831.095002,489.211001 830.645,489.085 C830.194998,488.958999 829.706003,488.845001 829.178,488.743 C828.649997,488.640999 828.161002,488.497001 827.711,488.311 C827.260998,488.124999 826.886002,487.864002 826.586,487.528 C826.285999,487.191998 826.136,486.724003 826.136,486.124 C826.136,485.655998 826.240999,485.254002 826.451,484.918 C826.661001,484.581998 826.930998,484.309001 827.261,484.099 C827.591002,483.888999 827.962998,483.733001 828.377,483.631 C828.791002,483.528999 829.201998,483.478 829.61,483.478 C830.138003,483.478 830.623998,483.523 831.068,483.613 C831.512002,483.703 831.904998,483.858999 832.247,484.081 C832.589002,484.303001 832.861999,484.602998 833.066,484.981 C833.270001,485.359002 833.39,485.829997 833.426,486.394 L831.896,486.394 C831.872,486.093998 831.794001,485.845001 831.662,485.647 C831.529999,485.448999 831.362001,485.290001 831.158,485.17 C830.953999,485.049999 830.729001,484.963 830.483,484.909 C830.236999,484.855 829.988001,484.828 829.736,484.828 C829.507999,484.828 829.277001,484.846 829.043,484.882 C828.808999,484.918 828.596001,484.981 828.404,485.071 C828.211999,485.161 828.056001,485.280999 827.936,485.431 C827.815999,485.581001 827.756,485.775999 827.756,486.016 C827.756,486.280001 827.848999,486.498999 828.035,486.673 C828.221001,486.847001 828.457999,486.990999 828.746,487.105 C829.034001,487.219001 829.357998,487.315 829.718,487.393 C830.078002,487.471 830.437998,487.552 830.798,487.636 C831.182002,487.72 831.556998,487.821999 831.923,487.942 C832.289002,488.062001 832.612999,488.220999 832.895,488.419 C833.177001,488.617001 833.404999,488.865998 833.579,489.166 C833.753001,489.466002 833.84,489.837998 833.84,490.282 C833.84,490.846003 833.723001,491.313998 833.489,491.686 C833.254999,492.058002 832.949002,492.357999 832.571,492.586 C832.192998,492.814001 831.767002,492.973 831.293,493.063 C830.818998,493.153 830.348002,493.198 829.88,493.198 C829.363997,493.198 828.872002,493.144001 828.404,493.036 C827.935998,492.927999 827.522002,492.751001 827.162,492.505 C826.801998,492.258999 826.514001,491.935002 826.298,491.533 C826.081999,491.130998 825.962,490.642003 825.938,490.066 L827.468,490.066 Z M837.656,483.694 L839.51,483.694 L839.51,485.044 L837.656,485.044 L837.656,490.822 C837.656,491.002001 837.671,491.145999 837.701,491.254 C837.731,491.362001 837.788,491.446 837.872,491.506 C837.956,491.566 838.072999,491.605 838.223,491.623 C838.373001,491.641 838.567999,491.65 838.808,491.65 L839.51,491.65 L839.51,493 L838.34,493 C837.943998,493 837.605001,492.973 837.323,492.919 C837.040999,492.865 836.813001,492.766001 836.639,492.622 C836.464999,492.477999 836.336,492.274001 836.252,492.01 C836.168,491.745999 836.126,491.398002 836.126,490.966 L836.126,485.044 L834.542,485.044 L834.542,483.694 L836.126,483.694 L836.126,480.904 L837.656,480.904 L837.656,483.694 Z M848.906,493 L847.466,493 L847.466,491.524 L847.43,491.524 C847.105998,492.100003 846.692003,492.522999 846.188,492.793 C845.683997,493.063001 845.090003,493.198 844.406,493.198 C843.793997,493.198 843.284002,493.117001 842.876,492.955 C842.467998,492.792999 842.138001,492.562002 841.886,492.262 C841.633999,491.961998 841.457001,491.605002 841.355,491.191 C841.252999,490.776998 841.202,490.318003 841.202,489.814 L841.202,483.694 L842.732,483.694 L842.732,489.994 C842.732,490.570003 842.899998,491.025998 843.236,491.362 C843.572002,491.698002 844.033997,491.866 844.622,491.866 C845.090002,491.866 845.494998,491.794001 845.837,491.65 C846.179002,491.505999 846.463999,491.302001 846.692,491.038 C846.920001,490.773999 847.090999,490.465002 847.205,490.111 C847.319001,489.756998 847.376,489.370002 847.376,488.95 L847.376,483.694 L848.906,483.694 L848.906,493 Z M855.404,493 L853.766,493 L850.31,483.694 L852.02,483.694 L854.63,491.452 L854.666,491.452 L857.204,483.694 L858.806,483.694 L855.404,493 Z M869.426,493 L867.806,493 L865.916,485.602 L865.88,485.602 L864.008,493 L862.352,493 L859.364,483.694 L861.056,483.694 L863.162,491.308 L863.198,491.308 L865.07,483.694 L866.744,483.694 L868.688,491.308 L868.724,491.308 L870.812,483.694 L872.396,483.694 L869.426,493 Z M876.356,488.104 L873.116,483.694 L875.078,483.694 L877.31,486.952 L879.632,483.694 L881.468,483.694 L878.264,487.978 L881.864,493 L879.902,493 L877.31,489.148 L874.718,493 L872.864,493 L876.356,488.104 Z M886.832,494.242 C886.651999,494.698002 886.475001,495.081998 886.301,495.394 C886.126999,495.706002 885.935001,495.960999 885.725,496.159 C885.514999,496.357001 885.281001,496.501 885.023,496.591 C884.764999,496.681 884.468002,496.726 884.132,496.726 C883.951999,496.726 883.772001,496.714 883.592,496.69 C883.411999,496.666 883.238001,496.624 883.07,496.564 L883.07,495.16 C883.202001,495.22 883.354999,495.271 883.529,495.313 C883.703001,495.355 883.849999,495.376 883.97,495.376 C884.282002,495.376 884.542999,495.301001 884.753,495.151 C884.963001,495.000999 885.121999,494.788001 885.23,494.512 L885.86,492.946 L882.17,483.694 L883.898,483.694 L886.616,491.308 L886.652,491.308 L889.262,483.694 L890.882,483.694 L886.832,494.242 Z M891.422,491.83 L897.038,485.044 L891.782,485.044 L891.782,483.694 L899.018,483.694 L899.018,484.738 L893.33,491.65 L899.27,491.65 L899.27,493 L891.422,493 L891.422,491.83 Z M670.004,518.216 C669.103995,518.216 668.366003,518.021002 667.79,517.631 C667.213997,517.240998 666.755002,516.737003 666.413,516.119 C666.070998,515.500997 665.834001,514.811004 665.702,514.049 C665.569999,513.286996 665.504,512.534004 665.504,511.79 C665.504,511.045996 665.569999,510.293004 665.702,509.531 C665.834001,508.768996 666.070998,508.079003 666.413,507.461 C666.755002,506.842997 667.213997,506.339002 667.79,505.949 C668.366003,505.558998 669.103995,505.364 670.004,505.364 C670.904005,505.364 671.641997,505.558998 672.218,505.949 C672.794003,506.339002 673.252998,506.842997 673.595,507.461 C673.937002,508.079003 674.173999,508.768996 674.306,509.531 C674.438001,510.293004 674.504,511.045996 674.504,511.79 C674.504,512.534004 674.438001,513.286996 674.306,514.049 C674.173999,514.811004 673.937002,515.500997 673.595,516.119 C673.252998,516.737003 672.794003,517.240998 672.218,517.631 C671.641997,518.021002 670.904005,518.216 670.004,518.216 Z M670.004,517.622 C670.772004,517.622 671.404998,517.436002 671.903,517.064 C672.401002,516.691998 672.790999,516.218003 673.073,515.642 C673.355001,515.065997 673.549999,514.436003 673.658,513.752 C673.766001,513.067997 673.82,512.414003 673.82,511.79 C673.82,511.165997 673.766001,510.512003 673.658,509.828 C673.549999,509.143997 673.355001,508.514003 673.073,507.938 C672.790999,507.361997 672.401002,506.888002 671.903,506.516 C671.404998,506.143998 670.772004,505.958 670.004,505.958 C669.223996,505.958 668.588002,506.143998 668.096,506.516 C667.603998,506.888002 667.217001,507.361997 666.935,507.938 C666.652999,508.514003 666.458001,509.143997 666.35,509.828 C666.241999,510.512003 666.188,511.165997 666.188,511.79 C666.188,512.414003 666.241999,513.067997 666.35,513.752 C666.458001,514.436003 666.652999,515.065997 666.935,515.642 C667.217001,516.218003 667.603998,516.691998 668.096,517.064 C668.588002,517.436002 669.223996,517.622 670.004,517.622 Z M680.282,506.912 C679.837998,507.380002 679.328003,507.745999 678.752,508.01 C678.175997,508.274001 677.576003,508.436 676.952,508.496 L676.952,507.902 C677.672004,507.793999 678.325997,507.542002 678.914,507.146 C679.502003,506.749998 679.981998,506.228003 680.354,505.58 L680.966,505.58 L680.966,518 L680.282,518 L680.282,506.912 Z M685.844,518 C685.88,517.423997 686.011999,516.905002 686.24,516.443 C686.468001,515.980998 686.758998,515.561002 687.113,515.183 C687.467002,514.804998 687.862998,514.454002 688.301,514.13 C688.739002,513.805998 689.185998,513.494001 689.642,513.194 C690.086002,512.893998 690.523998,512.591002 690.956,512.285 C691.388002,511.978998 691.774998,511.652002 692.117,511.304 C692.459002,510.955998 692.731999,510.575002 692.936,510.161 C693.140001,509.746998 693.242,509.276003 693.242,508.748 C693.242,508.327998 693.158001,507.947002 692.99,507.605 C692.821999,507.262998 692.597001,506.969001 692.315,506.723 C692.032999,506.476999 691.709002,506.288001 691.343,506.156 C690.976998,506.023999 690.590002,505.958 690.182,505.958 C689.617997,505.958 689.126002,506.056999 688.706,506.255 C688.285998,506.453001 687.938001,506.722998 687.662,507.065 C687.385999,507.407002 687.179001,507.808998 687.041,508.271 C686.902999,508.733002 686.834,509.233997 686.834,509.774 L686.15,509.774 C686.222,508.261992 686.584997,507.149004 687.239,506.435 C687.893003,505.720996 688.837994,505.364 690.074,505.364 C690.602003,505.364 691.099998,505.432999 691.568,505.571 C692.036002,505.709001 692.443998,505.918999 692.792,506.201 C693.140002,506.483001 693.415999,506.836998 693.62,507.263 C693.824001,507.689002 693.926,508.189997 693.926,508.766 C693.926,509.498004 693.755002,510.142997 693.413,510.701 C693.070998,511.259003 692.639003,511.765998 692.117,512.222 C691.594997,512.678002 691.031003,513.103998 690.425,513.5 C689.818997,513.896002 689.249003,514.288998 688.715,514.679 C688.180997,515.069002 687.725002,515.476998 687.347,515.903 C686.968998,516.329002 686.756,516.799997 686.708,517.316 L694.124,517.316 L694.124,518 L685.844,518 Z M696.356,513.896 C696.332,514.472003 696.400999,514.990998 696.563,515.453 C696.725001,515.915002 696.961998,516.304998 697.274,516.623 C697.586002,516.941002 697.969998,517.186999 698.426,517.361 C698.882002,517.535001 699.397997,517.622 699.974,517.622 C700.430002,517.622 700.873998,517.556001 701.306,517.424 C701.738002,517.291999 702.118998,517.097001 702.449,516.839 C702.779002,516.580999 703.042999,516.260002 703.241,515.876 C703.439001,515.491998 703.538,515.054002 703.538,514.562 C703.538,513.973997 703.418001,513.485002 703.178,513.095 C702.937999,512.704998 702.620002,512.402001 702.224,512.186 C701.827998,511.969999 701.381002,511.826 700.883,511.754 C700.384998,511.682 699.878003,511.664 699.362,511.7 L699.362,511.106 C699.818002,511.13 700.276998,511.109 700.739,511.043 C701.201002,510.977 701.617998,510.845001 701.99,510.647 C702.362002,510.448999 702.664999,510.176002 702.899,509.828 C703.133001,509.479998 703.25,509.036003 703.25,508.496 C703.25,508.063998 703.151001,507.686002 702.953,507.362 C702.754999,507.037998 702.497002,506.774001 702.179,506.57 C701.860998,506.365999 701.507002,506.213001 701.117,506.111 C700.726998,506.008999 700.346002,505.958 699.974,505.958 C699.433997,505.958 698.960002,506.047999 698.552,506.228 C698.143998,506.408001 697.805001,506.653998 697.535,506.966 C697.264999,507.278002 697.058001,507.649998 696.914,508.082 C696.769999,508.514002 696.686,508.987997 696.662,509.504 L695.978,509.504 C695.978,508.891997 696.070999,508.331003 696.257,507.821 C696.443001,507.310997 696.709998,506.876002 697.058,506.516 C697.406002,506.155998 697.825998,505.874001 698.318,505.67 C698.810002,505.465999 699.361997,505.364 699.974,505.364 C700.478003,505.364 700.966998,505.423999 701.441,505.544 C701.915002,505.664001 702.334998,505.849999 702.701,506.102 C703.067002,506.354001 703.363999,506.677998 703.592,507.074 C703.820001,507.470002 703.934,507.943997 703.934,508.496 C703.934,508.868002 703.877001,509.215998 703.763,509.54 C703.648999,509.864002 703.484001,510.151999 703.268,510.404 C703.051999,510.656001 702.794002,510.862999 702.494,511.025 C702.193999,511.187001 701.864002,511.292 701.504,511.34 L701.504,511.376 C701.924002,511.424 702.301998,511.537999 702.638,511.718 C702.974002,511.898001 703.258999,512.128999 703.493,512.411 C703.727001,512.693001 703.906999,513.016998 704.033,513.383 C704.159001,513.749002 704.222,514.141998 704.222,514.562 C704.222,515.174003 704.108001,515.707998 703.88,516.164 C703.651999,516.620002 703.346002,517.000998 702.962,517.307 C702.577998,517.613002 702.128003,517.840999 701.612,517.991 C701.095997,518.141001 700.550003,518.216 699.974,518.216 C699.289997,518.216 698.675003,518.120001 698.129,517.928 C697.582997,517.735999 697.121002,517.457002 696.743,517.091 C696.364998,516.724998 696.083001,516.275003 695.897,515.741 C695.710999,515.206997 695.636,514.592003 695.672,513.896 L696.356,513.896 Z M705.554,514.148 L711.602,505.58 L712.286,505.58 L712.286,514.238 L714.374,514.238 L714.374,514.832 L712.286,514.832 L712.286,518 L711.602,518 L711.602,514.832 L705.554,514.832 L705.554,514.148 Z M711.602,514.238 L711.602,506.516 L711.566,506.516 L706.238,514.238 L711.602,514.238 Z M716.39,514.202 C716.378,514.718003 716.464999,515.185998 716.651,515.606 C716.837001,516.026002 717.091998,516.385999 717.416,516.686 C717.740002,516.986002 718.120998,517.216999 718.559,517.379 C718.997002,517.541001 719.467997,517.622 719.972,517.622 C720.500003,517.622 720.979998,517.523001 721.412,517.325 C721.844002,517.126999 722.215998,516.860002 722.528,516.524 C722.840002,516.187998 723.079999,515.792002 723.248,515.336 C723.416001,514.879998 723.5,514.400003 723.5,513.896 C723.5,513.391997 723.413001,512.918002 723.239,512.474 C723.064999,512.029998 722.819002,511.646002 722.501,511.322 C722.182998,510.997998 721.808002,510.740001 721.376,510.548 C720.943998,510.355999 720.476003,510.26 719.972,510.26 C719.251996,510.26 718.640003,510.406999 718.136,510.701 C717.631997,510.995001 717.182002,511.429997 716.786,512.006 L716.084,512.006 L717.38,505.58 L723.662,505.58 L723.662,506.174 L717.92,506.174 L716.858,511.124 L716.894,511.16 C717.254002,510.655997 717.700997,510.281001 718.235,510.035 C718.769003,509.788999 719.347997,509.666 719.972,509.666 C720.584003,509.666 721.147997,509.770999 721.664,509.981 C722.180003,510.191001 722.623998,510.481998 722.996,510.854 C723.368002,511.226002 723.658999,511.672997 723.869,512.195 C724.079001,512.717003 724.184,513.283997 724.184,513.896 C724.184,514.508003 724.082001,515.077997 723.878,515.606 C723.673999,516.134003 723.386002,516.592998 723.014,516.983 C722.641998,517.373002 722.198003,517.675999 721.682,517.892 C721.165997,518.108001 720.596003,518.216 719.972,518.216 C719.371997,518.216 718.808003,518.123001 718.28,517.937 C717.751997,517.750999 717.290002,517.487002 716.894,517.145 C716.497998,516.802998 716.192001,516.383002 715.976,515.885 C715.759999,515.386998 715.67,514.826003 715.706,514.202 L716.39,514.202 Z M730.232,518.216 C729.367996,518.216 728.651003,518.054002 728.081,517.73 C727.510997,517.405998 727.058002,516.977003 726.722,516.443 C726.385998,515.908997 726.149001,515.291004 726.011,514.589 C725.872999,513.886996 725.804,513.158004 725.804,512.402 C725.804,511.897997 725.828,511.373003 725.876,510.827 C725.924,510.280997 726.010999,509.747003 726.137,509.225 C726.263001,508.702997 726.433999,508.208002 726.65,507.74 C726.866001,507.271998 727.144998,506.861002 727.487,506.507 C727.829002,506.152998 728.236998,505.874001 728.711,505.67 C729.185002,505.465999 729.739997,505.364 730.376,505.364 C731.432005,505.364 732.298997,505.645997 732.977,506.21 C733.655003,506.774003 734.053999,507.583995 734.174,508.64 L733.49,508.64 C733.418,508.243998 733.292001,507.881002 733.112,507.551 C732.931999,507.220998 732.707001,506.939001 732.437,506.705 C732.166999,506.470999 731.858002,506.288001 731.51,506.156 C731.161998,506.023999 730.784002,505.958 730.376,505.958 C729.523996,505.958 728.840003,506.179998 728.324,506.624 C727.807997,507.068002 727.415001,507.616997 727.145,508.271 C726.874999,508.925003 726.698,509.626996 726.614,510.377 C726.53,511.127004 726.488,511.807997 726.488,512.42 L726.524,512.456 C726.656001,512.059998 726.847999,511.697002 727.1,511.367 C727.352001,511.036998 727.639998,510.755001 727.964,510.521 C728.288002,510.286999 728.641998,510.107001 729.026,509.981 C729.410002,509.854999 729.811998,509.792 730.232,509.792 C730.844003,509.792 731.404997,509.899999 731.915,510.116 C732.425003,510.332001 732.862998,510.628998 733.229,511.007 C733.595002,511.385002 733.879999,511.831997 734.084,512.348 C734.288001,512.864003 734.39,513.427997 734.39,514.04 C734.39,514.640003 734.285001,515.194997 734.075,515.705 C733.864999,516.215003 733.577002,516.655998 733.211,517.028 C732.844998,517.400002 732.407003,517.690999 731.897,517.901 C731.386997,518.111001 730.832003,518.216 730.232,518.216 Z M726.722,514.04 C726.722,514.556003 726.814999,515.032998 727.001,515.471 C727.187001,515.909002 727.435998,516.286998 727.748,516.605 C728.060002,516.923002 728.428998,517.171999 728.855,517.352 C729.281002,517.532001 729.739998,517.622 730.232,517.622 C730.736003,517.622 731.197998,517.526001 731.618,517.334 C732.038002,517.141999 732.403998,516.884002 732.716,516.56 C733.028002,516.235998 733.270999,515.858002 733.445,515.426 C733.619001,514.993998 733.706,514.532002 733.706,514.04 C733.706,513.559998 733.619001,513.098002 733.445,512.654 C733.270999,512.209998 733.031002,511.820002 732.725,511.484 C732.418998,511.147998 732.053002,510.881001 731.627,510.683 C731.200998,510.484999 730.736003,510.386 730.232,510.386 C729.715997,510.386 729.245002,510.481999 728.819,510.674 C728.392998,510.866001 728.024002,511.126998 727.712,511.457 C727.399998,511.787002 727.157001,512.173998 726.983,512.618 C726.808999,513.062002 726.722,513.535997 726.722,514.04 Z M737.936,518 C738.008,517.111996 738.130999,516.212005 738.305,515.3 C738.479001,514.387995 738.763998,513.449005 739.16,512.483 C739.556002,511.516995 740.092997,510.512005 740.771,509.468 C741.449003,508.423995 742.321995,507.326006 743.39,506.174 L736.064,506.174 L736.064,505.58 L744.074,505.58 L744.074,506.264 C743.449997,506.960003 742.847003,507.673996 742.265,508.406 C741.682997,509.138004 741.155002,509.959995 740.681,510.872 C740.206998,511.784005 739.799002,512.818994 739.457,513.977 C739.114998,515.135006 738.872001,516.475992 738.728,518 L737.936,518 Z M745.766,514.436 C745.766,513.535996 746.008998,512.801003 746.495,512.231 C746.981002,511.660997 747.655996,511.328 748.52,511.232 L748.52,511.196 C747.763996,511.051999 747.194002,510.737002 746.81,510.251 C746.425998,509.764998 746.234,509.174003 746.234,508.478 C746.234,507.889997 746.341999,507.398002 746.558,507.002 C746.774001,506.605998 747.061998,506.288001 747.422,506.048 C747.782002,505.807999 748.189998,505.634001 748.646,505.526 C749.102002,505.417999 749.575998,505.364 750.068,505.364 C750.548002,505.364 751.018998,505.417999 751.481,505.526 C751.943002,505.634001 752.353998,505.807999 752.714,506.048 C753.074002,506.288001 753.361999,506.605998 753.578,507.002 C753.794001,507.398002 753.902,507.889997 753.902,508.478 C753.902,509.174003 753.710002,509.764998 753.326,510.251 C752.941998,510.737002 752.372004,511.051999 751.616,511.196 L751.616,511.232 C752.480004,511.328 753.154998,511.660997 753.641,512.231 C754.127002,512.801003 754.37,513.535996 754.37,514.436 C754.37,515.084003 754.256001,515.644998 754.028,516.119 C753.799999,516.593002 753.494002,516.985998 753.11,517.298 C752.725998,517.610002 752.270003,517.840999 751.742,517.991 C751.213997,518.141001 750.656003,518.216 750.068,518.216 C749.467997,518.216 748.907003,518.141001 748.385,517.991 C747.862997,517.840999 747.410002,517.610002 747.026,517.298 C746.641998,516.985998 746.336001,516.593002 746.108,516.119 C745.879999,515.644998 745.766,515.084003 745.766,514.436 Z M750.068,510.944 C750.464002,510.944 750.850998,510.899 751.229,510.809 C751.607002,510.719 751.942999,510.575001 752.237,510.377 C752.531001,510.178999 752.767999,509.924002 752.948,509.612 C753.128001,509.299998 753.218,508.922002 753.218,508.478 C753.218,508.009998 753.131001,507.614002 752.957,507.29 C752.782999,506.965998 752.549001,506.705001 752.255,506.507 C751.960999,506.308999 751.625002,506.168 751.247,506.084 C750.868998,506 750.476002,505.958 750.068,505.958 C749.659998,505.958 749.267002,506 748.889,506.084 C748.510998,506.168 748.175001,506.308999 747.881,506.507 C747.586999,506.705001 747.353001,506.965998 747.179,507.29 C747.004999,507.614002 746.918,508.009998 746.918,508.478 C746.918,508.922002 747.007999,509.299998 747.188,509.612 C747.368001,509.924002 747.604999,510.178999 747.899,510.377 C748.193001,510.575001 748.528998,510.719 748.907,510.809 C749.285002,510.899 749.671998,510.944 750.068,510.944 Z M746.45,514.436 C746.45,514.988003 746.548999,515.464998 746.747,515.867 C746.945001,516.269002 747.208998,516.598999 747.539,516.857 C747.869002,517.115001 748.252998,517.306999 748.691,517.433 C749.129002,517.559001 749.587998,517.622 750.068,517.622 C750.548002,517.622 751.003998,517.559001 751.436,517.433 C751.868002,517.306999 752.251998,517.115001 752.588,516.857 C752.924002,516.598999 753.190999,516.269002 753.389,515.867 C753.587001,515.464998 753.686,514.988003 753.686,514.436 C753.686,513.919997 753.590001,513.479002 753.398,513.113 C753.205999,512.746998 752.942002,512.447001 752.606,512.213 C752.269998,511.978999 751.883002,511.808001 751.445,511.7 C751.006998,511.591999 750.548002,511.538 750.068,511.538 C749.575998,511.538 749.114002,511.591999 748.682,511.7 C748.249998,511.808001 747.866002,511.978999 747.53,512.213 C747.193998,512.447001 746.930001,512.746998 746.738,513.113 C746.545999,513.479002 746.45,513.919997 746.45,514.436 Z M756.746,514.94 C756.890001,515.732004 757.234997,516.376998 757.781,516.875 C758.327003,517.373002 759.019996,517.622 759.86,517.622 C760.424003,517.622 760.912998,517.517001 761.327,517.307 C761.741002,517.096999 762.091999,516.821002 762.38,516.479 C762.668001,516.136998 762.901999,515.744002 763.082,515.3 C763.262001,514.855998 763.4,514.400002 763.496,513.932 C763.592,513.463998 763.658,513.002002 763.694,512.546 C763.73,512.089998 763.748,511.676002 763.748,511.304 L763.712,511.268 C763.579999,511.616002 763.409001,511.939999 763.199,512.24 C762.988999,512.540002 762.734001,512.806999 762.434,513.041 C762.133998,513.275001 761.789002,513.457999 761.399,513.59 C761.008998,513.722001 760.574002,513.788 760.094,513.788 C759.469997,513.788 758.900003,513.683001 758.384,513.473 C757.867997,513.262999 757.427002,512.969002 757.061,512.591 C756.694998,512.212998 756.410001,511.766003 756.206,511.25 C756.001999,510.733997 755.9,510.164003 755.9,509.54 C755.9,508.927997 756.004999,508.367003 756.215,507.857 C756.425001,507.346997 756.715998,506.906002 757.088,506.534 C757.460002,506.161998 757.900997,505.874001 758.411,505.67 C758.921003,505.465999 759.481997,505.364 760.094,505.364 C760.406002,505.364 760.732998,505.394 761.075,505.454 C761.417002,505.514 761.746998,505.618999 762.065,505.769 C762.383002,505.919001 762.685999,506.131999 762.974,506.408 C763.262001,506.684001 763.513999,507.034998 763.73,507.461 C763.946001,507.887002 764.116999,508.405997 764.243,509.018 C764.369001,509.630003 764.432,510.349996 764.432,511.178 C764.432,511.682003 764.408,512.206997 764.36,512.753 C764.312,513.299003 764.225001,513.832997 764.099,514.355 C763.972999,514.877003 763.802001,515.371998 763.586,515.84 C763.369999,516.308002 763.091002,516.718998 762.749,517.073 C762.406998,517.427002 761.999002,517.705999 761.525,517.91 C761.050998,518.114001 760.496003,518.216 759.86,518.216 C758.803995,518.216 757.937003,517.934003 757.259,517.37 C756.580997,516.805997 756.182001,515.996005 756.062,514.94 L756.746,514.94 Z M760.094,513.194 C760.610003,513.194 761.080998,513.098001 761.507,512.906 C761.933002,512.713999 762.301998,512.453002 762.614,512.123 C762.926002,511.792998 763.168999,511.406002 763.343,510.962 C763.517001,510.517998 763.604,510.044003 763.604,509.54 C763.604,509.047998 763.514001,508.583002 763.334,508.145 C763.153999,507.706998 762.908002,507.326002 762.596,507.002 C762.283998,506.677998 761.915002,506.423001 761.489,506.237 C761.062998,506.050999 760.598003,505.958 760.094,505.958 C759.589997,505.958 759.125002,506.053999 758.699,506.246 C758.272998,506.438001 757.904002,506.695998 757.592,507.02 C757.279998,507.344002 757.034001,507.724998 756.854,508.163 C756.673999,508.601002 756.584,509.059998 756.584,509.54 C756.584,510.032002 756.673999,510.499998 756.854,510.944 C757.034001,511.388002 757.279998,511.774998 757.592,512.105 C757.904002,512.435002 758.272998,512.698999 758.699,512.897 C759.125002,513.095001 759.589997,513.194 760.094,513.194 Z" id="ABCDEFGHIJKLMNOPQRST"></path>
        </g>
    </g>
</svg>