<?xml version="1.0" encoding="UTF-8"?>
<svg width="252px" height="62px" viewBox="0 0 252 62" version="1.1" xmlns="http://www.w3.org/2000/svg" xmlns:xlink="http://www.w3.org/1999/xlink">
    <!-- Generator: Sketch 48.2 (47327) - http://www.bohemiancoding.com/sketch -->
    <title>ABCDEFGHIJKLMNOPQRST</title>
    <desc>Created with Sketch.</desc>
    <defs></defs>
    <g id="merchMAKER---Mobile" stroke="none" stroke-width="1" fill="none" fill-rule="evenodd" transform="translate(-34.000000, -1880.000000)">
        <g id="02-Font-Colours" transform="translate(0.000000, 1459.000000)" fill="#333333">
            <path d="M38.49,428.136 L41.08,428.136 L39.82,424.468 L39.792,424.468 L38.49,428.136 Z M38.7,422.004 L40.954,422.004 L44.692,432 L42.41,432 L41.654,429.774 L37.916,429.774 L37.132,432 L34.92,432 L38.7,422.004 Z M47.758,426.05 L49.984,426.05 C50.376002,426.05 50.6979987,425.956668 50.95,425.77 C51.2020013,425.583332 51.328,425.280002 51.328,424.86 C51.328,424.626666 51.2860004,424.435334 51.202,424.286 C51.1179996,424.136666 51.0060007,424.02 50.866,423.936 C50.7259993,423.852 50.5650009,423.793667 50.383,423.761 C50.2009991,423.728333 50.012001,423.712 49.816,423.712 L47.758,423.712 L47.758,426.05 Z M45.56,422.004 L50.264,422.004 C50.7400024,422.004 51.173998,422.046 51.566,422.13 C51.958002,422.214 52.2939986,422.351666 52.574,422.543 C52.8540014,422.734334 53.0709992,422.988665 53.225,423.306 C53.3790008,423.623335 53.456,424.015331 53.456,424.482 C53.456,424.986003 53.3416678,425.405998 53.113,425.742 C52.8843322,426.078002 52.5460022,426.353332 52.098,426.568 C52.7140031,426.745334 53.1736652,427.055664 53.477,427.499 C53.7803349,427.942336 53.932,428.476664 53.932,429.102 C53.932,429.606003 53.834001,430.042331 53.638,430.411 C53.441999,430.779669 53.178335,431.080666 52.847,431.314 C52.515665,431.547335 52.1376688,431.719999 51.713,431.832 C51.2883312,431.944001 50.8520022,432 50.404,432 L45.56,432 L45.56,422.004 Z M47.758,430.292 L50.11,430.292 C50.3246677,430.292 50.529999,430.271 50.726,430.229 C50.922001,430.187 51.0946659,430.117 51.244,430.019 C51.3933341,429.921 51.5123329,429.788001 51.601,429.62 C51.6896671,429.451999 51.734,429.237335 51.734,428.976 C51.734,428.462664 51.5893348,428.096334 51.3,427.877 C51.0106652,427.657666 50.6280024,427.548 50.152,427.548 L47.758,427.548 L47.758,430.292 Z M62.08,425.364 C62.0426665,425.111999 61.9586673,424.881001 61.828,424.671 C61.6973327,424.460999 61.534001,424.276667 61.338,424.118 C61.141999,423.959333 60.9203346,423.835667 60.673,423.747 C60.4256654,423.658333 60.166668,423.614 59.896,423.614 C59.4013309,423.614 58.9813351,423.709666 58.636,423.901 C58.2906649,424.092334 58.0106677,424.348998 57.796,424.671 C57.5813323,424.993002 57.4250005,425.359331 57.327,425.77 C57.2289995,426.180669 57.18,426.605331 57.18,427.044 C57.18,427.464002 57.2289995,427.872331 57.327,428.269 C57.4250005,428.665669 57.5813323,429.022665 57.796,429.34 C58.0106677,429.657335 58.2906649,429.911666 58.636,430.103 C58.9813351,430.294334 59.4013309,430.39 59.896,430.39 C60.5680034,430.39 61.0929981,430.184669 61.471,429.774 C61.8490019,429.363331 62.0799996,428.822003 62.164,428.15 L64.292,428.15 C64.2359997,428.775336 64.0913345,429.339997 63.858,429.844 C63.6246655,430.348003 63.3166686,430.777332 62.934,431.132 C62.5513314,431.486668 62.1033359,431.757332 61.59,431.944 C61.0766641,432.130668 60.5120031,432.224 59.896,432.224 C59.1306628,432.224 58.4423364,432.091001 57.831,431.825 C57.2196636,431.558999 56.7040021,431.192669 56.284,430.726 C55.8639979,430.259331 55.5420011,429.711003 55.318,429.081 C55.0939989,428.450997 54.982,427.772004 54.982,427.044 C54.982,426.29733 55.0939989,425.604337 55.318,424.965 C55.5420011,424.325663 55.8639979,423.768002 56.284,423.292 C56.7040021,422.815998 57.2196636,422.442668 57.831,422.172 C58.4423364,421.901332 59.1306628,421.766 59.896,421.766 C60.4466694,421.766 60.9669976,421.845333 61.457,422.004 C61.9470025,422.162667 62.3856647,422.393665 62.773,422.697 C63.1603353,423.000335 63.4799987,423.375998 63.732,423.824 C63.9840013,424.272002 64.1426663,424.78533 64.208,425.364 L62.08,425.364 Z M67.988,430.152 L69.948,430.152 C70.2653349,430.152 70.5733318,430.100667 70.872,429.998 C71.1706682,429.895333 71.4366655,429.725001 71.67,429.487 C71.9033345,429.248999 72.0899993,428.938669 72.23,428.556 C72.3700007,428.173331 72.44,427.706669 72.44,427.156 C72.44,426.651997 72.3910005,426.197002 72.293,425.791 C72.1949995,425.384998 72.0340011,425.037335 71.81,424.748 C71.5859989,424.458665 71.2896685,424.237001 70.921,424.083 C70.5523315,423.928999 70.097336,423.852 69.556,423.852 L67.988,423.852 L67.988,430.152 Z M65.79,422.004 L70.102,422.004 C70.7460032,422.004 71.3456639,422.106666 71.901,422.312 C72.4563361,422.517334 72.936998,422.825331 73.343,423.236 C73.749002,423.646669 74.0663322,424.159997 74.295,424.776 C74.5236678,425.392003 74.638,426.115329 74.638,426.946 C74.638,427.674004 74.5446676,428.345997 74.358,428.962 C74.1713324,429.578003 73.8890019,430.109998 73.511,430.558 C73.1329981,431.006002 72.6616695,431.358332 72.097,431.615 C71.5323305,431.871668 70.8673372,432 70.102,432 L65.79,432 L65.79,422.004 Z M76.164,422.004 L83.64,422.004 L83.64,423.852 L78.362,423.852 L78.362,425.994 L83.206,425.994 L83.206,427.702 L78.362,427.702 L78.362,430.152 L83.752,430.152 L83.752,432 L76.164,432 L76.164,422.004 Z M85.236,422.004 L92.264,422.004 L92.264,423.852 L87.434,423.852 L87.434,426.162 L91.62,426.162 L91.62,427.87 L87.434,427.87 L87.434,432 L85.236,432 L85.236,422.004 Z M100.762,430.866 C100.369998,431.370003 99.9360024,431.722332 99.46,431.923 C98.9839976,432.123668 98.5033358,432.224 98.018,432.224 C97.2526628,432.224 96.5643364,432.091001 95.953,431.825 C95.3416636,431.558999 94.8260021,431.192669 94.406,430.726 C93.9859979,430.259331 93.6640011,429.711003 93.44,429.081 C93.2159989,428.450997 93.104,427.772004 93.104,427.044 C93.104,426.29733 93.2159989,425.604337 93.44,424.965 C93.6640011,424.325663 93.9859979,423.768002 94.406,423.292 C94.8260021,422.815998 95.3416636,422.442668 95.953,422.172 C96.5643364,421.901332 97.2526628,421.766 98.018,421.766 C98.5313359,421.766 99.0283309,421.842999 99.509,421.997 C99.9896691,422.151001 100.423665,422.377332 100.811,422.676 C101.198335,422.974668 101.517999,423.343331 101.77,423.782 C102.022001,424.220669 102.176,424.724664 102.232,425.294 L100.132,425.294 C100.001333,424.733997 99.7493352,424.314001 99.376,424.034 C99.0026648,423.753999 98.5500027,423.614 98.018,423.614 C97.5233309,423.614 97.1033351,423.709666 96.758,423.901 C96.4126649,424.092334 96.1326677,424.348998 95.918,424.671 C95.7033323,424.993002 95.5470005,425.359331 95.449,425.77 C95.3509995,426.180669 95.302,426.605331 95.302,427.044 C95.302,427.464002 95.3509995,427.872331 95.449,428.269 C95.5470005,428.665669 95.7033323,429.022665 95.918,429.34 C96.1326677,429.657335 96.4126649,429.911666 96.758,430.103 C97.1033351,430.294334 97.5233309,430.39 98.018,430.39 C98.7460036,430.39 99.3083314,430.205669 99.705,429.837 C100.101669,429.468331 100.332666,428.934004 100.398,428.234 L98.186,428.234 L98.186,426.596 L102.386,426.596 L102.386,432 L100.986,432 L100.762,430.866 Z M104.164,422.004 L106.362,422.004 L106.362,425.84 L110.408,425.84 L110.408,422.004 L112.606,422.004 L112.606,432 L110.408,432 L110.408,427.688 L106.362,427.688 L106.362,432 L104.164,432 L104.164,422.004 Z M114.538,422.004 L116.736,422.004 L116.736,432 L114.538,432 L114.538,422.004 Z M124.52,428.85 C124.52,429.176668 124.487334,429.535998 124.422,429.928 C124.356666,430.320002 124.207334,430.686332 123.974,431.027 C123.740665,431.367668 123.404669,431.652332 122.966,431.881 C122.527331,432.109668 121.93467,432.224 121.188,432.224 C120.767998,432.224 120.362002,432.165667 119.97,432.049 C119.577998,431.932333 119.228002,431.750335 118.92,431.503 C118.611998,431.255665 118.364668,430.938335 118.178,430.551 C117.991332,430.163665 117.898,429.694669 117.898,429.144 L117.898,428.276 L119.886,428.276 L119.886,428.724 C119.886,428.966668 119.904666,429.190666 119.942,429.396 C119.979334,429.601334 120.044666,429.776333 120.138,429.921 C120.231334,430.065667 120.359666,430.18 120.523,430.264 C120.686334,430.348 120.898665,430.39 121.16,430.39 C121.449335,430.39 121.673333,430.338667 121.832,430.236 C121.990667,430.133333 122.105,430.000334 122.175,429.837 C122.245,429.673666 122.287,429.496334 122.301,429.305 C122.315,429.113666 122.322,428.929334 122.322,428.752 L122.322,422.004 L124.52,422.004 L124.52,428.85 Z M126.452,422.004 L128.65,422.004 L128.65,426.148 L132.556,422.004 L135.3,422.004 L131.394,425.952 L135.678,432 L132.92,432 L129.91,427.506 L128.65,428.78 L128.65,432 L126.452,432 L126.452,422.004 Z M136.56,422.004 L138.758,422.004 L138.758,430.152 L143.63,430.152 L143.63,432 L136.56,432 L136.56,422.004 Z M144.862,422.004 L147.956,422.004 L150.294,428.878 L150.322,428.878 L152.534,422.004 L155.628,422.004 L155.628,432 L153.57,432 L153.57,424.916 L153.542,424.916 L151.092,432 L149.398,432 L146.948,424.986 L146.92,424.986 L146.92,432 L144.862,432 L144.862,422.004 Z M157.56,422.004 L159.744,422.004 L163.916,428.71 L163.944,428.71 L163.944,422.004 L166.002,422.004 L166.002,432 L163.804,432 L159.646,425.308 L159.618,425.308 L159.618,432 L157.56,432 L157.56,422.004 Z M169.698,427.044 C169.698,427.464002 169.747,427.872331 169.845,428.269 C169.943,428.665669 170.099332,429.022665 170.314,429.34 C170.528668,429.657335 170.808665,429.911666 171.154,430.103 C171.499335,430.294334 171.919331,430.39 172.414,430.39 C172.908669,430.39 173.328665,430.294334 173.674,430.103 C174.019335,429.911666 174.299332,429.657335 174.514,429.34 C174.728668,429.022665 174.885,428.665669 174.983,428.269 C175.081,427.872331 175.13,427.464002 175.13,427.044 C175.13,426.605331 175.081,426.180669 174.983,425.77 C174.885,425.359331 174.728668,424.993002 174.514,424.671 C174.299332,424.348998 174.019335,424.092334 173.674,423.901 C173.328665,423.709666 172.908669,423.614 172.414,423.614 C171.919331,423.614 171.499335,423.709666 171.154,423.901 C170.808665,424.092334 170.528668,424.348998 170.314,424.671 C170.099332,424.993002 169.943,425.359331 169.845,425.77 C169.747,426.180669 169.698,426.605331 169.698,427.044 Z M167.5,427.044 C167.5,426.29733 167.611999,425.604337 167.836,424.965 C168.060001,424.325663 168.381998,423.768002 168.802,423.292 C169.222002,422.815998 169.737664,422.442668 170.349,422.172 C170.960336,421.901332 171.648663,421.766 172.414,421.766 C173.188671,421.766 173.87933,421.901332 174.486,422.172 C175.09267,422.442668 175.605998,422.815998 176.026,423.292 C176.446002,423.768002 176.767999,424.325663 176.992,424.965 C177.216001,425.604337 177.328,426.29733 177.328,427.044 C177.328,427.772004 177.216001,428.450997 176.992,429.081 C176.767999,429.711003 176.446002,430.259331 176.026,430.726 C175.605998,431.192669 175.09267,431.558999 174.486,431.825 C173.87933,432.091001 173.188671,432.224 172.414,432.224 C171.648663,432.224 170.960336,432.091001 170.349,431.825 C169.737664,431.558999 169.222002,431.192669 168.802,430.726 C168.381998,430.259331 168.060001,429.711003 167.836,429.081 C167.611999,428.450997 167.5,427.772004 167.5,427.044 Z M181.024,426.708 L182.732,426.708 C182.984001,426.708 183.226666,426.689334 183.46,426.652 C183.693334,426.614666 183.898666,426.542334 184.076,426.435 C184.253334,426.327666 184.395666,426.176001 184.503,425.98 C184.610334,425.783999 184.664,425.527335 184.664,425.21 C184.664,424.892665 184.610334,424.636001 184.503,424.44 C184.395666,424.243999 184.253334,424.092334 184.076,423.985 C183.898666,423.877666 183.693334,423.805334 183.46,423.768 C183.226666,423.730666 182.984001,423.712 182.732,423.712 L181.024,423.712 L181.024,426.708 Z M178.826,422.004 L183.334,422.004 C183.959336,422.004 184.491331,422.094999 184.93,422.277 C185.368669,422.459001 185.725665,422.699332 186.001,422.998 C186.276335,423.296668 186.476999,423.637331 186.603,424.02 C186.729001,424.402669 186.792,424.799331 186.792,425.21 C186.792,425.611335 186.729001,426.005665 186.603,426.393 C186.476999,426.780335 186.276335,427.123332 186.001,427.422 C185.725665,427.720668 185.368669,427.960999 184.93,428.143 C184.491331,428.325001 183.959336,428.416 183.334,428.416 L181.024,428.416 L181.024,432 L178.826,432 L178.826,422.004 Z M194.744,429.34 C194.930668,429.087999 195.079999,428.775335 195.192,428.402 C195.304001,428.028665 195.36,427.576003 195.36,427.044 C195.36,426.605331 195.311,426.180669 195.213,425.77 C195.115,425.359331 194.958668,424.993002 194.744,424.671 C194.529332,424.348998 194.249335,424.092334 193.904,423.901 C193.558665,423.709666 193.138669,423.614 192.644,423.614 C192.149331,423.614 191.729335,423.709666 191.384,423.901 C191.038665,424.092334 190.758668,424.348998 190.544,424.671 C190.329332,424.993002 190.173,425.359331 190.075,425.77 C189.977,426.180669 189.928,426.605331 189.928,427.044 C189.928,427.464002 189.977,427.872331 190.075,428.269 C190.173,428.665669 190.329332,429.022665 190.544,429.34 C190.758668,429.657335 191.038665,429.911666 191.384,430.103 C191.729335,430.294334 192.149331,430.39 192.644,430.39 C192.877335,430.39 193.054666,430.380667 193.176,430.362 C193.297334,430.343333 193.413999,430.306 193.526,430.25 L192.588,429.396 L193.61,428.304 L194.744,429.34 Z M195.066,431.65 C194.40333,432.032669 193.596005,432.224 192.644,432.224 C191.878663,432.224 191.190336,432.091001 190.579,431.825 C189.967664,431.558999 189.452002,431.192669 189.032,430.726 C188.611998,430.259331 188.290001,429.711003 188.066,429.081 C187.841999,428.450997 187.73,427.772004 187.73,427.044 C187.73,426.29733 187.841999,425.604337 188.066,424.965 C188.290001,424.325663 188.611998,423.768002 189.032,423.292 C189.452002,422.815998 189.967664,422.442668 190.579,422.172 C191.190336,421.901332 191.878663,421.766 192.644,421.766 C193.418671,421.766 194.10933,421.901332 194.716,422.172 C195.32267,422.442668 195.835998,422.815998 196.256,423.292 C196.676002,423.768002 196.997999,424.325663 197.222,424.965 C197.446001,425.604337 197.558,426.29733 197.558,427.044 C197.558,427.772004 197.446001,428.448664 197.222,429.074 C196.997999,429.699336 196.676002,430.249998 196.256,430.726 L197.502,431.86 L196.48,432.924 L195.066,431.65 Z M201.254,426.526 L203.662,426.526 C204.166003,426.526 204.543999,426.414001 204.796,426.19 C205.048001,425.965999 205.174,425.602003 205.174,425.098 C205.174,424.612664 205.048001,424.260334 204.796,424.041 C204.543999,423.821666 204.166003,423.712 203.662,423.712 L201.254,423.712 L201.254,426.526 Z M199.056,422.004 L204.446,422.004 C204.894002,422.004 205.297665,422.076333 205.657,422.221 C206.016335,422.365667 206.324332,422.563999 206.581,422.816 C206.837668,423.068001 207.033666,423.359665 207.169,423.691 C207.304334,424.022335 207.372,424.379331 207.372,424.762 C207.372,425.350003 207.248335,425.858665 207.001,426.288 C206.753665,426.717335 206.350003,427.043999 205.79,427.268 L205.79,427.296 C206.060668,427.370667 206.284666,427.484999 206.462,427.639 C206.639334,427.793001 206.783999,427.974999 206.896,428.185 C207.008001,428.395001 207.089666,428.625999 207.141,428.878 C207.192334,429.130001 207.227333,429.381999 207.246,429.634 C207.255333,429.792667 207.264667,429.979332 207.274,430.194 C207.283333,430.408668 207.299667,430.627999 207.323,430.852 C207.346333,431.076001 207.383666,431.288332 207.435,431.489 C207.486334,431.689668 207.563333,431.859999 207.666,432 L205.468,432 C205.346666,431.682665 205.272,431.304669 205.244,430.866 C205.216,430.427331 205.174,430.007335 205.118,429.606 C205.043333,429.083331 204.884668,428.700668 204.642,428.458 C204.399332,428.215332 204.002669,428.094 203.452,428.094 L201.254,428.094 L201.254,432 L199.056,432 L199.056,422.004 Z M210.662,428.682 C210.662,429.018002 210.722666,429.302665 210.844,429.536 C210.965334,429.769335 211.126332,429.958333 211.327,430.103 C211.527668,430.247667 211.763332,430.355 212.034,430.425 C212.304668,430.495 212.584665,430.53 212.874,430.53 C213.070001,430.53 213.279999,430.513667 213.504,430.481 C213.728001,430.448333 213.937999,430.385334 214.134,430.292 C214.330001,430.198666 214.493333,430.070334 214.624,429.907 C214.754667,429.743666 214.82,429.536001 214.82,429.284 C214.82,429.013332 214.733668,428.794001 214.561,428.626 C214.388332,428.457999 214.162001,428.318001 213.882,428.206 C213.601999,428.093999 213.284668,427.996 212.93,427.912 C212.575332,427.828 212.216002,427.734667 211.852,427.632 C211.478665,427.538666 211.114668,427.424334 210.76,427.289 C210.405332,427.153666 210.088001,426.978668 209.808,426.764 C209.527999,426.549332 209.301668,426.281002 209.129,425.959 C208.956332,425.636998 208.87,425.247336 208.87,424.79 C208.87,424.276664 208.979666,423.831002 209.199,423.453 C209.418334,423.074998 209.705332,422.760001 210.06,422.508 C210.414668,422.255999 210.815998,422.069334 211.264,421.948 C211.712002,421.826666 212.159998,421.766 212.608,421.766 C213.130669,421.766 213.632331,421.824333 214.113,421.941 C214.593669,422.057667 215.020665,422.246665 215.394,422.508 C215.767335,422.769335 216.063666,423.102998 216.283,423.509 C216.502334,423.915002 216.612,424.40733 216.612,424.986 L214.484,424.986 C214.465333,424.687332 214.402334,424.440001 214.295,424.244 C214.187666,424.047999 214.045334,423.894001 213.868,423.782 C213.690666,423.669999 213.487668,423.590667 213.259,423.544 C213.030332,423.497333 212.780668,423.474 212.51,423.474 C212.332666,423.474 212.155334,423.492666 211.978,423.53 C211.800666,423.567334 211.639667,423.632666 211.495,423.726 C211.350333,423.819334 211.231334,423.935999 211.138,424.076 C211.044666,424.216001 210.998,424.393332 210.998,424.608 C210.998,424.804001 211.035333,424.962666 211.11,425.084 C211.184667,425.205334 211.331666,425.317333 211.551,425.42 C211.770334,425.522667 212.073665,425.625333 212.461,425.728 C212.848335,425.830667 213.354664,425.961333 213.98,426.12 C214.166668,426.157334 214.425665,426.225 214.757,426.323 C215.088335,426.421 215.417332,426.577332 215.744,426.792 C216.070668,427.006668 216.352999,427.293665 216.591,427.653 C216.829001,428.012335 216.948,428.471997 216.948,429.032 C216.948,429.489336 216.859334,429.913998 216.682,430.306 C216.504666,430.698002 216.241002,431.036332 215.891,431.321 C215.540998,431.605668 215.107003,431.827333 214.589,431.986 C214.070997,432.144667 213.471337,432.224 212.79,432.224 C212.239331,432.224 211.705003,432.156334 211.187,432.021 C210.668997,431.885666 210.211669,431.673335 209.815,431.384 C209.418331,431.094665 209.103334,430.726002 208.87,430.278 C208.636665,429.829998 208.524667,429.298003 208.534,428.682 L210.662,428.682 Z M220.462,423.852 L217.466,423.852 L217.466,422.004 L225.656,422.004 L225.656,423.852 L222.66,423.852 L222.66,432 L220.462,432 L220.462,423.852 Z M235.288,428.22 C235.288,429.57334 234.910004,430.578997 234.154,431.237 C233.397996,431.895003 232.352673,432.224 231.018,432.224 C229.66466,432.224 228.617004,431.897337 227.875,431.244 C227.132996,430.590663 226.762,429.582673 226.762,428.22 L226.762,422.004 L228.96,422.004 L228.96,428.22 C228.96,428.490668 228.983333,428.756665 229.03,429.018 C229.076667,429.279335 229.174666,429.510332 229.324,429.711 C229.473334,429.911668 229.680999,430.074999 229.947,430.201 C230.213001,430.327001 230.569998,430.39 231.018,430.39 C231.802004,430.39 232.343332,430.215002 232.642,429.865 C232.940668,429.514998 233.09,428.96667 233.09,428.22 L233.09,422.004 L235.288,422.004 L235.288,428.22 Z M241.826,432 L239.348,432 L236.114,422.004 L238.368,422.004 L240.594,429.032 L240.622,429.032 L242.876,422.004 L245.144,422.004 L241.826,432 Z M255.518,432 L253.334,432 L251.64,425.196 L251.612,425.196 L249.946,432 L247.72,432 L245.074,422.004 L247.272,422.004 L248.854,428.808 L248.882,428.808 L250.618,422.004 L252.676,422.004 L254.384,428.892 L254.412,428.892 L256.05,422.004 L258.206,422.004 L255.518,432 Z M261.664,426.764 L258.444,422.004 L260.992,422.004 L262.952,425.196 L264.982,422.004 L267.39,422.004 L264.184,426.778 L267.67,432 L265.052,432 L262.868,428.542 L260.642,432 L258.178,432 L261.664,426.764 Z M271.142,428.108 L267.474,422.004 L269.938,422.004 L272.276,425.952 L274.6,422.004 L277.05,422.004 L273.34,428.164 L273.34,432 L271.142,432 L271.142,428.108 Z M277.246,430.264 L282.608,423.852 L277.666,423.852 L277.666,422.004 L285.534,422.004 L285.534,423.74 L280.172,430.152 L285.674,430.152 L285.674,432 L277.246,432 L277.246,430.264 Z M76.549,456.972 C76.3436656,457.093334 76.0590018,457.154 75.695,457.154 C75.3869985,457.154 75.1420009,457.067668 74.96,456.895 C74.7779991,456.722332 74.687,456.440002 74.687,456.048 C74.3603317,456.440002 73.9800022,456.722332 73.546,456.895 C73.1119978,457.067668 72.6430025,457.154 72.139,457.154 C71.8123317,457.154 71.5020015,457.116667 71.208,457.042 C70.9139985,456.967333 70.6596677,456.850667 70.445,456.692 C70.2303323,456.533333 70.0600006,456.325668 69.934,456.069 C69.8079994,455.812332 69.745,455.502002 69.745,455.138 C69.745,454.727331 69.8149993,454.391335 69.955,454.13 C70.0950007,453.868665 70.2793322,453.656334 70.508,453.493 C70.7366678,453.329666 70.9979985,453.206 71.292,453.122 C71.5860015,453.038 71.8869985,452.968 72.195,452.912 C72.5216683,452.846666 72.8319985,452.797667 73.126,452.765 C73.4200015,452.732333 73.6789989,452.685667 73.903,452.625 C74.1270011,452.564333 74.3043327,452.475667 74.435,452.359 C74.5656673,452.242333 74.631,452.072001 74.631,451.848 C74.631,451.586665 74.5820005,451.376667 74.484,451.218 C74.3859995,451.059333 74.2600008,450.938 74.106,450.854 C73.9519992,450.77 73.7793343,450.714 73.588,450.686 C73.3966657,450.658 73.2076676,450.644 73.021,450.644 C72.5169975,450.644 72.0970017,450.739666 71.761,450.931 C71.4249983,451.122334 71.2430001,451.483997 71.215,452.016 L70.025,452.016 C70.0436668,451.567998 70.1369992,451.190002 70.305,450.882 C70.4730008,450.573998 70.6969986,450.324334 70.977,450.133 C71.2570014,449.941666 71.5766649,449.804 71.936,449.72 C72.2953351,449.636 72.6803313,449.594 73.091,449.594 C73.4176683,449.594 73.7419984,449.617333 74.064,449.664 C74.3860016,449.710667 74.6776654,449.806333 74.939,449.951 C75.2003346,450.095667 75.4103325,450.298665 75.569,450.56 C75.7276675,450.821335 75.807,451.161998 75.807,451.582 L75.807,455.306 C75.807,455.586001 75.8233332,455.791333 75.856,455.922 C75.8886668,456.052667 75.9983324,456.118 76.185,456.118 C76.2876672,456.118 76.4089993,456.094667 76.549,456.048 L76.549,456.972 Z M74.617,453.262 C74.4676659,453.374001 74.2716679,453.455666 74.029,453.507 C73.7863321,453.558334 73.5320013,453.600333 73.266,453.633 C72.9999987,453.665667 72.731668,453.703 72.461,453.745 C72.190332,453.787 71.9476677,453.854666 71.733,453.948 C71.5183323,454.041334 71.343334,454.174332 71.208,454.347 C71.072666,454.519668 71.005,454.755332 71.005,455.054 C71.005,455.250001 71.0446663,455.415666 71.124,455.551 C71.2033337,455.686334 71.3059994,455.796 71.432,455.88 C71.5580006,455.964 71.7049992,456.024666 71.873,456.062 C72.0410008,456.099334 72.2183324,456.118 72.405,456.118 C72.797002,456.118 73.1329986,456.064334 73.413,455.957 C73.6930014,455.849666 73.9216658,455.714334 74.099,455.551 C74.2763342,455.387666 74.4069996,455.210334 74.491,455.019 C74.5750004,454.827666 74.617,454.648001 74.617,454.48 L74.617,453.262 Z M77.697,447.004 L78.887,447.004 L78.887,450.742 L78.915,450.742 C79.111001,450.340665 79.4189979,450.049001 79.839,449.867 C80.2590021,449.684999 80.7209975,449.594 81.225,449.594 C81.7850028,449.594 82.2726646,449.696666 82.688,449.902 C83.1033354,450.107334 83.4486653,450.384998 83.724,450.735 C83.9993347,451.085002 84.2069993,451.488664 84.347,451.946 C84.4870007,452.403336 84.557,452.888664 84.557,453.402 C84.557,453.915336 84.489334,454.400664 84.354,454.858 C84.218666,455.315336 84.0133347,455.714332 83.738,456.055 C83.4626653,456.395668 83.1173354,456.663999 82.702,456.86 C82.2866646,457.056001 81.8036694,457.154 81.253,457.154 C81.0756658,457.154 80.8773344,457.135334 80.658,457.098 C80.4386656,457.060666 80.2216677,457 80.007,456.916 C79.7923323,456.832 79.5893343,456.717667 79.398,456.573 C79.2066657,456.428333 79.0456673,456.248668 78.915,456.034 L78.887,456.034 L78.887,457 L77.697,457 L77.697,447.004 Z M83.297,453.318 C83.297,452.981998 83.2526671,452.653002 83.164,452.331 C83.0753329,452.008998 82.9400009,451.722001 82.758,451.47 C82.5759991,451.217999 82.3426681,451.017334 82.058,450.868 C81.7733319,450.718666 81.4396686,450.644 81.057,450.644 C80.6556647,450.644 80.3150014,450.723333 80.035,450.882 C79.7549986,451.040667 79.5263342,451.248332 79.349,451.505 C79.1716658,451.761668 79.0433337,452.053332 78.964,452.38 C78.8846663,452.706668 78.845,453.037998 78.845,453.374 C78.845,453.728668 78.8869996,454.071665 78.971,454.403 C79.0550004,454.734335 79.1879991,455.025999 79.37,455.278 C79.5520009,455.530001 79.7876652,455.732999 80.077,455.887 C80.3663348,456.041001 80.7163313,456.118 81.127,456.118 C81.5376687,456.118 81.8806653,456.038667 82.156,455.88 C82.4313347,455.721333 82.6529992,455.511335 82.821,455.25 C82.9890008,454.988665 83.110333,454.690002 83.185,454.354 C83.259667,454.017998 83.297,453.672668 83.297,453.318 Z M90.871,452.086 C90.7776662,451.628664 90.5816682,451.274001 90.283,451.022 C89.9843318,450.769999 89.5830025,450.644 89.079,450.644 C88.6496645,450.644 88.2903348,450.723333 88.001,450.882 C87.7116652,451.040667 87.4806675,451.250665 87.308,451.512 C87.1353325,451.773335 87.011667,452.074332 86.937,452.415 C86.862333,452.755668 86.825,453.107998 86.825,453.472 C86.825,453.808002 86.8646663,454.134665 86.944,454.452 C87.0233337,454.769335 87.1469992,455.051665 87.315,455.299 C87.4830008,455.546335 87.702332,455.744666 87.973,455.894 C88.243668,456.043334 88.5656648,456.118 88.939,456.118 C89.5270029,456.118 89.986665,455.964002 90.318,455.656 C90.649335,455.347998 90.852333,454.914003 90.927,454.354 L92.145,454.354 C92.0143327,455.250004 91.6806694,455.940664 91.144,456.426 C90.6073306,456.911336 89.8770046,457.154 88.953,457.154 C88.4023306,457.154 87.9146688,457.065334 87.49,456.888 C87.0653312,456.710666 86.7106681,456.458668 86.426,456.132 C86.1413319,455.805332 85.9266674,455.415669 85.782,454.963 C85.6373326,454.510331 85.565,454.013336 85.565,453.472 C85.565,452.930664 85.6349993,452.424336 85.775,451.953 C85.9150007,451.481664 86.1273319,451.071002 86.412,450.721 C86.6966681,450.370998 87.0536645,450.095668 87.483,449.895 C87.9123355,449.694332 88.4116638,449.594 88.981,449.594 C89.3916687,449.594 89.7766649,449.643 90.136,449.741 C90.4953351,449.839 90.8126653,449.990666 91.088,450.196 C91.3633347,450.401334 91.5896658,450.660332 91.767,450.973 C91.9443342,451.285668 92.0563331,451.656665 92.103,452.086 L90.871,452.086 Z M94.343,453.444 C94.343,453.780002 94.3873329,454.108998 94.476,454.431 C94.5646671,454.753002 94.6999991,455.039999 94.882,455.292 C95.0640009,455.544001 95.2973319,455.744666 95.582,455.894 C95.8666681,456.043334 96.2003314,456.118 96.583,456.118 C96.9843353,456.118 97.3249986,456.038667 97.605,455.88 C97.8850014,455.721333 98.1136658,455.513668 98.291,455.257 C98.4683342,455.000332 98.5966663,454.708668 98.676,454.382 C98.7553337,454.055332 98.795,453.724002 98.795,453.388 C98.795,453.033332 98.7530004,452.690335 98.669,452.359 C98.5849996,452.027665 98.4520009,451.736001 98.27,451.484 C98.0879991,451.231999 97.8523348,451.029001 97.563,450.875 C97.2736652,450.720999 96.9236687,450.644 96.513,450.644 C96.1116647,450.644 95.7710014,450.723333 95.491,450.882 C95.2109986,451.040667 94.9870008,451.250665 94.819,451.512 C94.6509992,451.773335 94.529667,452.071998 94.455,452.408 C94.380333,452.744002 94.343,453.089332 94.343,453.444 Z M99.943,457 L98.753,457 L98.753,456.02 L98.725,456.02 C98.528999,456.421335 98.2210021,456.710666 97.801,456.888 C97.3809979,457.065334 96.9190025,457.154 96.415,457.154 C95.8549972,457.154 95.3673354,457.051334 94.952,456.846 C94.5366646,456.640666 94.1913347,456.365335 93.916,456.02 C93.6406653,455.674665 93.4330007,455.273336 93.293,454.816 C93.1529993,454.358664 93.083,453.873336 93.083,453.36 C93.083,452.846664 93.150666,452.361336 93.286,451.904 C93.421334,451.446664 93.6266653,451.047668 93.902,450.707 C94.1773347,450.366332 94.5226646,450.095668 94.938,449.895 C95.3533354,449.694332 95.8363306,449.594 96.387,449.594 C96.5736676,449.594 96.7743323,449.612666 96.989,449.65 C97.2036677,449.687334 97.4183323,449.750333 97.633,449.839 C97.8476677,449.927667 98.0506657,450.044333 98.242,450.189 C98.4333343,450.333667 98.5943327,450.513332 98.725,450.728 L98.753,450.728 L98.753,447.004 L99.943,447.004 L99.943,457 Z M106.803,452.688 C106.784333,452.407999 106.721334,452.142001 106.614,451.89 C106.506666,451.637999 106.362001,451.421001 106.18,451.239 C105.997999,451.056999 105.783335,450.912334 105.536,450.805 C105.288665,450.697666 105.015668,450.644 104.717,450.644 C104.408998,450.644 104.131335,450.697666 103.884,450.805 C103.636665,450.912334 103.424334,451.059332 103.247,451.246 C103.069666,451.432668 102.929667,451.649665 102.827,451.897 C102.724333,452.144335 102.663667,452.407999 102.645,452.688 L106.803,452.688 Z M107.951,454.704 C107.792333,455.516004 107.442336,456.127331 106.901,456.538 C106.359664,456.948669 105.678337,457.154 104.857,457.154 C104.27833,457.154 103.776669,457.060668 103.352,456.874 C102.927331,456.687332 102.570335,456.426002 102.281,456.09 C101.991665,455.753998 101.774667,455.352669 101.63,454.886 C101.485333,454.419331 101.403667,453.910669 101.385,453.36 C101.385,452.809331 101.468999,452.305336 101.637,451.848 C101.805001,451.390664 102.040665,450.994002 102.344,450.658 C102.647335,450.321998 103.006665,450.060668 103.422,449.874 C103.837335,449.687332 104.292331,449.594 104.787,449.594 C105.431003,449.594 105.965331,449.726999 106.39,449.993 C106.814669,450.259001 107.155332,450.597331 107.412,451.008 C107.668668,451.418669 107.846,451.866664 107.944,452.352 C108.042,452.837336 108.081667,453.299331 108.063,453.738 L102.645,453.738 C102.635667,454.055335 102.673,454.356332 102.757,454.641 C102.841,454.925668 102.976332,455.177666 103.163,455.397 C103.349668,455.616334 103.587665,455.791333 103.877,455.922 C104.166335,456.052667 104.506998,456.118 104.899,456.118 C105.403003,456.118 105.815998,456.001334 106.138,455.768 C106.460002,455.534666 106.672333,455.180002 106.775,454.704 L107.951,454.704 Z M109.785,450.812 L108.567,450.812 L108.567,449.762 L109.785,449.762 L109.785,448.684 C109.785,448.095997 109.955332,447.650335 110.296,447.347 C110.636668,447.043665 111.133663,446.892 111.787,446.892 C111.899001,446.892 112.027333,446.901333 112.172,446.92 C112.316667,446.938667 112.444999,446.966666 112.557,447.004 L112.557,448.04 C112.454333,448.002666 112.342334,447.977 112.221,447.963 C112.099666,447.949 111.987667,447.942 111.885,447.942 C111.595665,447.942 111.371667,447.997999 111.213,448.11 C111.054333,448.222001 110.975,448.436665 110.975,448.754 L110.975,449.762 L112.375,449.762 L112.375,450.812 L110.975,450.812 L110.975,457 L109.785,457 L109.785,450.812 Z M119.683,456.384 C119.683,457.569339 119.412336,458.455997 118.871,459.044 C118.329664,459.632003 117.480339,459.926 116.323,459.926 C115.986998,459.926 115.644002,459.888667 115.294,459.814 C114.943998,459.739333 114.626668,459.618001 114.342,459.45 C114.057332,459.281999 113.821668,459.062668 113.635,458.792 C113.448332,458.521332 113.345667,458.190002 113.327,457.798 L114.517,457.798 C114.526333,458.012668 114.593999,458.194666 114.72,458.344 C114.846001,458.493334 114.999999,458.614666 115.182,458.708 C115.364001,458.801334 115.562332,458.869 115.777,458.911 C115.991668,458.953 116.196999,458.974 116.393,458.974 C116.785002,458.974 117.116332,458.906334 117.387,458.771 C117.657668,458.635666 117.881666,458.449001 118.059,458.211 C118.236334,457.972999 118.364666,457.686002 118.444,457.35 C118.523334,457.013998 118.563,456.645335 118.563,456.244 L118.563,455.768 L118.535,455.768 C118.329666,456.216002 118.019335,456.544999 117.604,456.755 C117.188665,456.965001 116.747669,457.07 116.281,457.07 C115.739664,457.07 115.268335,456.972001 114.867,456.776 C114.465665,456.579999 114.129668,456.316335 113.859,455.985 C113.588332,455.653665 113.385334,455.266336 113.25,454.823 C113.114666,454.379664 113.047,453.910669 113.047,453.416 C113.047,452.986665 113.102999,452.545669 113.215,452.093 C113.327001,451.640331 113.513665,451.229669 113.775,450.861 C114.036335,450.492331 114.381665,450.189001 114.811,449.951 C115.240335,449.712999 115.767664,449.594 116.393,449.594 C116.850336,449.594 117.270331,449.694332 117.653,449.895 C118.035669,450.095668 118.334332,450.396665 118.549,450.798 L118.563,450.798 L118.563,449.762 L119.683,449.762 L119.683,456.384 Z M116.351,456.034 C116.743002,456.034 117.076665,455.952334 117.352,455.789 C117.627335,455.625666 117.848999,455.411001 118.017,455.145 C118.185001,454.878999 118.308666,454.578002 118.388,454.242 C118.467334,453.905998 118.507,453.570002 118.507,453.234 C118.507,452.916665 118.469667,452.604002 118.395,452.296 C118.320333,451.987998 118.201334,451.710335 118.038,451.463 C117.874666,451.215665 117.662335,451.017334 117.401,450.868 C117.139665,450.718666 116.822335,450.644 116.449,450.644 C116.066331,450.644 115.739668,450.716333 115.469,450.861 C115.198332,451.005667 114.976668,451.199332 114.804,451.442 C114.631332,451.684668 114.505334,451.964665 114.426,452.282 C114.346666,452.599335 114.307,452.930665 114.307,453.276 C114.307,453.602668 114.339666,453.929332 114.405,454.256 C114.470334,454.582668 114.582333,454.878999 114.741,455.145 C114.899667,455.411001 115.109665,455.625666 115.371,455.789 C115.632335,455.952334 115.958998,456.034 116.351,456.034 Z M121.475,447.004 L122.665,447.004 L122.665,450.826 L122.693,450.826 C122.786334,450.601999 122.916999,450.413001 123.085,450.259 C123.253001,450.104999 123.441999,449.979 123.652,449.881 C123.862001,449.783 124.081332,449.710667 124.31,449.664 C124.538668,449.617333 124.760332,449.594 124.975,449.594 C125.451002,449.594 125.847665,449.659333 126.165,449.79 C126.482335,449.920667 126.738999,450.102666 126.935,450.336 C127.131001,450.569334 127.268666,450.846998 127.348,451.169 C127.427334,451.491002 127.467,451.847998 127.467,452.24 L127.467,457 L126.277,457 L126.277,452.1 C126.277,451.651998 126.146335,451.297335 125.885,451.036 C125.623665,450.774665 125.264336,450.644 124.807,450.644 C124.442998,450.644 124.128001,450.699999 123.862,450.812 C123.595999,450.924001 123.374334,451.082666 123.197,451.288 C123.019666,451.493334 122.886667,451.733665 122.798,452.009 C122.709333,452.284335 122.665,452.585332 122.665,452.912 L122.665,457 L121.475,457 L121.475,447.004 Z M130.519,448.46 L129.329,448.46 L129.329,447.004 L130.519,447.004 L130.519,448.46 Z M129.329,449.762 L130.519,449.762 L130.519,457 L129.329,457 L129.329,449.762 Z M133.627,448.46 L132.437,448.46 L132.437,447.004 L133.627,447.004 L133.627,448.46 Z M133.627,457.91 C133.627,458.554003 133.470668,459.022999 133.158,459.317 C132.845332,459.611001 132.423003,459.758 131.891,459.758 C131.676332,459.758 131.475668,459.739334 131.289,459.702 L131.289,458.68 C131.335667,458.689333 131.375333,458.696333 131.408,458.701 C131.440667,458.705667 131.475666,458.708 131.513,458.708 L131.765,458.708 C132.026335,458.708 132.203666,458.635667 132.297,458.491 C132.390334,458.346333 132.437,458.087335 132.437,457.714 L132.437,449.762 L133.627,449.762 L133.627,457.91 Z M135.545,447.004 L136.735,447.004 L136.735,452.926 L140.039,449.762 L141.635,449.762 L138.765,452.394 L141.845,457 L140.333,457 L137.855,453.22 L136.735,454.256 L136.735,457 L135.545,457 L135.545,447.004 Z M142.811,447.004 L144.001,447.004 L144.001,457 L142.811,457 L142.811,447.004 Z M145.849,449.762 L146.969,449.762 L146.969,450.826 L146.997,450.826 C147.538336,450.004663 148.317662,449.594 149.335,449.594 C149.783002,449.594 150.188998,449.687332 150.553,449.874 C150.917002,450.060668 151.173666,450.377998 151.323,450.826 C151.565668,450.433998 151.885331,450.130668 152.282,449.916 C152.678669,449.701332 153.114998,449.594 153.591,449.594 C153.955002,449.594 154.283999,449.633666 154.578,449.713 C154.872001,449.792334 155.123999,449.915999 155.334,450.084 C155.544001,450.252001 155.707333,450.468999 155.824,450.735 C155.940667,451.001001 155.999,451.320665 155.999,451.694 L155.999,457 L154.809,457 L154.809,452.254 C154.809,452.029999 154.790334,451.820001 154.753,451.624 C154.715666,451.427999 154.645667,451.257667 154.543,451.113 C154.440333,450.968333 154.298001,450.854 154.116,450.77 C153.933999,450.686 153.698335,450.644 153.409,450.644 C152.820997,450.644 152.359002,450.811998 152.023,451.148 C151.686998,451.484002 151.519,451.931997 151.519,452.492 L151.519,457 L150.329,457 L150.329,452.254 C150.329,452.020666 150.308,451.806001 150.266,451.61 C150.224,451.413999 150.151667,451.243667 150.049,451.099 C149.946333,450.954333 149.808668,450.842334 149.636,450.763 C149.463332,450.683666 149.241668,450.644 148.971,450.644 C148.625665,450.644 148.329335,450.713999 148.082,450.854 C147.834665,450.994001 147.634001,451.161999 147.48,451.358 C147.325999,451.554001 147.214,451.756999 147.144,451.967 C147.074,452.177001 147.039,452.351999 147.039,452.492 L147.039,457 L145.849,457 L145.849,449.762 Z M157.791,449.762 L158.911,449.762 L158.911,450.91 L158.939,450.91 C159.433669,450.032662 160.217661,449.594 161.291,449.594 C161.767002,449.594 162.163665,449.659333 162.481,449.79 C162.798335,449.920667 163.054999,450.102666 163.251,450.336 C163.447001,450.569334 163.584666,450.846998 163.664,451.169 C163.743334,451.491002 163.783,451.847998 163.783,452.24 L163.783,457 L162.593,457 L162.593,452.1 C162.593,451.651998 162.462335,451.297335 162.201,451.036 C161.939665,450.774665 161.580336,450.644 161.123,450.644 C160.758998,450.644 160.444001,450.699999 160.178,450.812 C159.911999,450.924001 159.690334,451.082666 159.513,451.288 C159.335666,451.493334 159.202667,451.733665 159.114,452.009 C159.025333,452.284335 158.981,452.585332 158.981,452.912 L158.981,457 L157.791,457 L157.791,449.762 Z M166.443,453.388 C166.443,453.826669 166.501333,454.216332 166.618,454.557 C166.734667,454.897668 166.895666,455.182332 167.101,455.411 C167.306334,455.639668 167.546665,455.814666 167.822,455.936 C168.097335,456.057334 168.388998,456.118 168.697,456.118 C169.005002,456.118 169.296665,456.057334 169.572,455.936 C169.847335,455.814666 170.087666,455.639668 170.293,455.411 C170.498334,455.182332 170.659333,454.897668 170.776,454.557 C170.892667,454.216332 170.951,453.826669 170.951,453.388 C170.951,452.949331 170.892667,452.559668 170.776,452.219 C170.659333,451.878332 170.498334,451.591335 170.293,451.358 C170.087666,451.124665 169.847335,450.947334 169.572,450.826 C169.296665,450.704666 169.005002,450.644 168.697,450.644 C168.388998,450.644 168.097335,450.704666 167.822,450.826 C167.546665,450.947334 167.306334,451.124665 167.101,451.358 C166.895666,451.591335 166.734667,451.878332 166.618,452.219 C166.501333,452.559668 166.443,452.949331 166.443,453.388 Z M165.183,453.388 C165.183,452.855997 165.257666,452.359002 165.407,451.897 C165.556334,451.434998 165.780332,451.033668 166.079,450.693 C166.377668,450.352332 166.746331,450.084001 167.185,449.888 C167.623669,449.691999 168.127664,449.594 168.697,449.594 C169.27567,449.594 169.781998,449.691999 170.216,449.888 C170.650002,450.084001 171.016332,450.352332 171.315,450.693 C171.613668,451.033668 171.837666,451.434998 171.987,451.897 C172.136334,452.359002 172.211,452.855997 172.211,453.388 C172.211,453.920003 172.136334,454.414664 171.987,454.872 C171.837666,455.329336 171.613668,455.728332 171.315,456.069 C171.016332,456.409668 170.650002,456.675666 170.216,456.867 C169.781998,457.058334 169.27567,457.154 168.697,457.154 C168.127664,457.154 167.623669,457.058334 167.185,456.867 C166.746331,456.675666 166.377668,456.409668 166.079,456.069 C165.780332,455.728332 165.556334,455.329336 165.407,454.872 C165.257666,454.414664 165.183,453.920003 165.183,453.388 Z M173.653,449.762 L174.843,449.762 L174.843,450.742 L174.871,450.742 C175.067001,450.340665 175.374998,450.049001 175.795,449.867 C176.215002,449.684999 176.676997,449.594 177.181,449.594 C177.741003,449.594 178.228665,449.696666 178.644,449.902 C179.059335,450.107334 179.404665,450.384998 179.68,450.735 C179.955335,451.085002 180.162999,451.488664 180.303,451.946 C180.443001,452.403336 180.513,452.888664 180.513,453.402 C180.513,453.915336 180.445334,454.400664 180.31,454.858 C180.174666,455.315336 179.969335,455.714332 179.694,456.055 C179.418665,456.395668 179.073335,456.663999 178.658,456.86 C178.242665,457.056001 177.759669,457.154 177.209,457.154 C177.031666,457.154 176.833334,457.135334 176.614,457.098 C176.394666,457.060666 176.177668,457 175.963,456.916 C175.748332,456.832 175.545334,456.717667 175.354,456.573 C175.162666,456.428333 175.001667,456.248668 174.871,456.034 L174.843,456.034 L174.843,459.758 L173.653,459.758 L173.653,449.762 Z M179.253,453.318 C179.253,452.981998 179.208667,452.653002 179.12,452.331 C179.031333,452.008998 178.896001,451.722001 178.714,451.47 C178.531999,451.217999 178.298668,451.017334 178.014,450.868 C177.729332,450.718666 177.395669,450.644 177.013,450.644 C176.611665,450.644 176.271001,450.723333 175.991,450.882 C175.710999,451.040667 175.482334,451.248332 175.305,451.505 C175.127666,451.761668 174.999334,452.053332 174.92,452.38 C174.840666,452.706668 174.801,453.037998 174.801,453.374 C174.801,453.728668 174.843,454.071665 174.927,454.403 C175.011,454.734335 175.143999,455.025999 175.326,455.278 C175.508001,455.530001 175.743665,455.732999 176.033,455.887 C176.322335,456.041001 176.672331,456.118 177.083,456.118 C177.493669,456.118 177.836665,456.038667 178.112,455.88 C178.387335,455.721333 178.608999,455.511335 178.777,455.25 C178.945001,454.988665 179.066333,454.690002 179.141,454.354 C179.215667,454.017998 179.253,453.672668 179.253,453.318 Z M182.781,453.444 C182.781,453.780002 182.825333,454.108998 182.914,454.431 C183.002667,454.753002 183.137999,455.039999 183.32,455.292 C183.502001,455.544001 183.735332,455.744666 184.02,455.894 C184.304668,456.043334 184.638331,456.118 185.021,456.118 C185.422335,456.118 185.762999,456.038667 186.043,455.88 C186.323001,455.721333 186.551666,455.513668 186.729,455.257 C186.906334,455.000332 187.034666,454.708668 187.114,454.382 C187.193334,454.055332 187.233,453.724002 187.233,453.388 C187.233,453.033332 187.191,452.690335 187.107,452.359 C187.023,452.027665 186.890001,451.736001 186.708,451.484 C186.525999,451.231999 186.290335,451.029001 186.001,450.875 C185.711665,450.720999 185.361669,450.644 184.951,450.644 C184.549665,450.644 184.209001,450.723333 183.929,450.882 C183.648999,451.040667 183.425001,451.250665 183.257,451.512 C183.088999,451.773335 182.967667,452.071998 182.893,452.408 C182.818333,452.744002 182.781,453.089332 182.781,453.444 Z M188.381,459.758 L187.191,459.758 L187.191,456.02 L187.163,456.02 C186.966999,456.421335 186.659002,456.710666 186.239,456.888 C185.818998,457.065334 185.357003,457.154 184.853,457.154 C184.292997,457.154 183.805335,457.051334 183.39,456.846 C182.974665,456.640666 182.629335,456.365335 182.354,456.02 C182.078665,455.674665 181.871001,455.273336 181.731,454.816 C181.590999,454.358664 181.521,453.873336 181.521,453.36 C181.521,452.846664 181.588666,452.361336 181.724,451.904 C181.859334,451.446664 182.064665,451.047668 182.34,450.707 C182.615335,450.366332 182.960665,450.095668 183.376,449.895 C183.791335,449.694332 184.274331,449.594 184.825,449.594 C185.011668,449.594 185.212332,449.612666 185.427,449.65 C185.641668,449.687334 185.856332,449.750333 186.071,449.839 C186.285668,449.927667 186.488666,450.044333 186.68,450.189 C186.871334,450.333667 187.032333,450.513332 187.163,450.728 L187.191,450.728 L187.191,449.762 L188.381,449.762 L188.381,459.758 Z M190.173,449.762 L191.293,449.762 L191.293,451.288 L191.321,451.288 C191.610335,450.699997 191.964998,450.266001 192.385,449.986 C192.805002,449.705999 193.336997,449.575333 193.981,449.594 L193.981,450.854 C193.504998,450.854 193.099002,450.919333 192.763,451.05 C192.426998,451.180667 192.156334,451.371999 191.951,451.624 C191.745666,451.876001 191.596334,452.181665 191.503,452.541 C191.409666,452.900335 191.363,453.313331 191.363,453.78 L191.363,457 L190.173,457 L190.173,449.762 Z M195.605,454.718 C195.614333,454.979335 195.674999,455.200999 195.787,455.383 C195.899001,455.565001 196.045999,455.709666 196.228,455.817 C196.410001,455.924334 196.615332,456.001333 196.844,456.048 C197.072668,456.094667 197.308332,456.118 197.551,456.118 C197.737668,456.118 197.933666,456.104 198.139,456.076 C198.344334,456.048 198.533332,455.996667 198.706,455.922 C198.878668,455.847333 199.020999,455.737667 199.133,455.593 C199.245001,455.448333 199.301,455.264001 199.301,455.04 C199.301,454.731998 199.184335,454.498667 198.951,454.34 C198.717666,454.181333 198.426002,454.053 198.076,453.955 C197.725998,453.857 197.345669,453.768334 196.935,453.689 C196.524331,453.609666 196.144002,453.497667 195.794,453.353 C195.443998,453.208333 195.152335,453.005335 194.919,452.744 C194.685666,452.482665 194.569,452.118669 194.569,451.652 C194.569,451.287998 194.650666,450.975335 194.814,450.714 C194.977334,450.452665 195.187332,450.240334 195.444,450.077 C195.700668,449.913666 195.989998,449.792334 196.312,449.713 C196.634002,449.633666 196.953665,449.594 197.271,449.594 C197.681669,449.594 198.059665,449.629 198.405,449.699 C198.750335,449.769 199.055999,449.890332 199.322,450.063 C199.588001,450.235668 199.800333,450.468999 199.959,450.763 C200.117667,451.057001 200.211,451.423331 200.239,451.862 L199.049,451.862 C199.030333,451.628666 198.969667,451.435001 198.867,451.281 C198.764333,451.126999 198.633667,451.003334 198.475,450.91 C198.316333,450.816666 198.141334,450.749 197.95,450.707 C197.758666,450.665 197.565001,450.644 197.369,450.644 C197.191666,450.644 197.012001,450.658 196.83,450.686 C196.647999,450.714 196.482334,450.763 196.333,450.833 C196.183666,450.903 196.062334,450.996333 195.969,451.113 C195.875666,451.229667 195.829,451.381332 195.829,451.568 C195.829,451.773334 195.901333,451.943666 196.046,452.079 C196.190667,452.214334 196.374999,452.326333 196.599,452.415 C196.823001,452.503667 197.074999,452.578333 197.355,452.639 C197.635001,452.699667 197.914999,452.762666 198.195,452.828 C198.493668,452.893334 198.785332,452.972666 199.07,453.066 C199.354668,453.159334 199.606666,453.282999 199.826,453.437 C200.045334,453.591001 200.222666,453.784666 200.358,454.018 C200.493334,454.251334 200.561,454.540665 200.561,454.886 C200.561,455.324669 200.470001,455.688665 200.288,455.978 C200.105999,456.267335 199.868001,456.500666 199.574,456.678 C199.279999,456.855334 198.948669,456.979 198.58,457.049 C198.211331,457.119 197.845002,457.154 197.481,457.154 C197.079665,457.154 196.697002,457.112 196.333,457.028 C195.968998,456.944 195.647001,456.806334 195.367,456.615 C195.086999,456.423666 194.863001,456.171668 194.695,455.859 C194.526999,455.546332 194.433667,455.166002 194.415,454.718 L195.605,454.718 Z M203.529,449.762 L204.971,449.762 L204.971,450.812 L203.529,450.812 L203.529,455.306 C203.529,455.446001 203.540667,455.558 203.564,455.642 C203.587333,455.726 203.631666,455.791333 203.697,455.838 C203.762334,455.884667 203.853333,455.915 203.97,455.929 C204.086667,455.943 204.238332,455.95 204.425,455.95 L204.971,455.95 L204.971,457 L204.061,457 C203.752998,457 203.489334,456.979 203.27,456.937 C203.050666,456.895 202.873334,456.818001 202.738,456.706 C202.602666,456.593999 202.502334,456.435334 202.437,456.23 C202.371666,456.024666 202.339,455.754002 202.339,455.418 L202.339,450.812 L201.107,450.812 L201.107,449.762 L202.339,449.762 L202.339,447.592 L203.529,447.592 L203.529,449.762 Z M212.279,457 L211.159,457 L211.159,455.852 L211.131,455.852 C210.878999,456.300002 210.557002,456.628999 210.165,456.839 C209.772998,457.049001 209.311003,457.154 208.779,457.154 C208.302998,457.154 207.906335,457.091001 207.589,456.965 C207.271665,456.838999 207.015001,456.659334 206.819,456.426 C206.622999,456.192665 206.485334,455.915002 206.406,455.593 C206.326666,455.270998 206.287,454.914002 206.287,454.522 L206.287,449.762 L207.477,449.762 L207.477,454.662 C207.477,455.110002 207.607665,455.464665 207.869,455.726 C208.130335,455.987335 208.489664,456.118 208.947,456.118 C209.311002,456.118 209.625999,456.062001 209.892,455.95 C210.158001,455.837999 210.379666,455.679334 210.557,455.474 C210.734334,455.268666 210.867333,455.028335 210.956,454.753 C211.044667,454.477665 211.089,454.176668 211.089,453.85 L211.089,449.762 L212.279,449.762 L212.279,457 Z M217.333,457 L216.059,457 L213.371,449.762 L214.701,449.762 L216.731,455.796 L216.759,455.796 L218.733,449.762 L219.979,449.762 L217.333,457 Z M228.239,457 L226.979,457 L225.509,451.246 L225.481,451.246 L224.025,457 L222.737,457 L220.413,449.762 L221.729,449.762 L223.367,455.684 L223.395,455.684 L224.851,449.762 L226.153,449.762 L227.665,455.684 L227.693,455.684 L229.317,449.762 L230.549,449.762 L228.239,457 Z M233.629,453.192 L231.109,449.762 L232.635,449.762 L234.371,452.296 L236.177,449.762 L237.605,449.762 L235.113,453.094 L237.913,457 L236.387,457 L234.371,454.004 L232.355,457 L230.913,457 L233.629,453.192 Z M241.777,457.966 C241.636999,458.320668 241.499334,458.619332 241.364,458.862 C241.228666,459.104668 241.079334,459.302999 240.916,459.457 C240.752666,459.611001 240.570668,459.723 240.37,459.793 C240.169332,459.863 239.938335,459.898 239.677,459.898 C239.536999,459.898 239.397001,459.888667 239.257,459.87 C239.116999,459.851333 238.981667,459.818667 238.851,459.772 L238.851,458.68 C238.953667,458.726667 239.072666,458.766333 239.208,458.799 C239.343334,458.831667 239.457666,458.848 239.551,458.848 C239.793668,458.848 239.996666,458.789667 240.16,458.673 C240.323334,458.556333 240.447,458.390668 240.531,458.176 L241.021,456.958 L238.151,449.762 L239.495,449.762 L241.609,455.684 L241.637,455.684 L243.667,449.762 L244.927,449.762 L241.777,457.966 Z M245.347,456.09 L249.715,450.812 L245.627,450.812 L245.627,449.762 L251.255,449.762 L251.255,450.574 L246.831,455.95 L251.451,455.95 L251.451,457 L245.347,457 L245.347,456.09 Z M123.428,477.114 C123.428,477.487335 123.439667,477.904998 123.463,478.367 C123.486333,478.829002 123.560999,479.262998 123.687,479.669 C123.813001,480.075002 124.015999,480.417999 124.296,480.698 C124.576001,480.978001 124.967997,481.118 125.472,481.118 C125.976003,481.118 126.367999,480.978001 126.648,480.698 C126.928001,480.417999 127.130999,480.075002 127.257,479.669 C127.383001,479.262998 127.457667,478.829002 127.481,478.367 C127.504333,477.904998 127.516,477.487335 127.516,477.114 C127.516,476.871332 127.513667,476.603001 127.509,476.309 C127.504333,476.014999 127.481,475.721001 127.439,475.427 C127.397,475.132999 127.336334,474.846001 127.257,474.566 C127.177666,474.285999 127.061001,474.041001 126.907,473.831 C126.752999,473.620999 126.559334,473.450667 126.326,473.32 C126.092665,473.189333 125.808002,473.124 125.472,473.124 C125.135998,473.124 124.851335,473.189333 124.618,473.32 C124.384665,473.450667 124.191001,473.620999 124.037,473.831 C123.882999,474.041001 123.766334,474.285999 123.687,474.566 C123.607666,474.846001 123.547,475.132999 123.505,475.427 C123.463,475.721001 123.439667,476.014999 123.435,476.309 C123.430333,476.603001 123.428,476.871332 123.428,477.114 Z M122.168,477.128 C122.168,476.763998 122.177333,476.386002 122.196,475.994 C122.214667,475.601998 122.261333,475.219335 122.336,474.846 C122.410667,474.472665 122.517999,474.118002 122.658,473.782 C122.798001,473.445998 122.989332,473.152001 123.232,472.9 C123.474668,472.647999 123.780331,472.447334 124.149,472.298 C124.517669,472.148666 124.958664,472.074 125.472,472.074 C125.985336,472.074 126.426331,472.148666 126.795,472.298 C127.163669,472.447334 127.469332,472.647999 127.712,472.9 C127.954668,473.152001 128.145999,473.445998 128.286,473.782 C128.426001,474.118002 128.533333,474.472665 128.608,474.846 C128.682667,475.219335 128.729333,475.601998 128.748,475.994 C128.766667,476.386002 128.776,476.763998 128.776,477.128 C128.776,477.492002 128.766667,477.869998 128.748,478.262 C128.729333,478.654002 128.682667,479.036665 128.608,479.41 C128.533333,479.783335 128.426001,480.135665 128.286,480.467 C128.145999,480.798335 127.954668,481.089999 127.712,481.342 C127.469332,481.594001 127.166002,481.792333 126.802,481.937 C126.437998,482.081667 125.994669,482.154 125.472,482.154 C124.958664,482.154 124.517669,482.081667 124.149,481.937 C123.780331,481.792333 123.474668,481.594001 123.232,481.342 C122.989332,481.089999 122.798001,480.798335 122.658,480.467 C122.517999,480.135665 122.410667,479.783335 122.336,479.41 C122.261333,479.036665 122.214667,478.654002 122.196,478.262 C122.177333,477.869998 122.168,477.492002 122.168,477.128 Z M134.348,482 L133.158,482 L133.158,474.888 L130.582,474.888 L130.582,473.936 C130.918002,473.936 131.244665,473.910334 131.562,473.859 C131.879335,473.807666 132.166332,473.712001 132.423,473.572 C132.679668,473.431999 132.896666,473.240668 133.074,472.998 C133.251334,472.755332 133.372666,472.447335 133.438,472.074 L134.348,472.074 L134.348,482 Z M137.764,475.588 C137.736,475.083997 137.787333,474.617335 137.918,474.188 C138.048667,473.758665 138.251665,473.387668 138.527,473.075 C138.802335,472.762332 139.145331,472.517334 139.556,472.34 C139.966669,472.162666 140.433331,472.074 140.956,472.074 C141.385335,472.074 141.788998,472.136999 142.167,472.263 C142.545002,472.389001 142.873999,472.570999 143.154,472.809 C143.434001,473.047001 143.655666,473.343332 143.819,473.698 C143.982334,474.052668 144.064,474.463331 144.064,474.93 C144.064,475.368669 143.996334,475.755998 143.861,476.092 C143.725666,476.428002 143.546001,476.728999 143.322,476.995 C143.097999,477.261001 142.841335,477.501332 142.552,477.716 C142.262665,477.930668 141.964002,478.135999 141.656,478.332 C141.347998,478.518668 141.040002,478.702999 140.732,478.885 C140.423998,479.067001 140.141668,479.260666 139.885,479.466 C139.628332,479.671334 139.409001,479.892999 139.227,480.131 C139.044999,480.369001 138.926,480.641998 138.87,480.95 L143.966,480.95 L143.966,482 L137.484,482 C137.530667,481.411997 137.635666,480.910335 137.799,480.495 C137.962334,480.079665 138.169999,479.718002 138.422,479.41 C138.674001,479.101998 138.958665,478.831335 139.276,478.598 C139.593335,478.364666 139.924665,478.145334 140.27,477.94 C140.690002,477.678665 141.058665,477.438334 141.376,477.219 C141.693335,476.999666 141.956999,476.778001 142.167,476.554 C142.377001,476.329999 142.535666,476.087335 142.643,475.826 C142.750334,475.564665 142.804,475.261335 142.804,474.916 C142.804,474.645332 142.752667,474.400334 142.65,474.181 C142.547333,473.961666 142.409668,473.772667 142.237,473.614 C142.064332,473.455333 141.861334,473.334 141.628,473.25 C141.394666,473.166 141.147335,473.124 140.886,473.124 C140.540665,473.124 140.244335,473.196333 139.997,473.341 C139.749665,473.485667 139.546667,473.674666 139.388,473.908 C139.229333,474.141334 139.115,474.404999 139.045,474.699 C138.975,474.993001 138.944667,475.289332 138.954,475.588 L137.764,475.588 Z M147.984,476.33 C148.030667,476.339333 148.072666,476.344 148.11,476.344 L148.502,476.344 C148.754001,476.344 148.994332,476.309 149.223,476.239 C149.451668,476.169 149.652332,476.066334 149.825,475.931 C149.997668,475.795666 150.135333,475.625334 150.238,475.42 C150.340667,475.214666 150.392,474.981335 150.392,474.72 C150.392,474.187997 150.224002,473.789001 149.888,473.523 C149.551998,473.256999 149.132003,473.124 148.628,473.124 C148.310665,473.124 148.033001,473.182333 147.795,473.299 C147.556999,473.415667 147.361001,473.571999 147.207,473.768 C147.052999,473.964001 146.938667,474.192665 146.864,474.454 C146.789333,474.715335 146.752,474.990665 146.752,475.28 L145.562,475.28 C145.580667,474.803998 145.657666,474.370002 145.793,473.978 C145.928334,473.585998 146.121999,473.250001 146.374,472.97 C146.626001,472.689999 146.940998,472.470667 147.319,472.312 C147.697002,472.153333 148.133331,472.074 148.628,472.074 C149.057335,472.074 149.456331,472.127666 149.825,472.235 C150.193669,472.342334 150.513332,472.503332 150.784,472.718 C151.054668,472.932668 151.266999,473.207998 151.421,473.544 C151.575001,473.880002 151.652,474.276664 151.652,474.734 C151.652,475.182002 151.521335,475.578665 151.26,475.924 C150.998665,476.269335 150.672002,476.530666 150.28,476.708 L150.28,476.736 C150.88667,476.866667 151.336999,477.151331 151.631,477.59 C151.925001,478.028669 152.072,478.546664 152.072,479.144 C152.072,479.638669 151.981001,480.074998 151.799,480.453 C151.616999,480.831002 151.372002,481.145999 151.064,481.398 C150.755998,481.650001 150.394335,481.838999 149.979,481.965 C149.563665,482.091001 149.122669,482.154 148.656,482.154 C148.151997,482.154 147.694669,482.084001 147.284,481.944 C146.873331,481.803999 146.523335,481.596335 146.234,481.321 C145.944665,481.045665 145.723001,480.707335 145.569,480.306 C145.414999,479.904665 145.342667,479.447336 145.352,478.934 L146.542,478.934 C146.560667,479.578003 146.747332,480.102998 147.102,480.509 C147.456668,480.915002 147.974663,481.118 148.656,481.118 C148.945335,481.118 149.220665,481.073667 149.482,480.985 C149.743335,480.896333 149.971999,480.770334 150.168,480.607 C150.364001,480.443666 150.520333,480.243001 150.637,480.005 C150.753667,479.766999 150.812,479.498668 150.812,479.2 C150.812,478.891998 150.756001,478.619001 150.644,478.381 C150.531999,478.142999 150.382668,477.942334 150.196,477.779 C150.009332,477.615666 149.787668,477.494334 149.531,477.415 C149.274332,477.335666 148.996668,477.296 148.698,477.296 C148.445999,477.296 148.208001,477.31 147.984,477.338 L147.984,476.33 Z M157.462,478.626 L157.462,473.768 L157.434,473.768 L154.13,478.626 L157.462,478.626 Z M158.582,478.626 L159.926,478.626 L159.926,479.676 L158.582,479.676 L158.582,482 L157.462,482 L157.462,479.676 L153.108,479.676 L153.108,478.528 L157.63,472.074 L158.582,472.074 L158.582,478.626 Z M167.08,473.292 L163.076,473.292 L162.544,476.148 L162.572,476.176 C162.786668,475.933332 163.064332,475.753667 163.405,475.637 C163.745668,475.520333 164.083998,475.462 164.42,475.462 C164.858669,475.462 165.273998,475.531999 165.666,475.672 C166.058002,475.812001 166.398665,476.024332 166.688,476.309 C166.977335,476.593668 167.205999,476.948331 167.374,477.373 C167.542001,477.797669 167.626,478.294664 167.626,478.864 C167.626,479.284002 167.553667,479.692331 167.409,480.089 C167.264333,480.485669 167.047335,480.837998 166.758,481.146 C166.468665,481.454002 166.107002,481.698999 165.673,481.881 C165.238998,482.063001 164.73267,482.154 164.154,482.154 C163.724665,482.154 163.321002,482.091001 162.943,481.965 C162.564998,481.838999 162.231335,481.657001 161.942,481.419 C161.652665,481.180999 161.424001,480.884668 161.256,480.53 C161.087999,480.175332 160.999333,479.774002 160.99,479.326 L162.18,479.326 C162.198667,479.578001 162.261666,479.813666 162.369,480.033 C162.476334,480.252334 162.620999,480.443666 162.803,480.607 C162.985001,480.770334 163.199665,480.896333 163.447,480.985 C163.694335,481.073667 163.967332,481.118 164.266,481.118 C164.546001,481.118 164.814332,481.069 165.071,480.971 C165.327668,480.873 165.551666,480.726001 165.743,480.53 C165.934334,480.333999 166.085999,480.089001 166.198,479.795 C166.310001,479.500999 166.366,479.158002 166.366,478.766 C166.366,478.439332 166.312334,478.138335 166.205,477.863 C166.097666,477.587665 165.946001,477.349668 165.75,477.149 C165.553999,476.948332 165.318335,476.792001 165.043,476.68 C164.767665,476.567999 164.462002,476.512 164.126,476.512 C163.733998,476.512 163.386335,476.598332 163.083,476.771 C162.779665,476.943668 162.511335,477.169999 162.278,477.45 L161.256,477.394 L162.18,472.242 L167.08,472.242 L167.08,473.292 Z M174.08,474.608 C174.024,474.159998 173.851335,473.800668 173.562,473.53 C173.272665,473.259332 172.890002,473.124 172.414,473.124 C171.909997,473.124 171.504002,473.247665 171.196,473.495 C170.887998,473.742335 170.647668,474.054998 170.475,474.433 C170.302332,474.811002 170.183334,475.219331 170.118,475.658 C170.052666,476.096669 170.015333,476.507331 170.006,476.89 L170.034,476.918 C170.314001,476.460664 170.661665,476.129334 171.077,475.924 C171.492335,475.718666 171.970664,475.616 172.512,475.616 C172.988002,475.616 173.414998,475.697666 173.793,475.861 C174.171002,476.024334 174.488332,476.250665 174.745,476.54 C175.001668,476.829335 175.199999,477.169998 175.34,477.562 C175.480001,477.954002 175.55,478.378664 175.55,478.836 C175.55,479.200002 175.494001,479.577998 175.382,479.97 C175.269999,480.362002 175.085668,480.718998 174.829,481.041 C174.572332,481.363002 174.231669,481.628999 173.807,481.839 C173.382331,482.049001 172.857336,482.154 172.232,482.154 C171.494663,482.154 170.902002,482.004668 170.454,481.706 C170.005998,481.407332 169.660668,481.024669 169.418,480.558 C169.175332,480.091331 169.014334,479.578003 168.935,479.018 C168.855666,478.457997 168.816,477.916669 168.816,477.394 C168.816,476.712663 168.874333,476.052337 168.991,475.413 C169.107667,474.773663 169.305999,474.206669 169.586,473.712 C169.866001,473.217331 170.239331,472.820668 170.706,472.522 C171.172669,472.223332 171.760663,472.074 172.47,472.074 C173.291337,472.074 173.944664,472.290998 174.43,472.725 C174.915336,473.159002 175.195333,473.786663 175.27,474.608 L174.08,474.608 Z M172.288,476.666 C171.951998,476.666 171.658001,476.724333 171.406,476.841 C171.153999,476.957667 170.939334,477.116332 170.762,477.317 C170.584666,477.517668 170.451667,477.755665 170.363,478.031 C170.274333,478.306335 170.23,478.597998 170.23,478.906 C170.23,479.214002 170.276666,479.503332 170.37,479.774 C170.463334,480.044668 170.596332,480.277999 170.769,480.474 C170.941668,480.670001 171.156332,480.826333 171.413,480.943 C171.669668,481.059667 171.961332,481.118 172.288,481.118 C172.614668,481.118 172.901665,481.059667 173.149,480.943 C173.396335,480.826333 173.603999,480.665334 173.772,480.46 C173.940001,480.254666 174.068333,480.019001 174.157,479.753 C174.245667,479.486999 174.29,479.209335 174.29,478.92 C174.29,478.611998 174.250334,478.320335 174.171,478.045 C174.091666,477.769665 173.968001,477.531668 173.8,477.331 C173.631999,477.130332 173.422001,476.969334 173.17,476.848 C172.917999,476.726666 172.624002,476.666 172.288,476.666 Z M183.194,473.264 C182.689997,473.758669 182.218669,474.346663 181.78,475.028 C181.341331,475.709337 180.951668,476.437329 180.611,477.212 C180.270332,477.986671 179.992668,478.784663 179.778,479.606 C179.563332,480.427337 179.432667,481.225329 179.386,482 L178.056,482 C178.112,481.159996 178.249666,480.341004 178.469,479.543 C178.688334,478.744996 178.970665,477.97967 179.316,477.247 C179.661335,476.51433 180.060331,475.821337 180.513,475.168 C180.965669,474.514663 181.453331,473.912669 181.976,473.362 L176.768,473.362 L176.768,472.242 L183.194,472.242 L183.194,473.264 Z M186.022,474.65 C186.022,474.920668 186.068666,475.156332 186.162,475.357 C186.255334,475.557668 186.381333,475.723333 186.54,475.854 C186.698667,475.984667 186.885332,476.082666 187.1,476.148 C187.314668,476.213334 187.543332,476.246 187.786,476.246 C188.262002,476.246 188.653998,476.106001 188.962,475.826 C189.270002,475.545999 189.424,475.154003 189.424,474.65 C189.424,474.145997 189.267668,473.765668 188.955,473.509 C188.642332,473.252332 188.243336,473.124 187.758,473.124 C187.524666,473.124 187.300668,473.156666 187.086,473.222 C186.871332,473.287334 186.687001,473.385333 186.533,473.516 C186.378999,473.646667 186.255334,473.805332 186.162,473.992 C186.068666,474.178668 186.022,474.397999 186.022,474.65 Z M184.762,474.608 C184.762,474.197331 184.841333,473.835668 185,473.523 C185.158667,473.210332 185.373332,472.946668 185.644,472.732 C185.914668,472.517332 186.224998,472.354001 186.575,472.242 C186.925002,472.129999 187.291331,472.074 187.674,472.074 C188.215336,472.074 188.677331,472.146333 189.06,472.291 C189.442669,472.435667 189.752999,472.626999 189.991,472.865 C190.229001,473.103001 190.403999,473.373665 190.516,473.677 C190.628001,473.980335 190.684,474.290665 190.684,474.608 C190.684,475.056002 190.560335,475.464331 190.313,475.833 C190.065665,476.201669 189.732002,476.479332 189.312,476.666 C189.909336,476.852668 190.352665,477.158331 190.642,477.583 C190.931335,478.007669 191.076,478.527997 191.076,479.144 C191.076,479.629336 190.989668,480.058665 190.817,480.432 C190.644332,480.805335 190.411001,481.120332 190.117,481.377 C189.822999,481.633668 189.475335,481.827333 189.074,481.958 C188.672665,482.088667 188.243336,482.154 187.786,482.154 C187.309998,482.154 186.866669,482.093334 186.456,481.972 C186.045331,481.850666 185.688335,481.664001 185.385,481.412 C185.081665,481.159999 184.843668,480.845002 184.671,480.467 C184.498332,480.088998 184.412,479.648003 184.412,479.144 C184.412,478.555997 184.561332,478.045002 184.86,477.611 C185.158668,477.176998 185.587997,476.862001 186.148,476.666 C185.727998,476.497999 185.392001,476.225002 185.14,475.847 C184.887999,475.468998 184.762,475.056002 184.762,474.608 Z M185.672,479.2 C185.672,479.797336 185.870331,480.266332 186.267,480.607 C186.663669,480.947668 187.169997,481.118 187.786,481.118 C188.084668,481.118 188.357665,481.069 188.605,480.971 C188.852335,480.873 189.066999,480.737668 189.249,480.565 C189.431001,480.392332 189.571,480.189334 189.669,479.956 C189.767,479.722666 189.816,479.466001 189.816,479.186 C189.816,478.915332 189.762334,478.665668 189.655,478.437 C189.547666,478.208332 189.400668,478.010001 189.214,477.842 C189.027332,477.673999 188.810335,477.541 188.563,477.443 C188.315665,477.345 188.052001,477.296 187.772,477.296 C187.482665,477.296 187.209668,477.340333 186.953,477.429 C186.696332,477.517667 186.472334,477.645999 186.281,477.814 C186.089666,477.982001 185.940334,478.182665 185.833,478.416 C185.725666,478.649335 185.672,478.910665 185.672,479.2 Z M193.512,479.606 C193.558667,480.091336 193.754665,480.464665 194.1,480.726 C194.445335,480.987335 194.855998,481.118 195.332,481.118 C196.060004,481.118 196.605998,480.803003 196.97,480.173 C197.334002,479.542997 197.534666,478.57934 197.572,477.282 L197.544,477.254 C197.319999,477.674002 197.002669,478.007665 196.592,478.255 C196.181331,478.502335 195.733336,478.626 195.248,478.626 C194.743997,478.626 194.296002,478.544334 193.904,478.381 C193.511998,478.217666 193.183001,477.991335 192.917,477.702 C192.650999,477.412665 192.450334,477.062669 192.315,476.652 C192.179666,476.241331 192.112,475.793336 192.112,475.308 C192.112,474.831998 192.191333,474.395669 192.35,473.999 C192.508667,473.602331 192.732665,473.261668 193.022,472.977 C193.311335,472.692332 193.656665,472.470667 194.058,472.312 C194.459335,472.153333 194.897998,472.074 195.374,472.074 C195.840669,472.074 196.279331,472.146333 196.69,472.291 C197.100669,472.435667 197.459998,472.685332 197.768,473.04 C198.076002,473.394668 198.320999,473.877664 198.503,474.489 C198.685001,475.100336 198.776,475.877329 198.776,476.82 C198.776,478.537342 198.503003,479.855662 197.957,480.775 C197.410997,481.694338 196.536006,482.154 195.332,482.154 C194.501329,482.154 193.810669,481.944002 193.26,481.524 C192.709331,481.103998 192.396667,480.464671 192.322,479.606 L193.512,479.606 Z M197.362,475.392 C197.362,475.083998 197.317667,474.794668 197.229,474.524 C197.140333,474.253332 197.009668,474.013001 196.837,473.803 C196.664332,473.592999 196.452001,473.427334 196.2,473.306 C195.947999,473.184666 195.654002,473.124 195.318,473.124 C194.963332,473.124 194.662335,473.189333 194.415,473.32 C194.167665,473.450667 193.967001,473.625666 193.813,473.845 C193.658999,474.064334 193.547,474.313999 193.477,474.594 C193.407,474.874001 193.372,475.167998 193.372,475.476 C193.372,475.746668 193.421,476.007999 193.519,476.26 C193.617,476.512001 193.752332,476.735999 193.925,476.932 C194.097668,477.128001 194.302999,477.284333 194.541,477.401 C194.779001,477.517667 195.042665,477.576 195.332,477.576 C195.640002,477.576 195.919999,477.517667 196.172,477.401 C196.424001,477.284333 196.638666,477.125668 196.816,476.925 C196.993334,476.724332 197.128666,476.491001 197.222,476.225 C197.315334,475.958999 197.362,475.681335 197.362,475.392 Z" id="ABCDEFGHIJKLMNOPQRST"></path>
        </g>
    </g>
</svg>