<?xml version="1.0" encoding="UTF-8"?>
<svg width="276px" height="36px" viewBox="0 0 276 36" version="1.1" xmlns="http://www.w3.org/2000/svg" xmlns:xlink="http://www.w3.org/1999/xlink">
    <!-- Generator: Sketch 48.2 (47327) - http://www.bohemiancoding.com/sketch -->
    <title>logo_merchMAKER</title>
    <desc>Created with Sketch.</desc>
    <defs></defs>
    <g id="merchMAKER" stroke="none" stroke-width="1" fill="none" fill-rule="evenodd" transform="translate(-222.000000, -182.000000)">
        <g id="logo_merchMAKER" transform="translate(222.000000, 182.000000)" fill="#FFFFFF">
            <g id="Page-1">
                <path d="M2.89923767,34.8959172 L-0.000618834081,34.8959172 L-0.000618834081,9.79026207 L2.89923767,9.79026207 L2.89923767,13.5702621 L2.99577578,13.5702621 C3.73713901,12.1166069 4.7990583,11.0105379 6.18524664,10.2508138 C7.57019731,9.49233103 9.08386547,9.11122759 10.7274888,9.11122759 C11.8871839,9.11122759 12.8698924,9.24157241 13.6743767,9.49977931 C14.4800987,9.75798621 15.1645291,10.1055724 15.7289058,10.5412966 C16.2920448,10.9782621 16.7598834,11.4859862 17.1299462,12.0681931 C17.500009,12.6491586 17.8143767,13.2797793 18.0718117,13.9588138 C18.909713,12.3102621 20.0298027,11.0912276 21.430843,10.2992276 C22.8318834,9.50722759 24.4346637,9.11122759 26.2391839,9.11122759 C27.9459283,9.11122759 29.3073632,9.39426207 30.3222511,9.96033103 C31.337139,10.5251586 32.11687,11.2687448 32.665157,12.1898483 C33.2134439,13.1097103 33.574843,14.1686069 33.7530673,15.3640552 C33.9288161,16.5595034 34.0179283,17.7872276 34.0179283,19.0472276 L34.0179283,34.8959172 L31.1193094,34.8959172 L31.1193094,17.5451586 C31.1193094,15.7352276 30.740583,14.3138483 29.98313,13.2797793 C29.2269148,12.2457103 27.8172108,11.7292966 25.7552556,11.7292966 C24.6920987,11.7292966 23.6697848,11.9639172 22.6870762,12.4319172 C21.7043677,12.8999172 20.8429507,13.6186759 20.1015874,14.5881931 C19.7797937,15.0090207 19.5136951,15.5018483 19.3045291,16.0666759 C19.0941256,16.6327448 18.9258027,17.2224 18.7970852,17.8356414 C18.6683677,18.4501241 18.5792556,19.0646069 18.5309865,19.6778483 C18.4827175,20.2910897 18.4592018,20.8571586 18.4592018,21.3735724 L18.4592018,34.8959172 L15.5593453,34.8959172 L15.5593453,17.5451586 C15.5593453,15.7352276 15.1806188,14.3138483 14.4244036,13.2797793 C13.6669507,12.2457103 12.2572466,11.7292966 10.1952915,11.7292966 C9.13213453,11.7292966 8.10982063,11.9639172 7.12711211,12.4319172 C6.14440359,12.8999172 5.28298655,13.6186759 4.54162332,14.5881931 C4.2198296,15.0090207 3.95373094,15.5018483 3.74456502,16.0666759 C3.5353991,16.6327448 3.36583857,17.2224 3.23712108,17.8356414 C3.10840359,18.4501241 3.02052915,19.0646069 2.97226009,19.6778483 C2.92399103,20.2910897 2.89923767,20.8571586 2.89923767,21.3735724 L2.89923767,34.8959172 Z" id="Fill-1"></path>
                <path d="M58.758791,20.5984552 C58.758791,19.370731 58.5892305,18.2162483 58.2513471,17.1325241 C57.9134637,16.0512828 57.4134457,15.1140414 56.7537686,14.3220414 C56.0928538,13.5300414 55.2636161,12.9006621 54.2648179,12.4314207 C53.2660197,11.9634207 52.1224143,11.7288 50.8340018,11.7288 C49.5455892,11.7288 48.4094099,11.970869 47.427939,12.4562483 C46.4439928,12.9403862 45.6073291,13.5871448 44.914235,14.3952828 C44.2211408,15.2021793 43.6654278,16.1394207 43.247096,17.2057655 C42.8287641,18.2721103 42.5540018,19.4030069 42.426522,20.5984552 L58.758791,20.5984552 Z M42.426522,23.0216276 C42.426522,24.3784552 42.6022709,25.6632828 42.9574816,26.874869 C43.3114547,28.0864552 43.8349883,29.1366621 44.5280825,30.0254897 C45.219939,30.9143172 46.0986834,31.6243862 47.1618404,32.1581793 C48.2249973,32.690731 49.4490511,32.9576276 50.8340018,32.9576276 C52.7338224,32.9576276 54.3613561,32.4573517 55.7141274,31.4543172 C57.0681363,30.4537655 57.9691587,29.0311448 58.4209076,27.1901793 L61.6586475,27.1901793 C61.3034368,28.3856276 60.8368359,29.4916966 60.2563695,30.5096276 C59.6771408,31.5275586 58.9518673,32.4163862 58.0817865,33.174869 C57.2129435,33.9345931 56.1807283,34.5254897 54.9900915,34.9450759 C53.7969794,35.3634207 52.4120287,35.5744552 50.8340018,35.5744552 C48.8364054,35.5744552 47.1135713,35.2355586 45.6642619,34.5565241 C44.2137148,33.878731 43.0218404,32.9501793 42.0874009,31.7696276 C41.1529614,30.5903172 40.4611049,29.2012138 40.0105937,27.6023172 C39.5588448,26.0021793 39.3335892,24.2816276 39.3335892,22.4406621 C39.3335892,20.5984552 39.5996879,18.8704552 40.1306475,17.2541793 C40.6628448,15.6391448 41.4190601,14.2252138 42.4017686,13.0136276 C43.3844771,11.8020414 44.5837776,10.8486621 46.0021453,10.1534897 C47.4192753,9.45955862 49.0294816,9.11197241 50.8340018,9.11197241 C54.2809076,9.11197241 56.9864502,10.298731 58.9518673,12.674731 C60.9172843,15.0494897 61.8826655,18.4980414 61.8517238,23.0216276 L42.426522,23.0216276 Z" id="Fill-4"></path>
                <path d="M70.549313,34.8959172 L67.6494565,34.8959172 L67.6494565,9.79026207 L70.549313,9.79026207 L70.549313,14.4913655 L70.6458511,14.4913655 C71.4503354,12.4890207 72.4899767,11.0912276 73.7622996,10.2992276 C75.0346224,9.50722759 76.7178511,9.11122759 78.8119857,9.11122759 L78.8119857,12.2618483 C77.1696,12.2295724 75.8168287,12.4890207 74.7536717,13.0377103 C73.6905148,13.5876414 72.8451874,14.3299862 72.216452,15.2672276 C71.5877166,16.204469 71.1532951,17.3105379 70.9119498,18.5866759 C70.6706045,19.8640552 70.549313,21.1960552 70.549313,22.5851586 L70.549313,34.8959172 Z" id="Fill-6"></path>
                <path d="M101.329873,17.6902759 C100.813765,15.8170345 99.9288323,14.3546897 98.6725991,13.3044828 C97.4163659,12.2542759 95.8210117,11.7291724 93.887774,11.7291724 C92.4062852,11.7291724 91.1339623,12.0370345 90.0708054,12.6502759 C89.0076484,13.2635172 88.1375677,14.0791034 87.4618009,15.0970345 C86.7847964,16.1149655 86.2847785,17.262 85.9642224,18.5381379 C85.641191,19.8155172 85.4802942,21.0991034 85.4802942,22.3913793 C85.4802942,23.7171724 85.6325274,25.0082069 85.9394691,26.2694483 C86.2451731,27.5294483 86.7365274,28.6603448 87.4135318,29.6621379 C88.0892987,30.663931 88.9593794,31.4633793 90.0225363,32.0604828 C91.0856933,32.6588276 92.3741058,32.9567586 93.887774,32.9567586 C96.0462673,32.9567586 97.777765,32.3596552 99.0835049,31.1642069 C100.388007,29.9687586 101.216007,28.3214483 101.571218,26.2197931 L104.664151,26.2197931 C104.405478,27.6101379 103.994572,28.8788276 103.431433,30.0246207 C102.868294,31.1728966 102.143021,32.1573103 101.25685,32.9815862 C100.37068,33.8058621 99.3161865,34.443931 98.0921327,34.8957931 C96.8680789,35.3476552 95.4658009,35.5748276 93.887774,35.5748276 C91.8901776,35.5748276 90.1673435,35.2346897 88.7180341,34.5568966 C87.2687247,33.8778621 86.0756126,32.9493103 85.1424108,31.77 C84.2079713,30.5906897 83.5148771,29.1928966 83.0643659,27.5778621 C82.612617,25.9615862 82.3873614,24.2335862 82.3873614,22.3913793 C82.3873614,20.6472414 82.6373704,18.9751034 83.1373883,17.3749655 C83.6361686,15.776069 84.3688682,14.3633793 85.335487,13.1344138 C86.3021058,11.9066897 87.5014063,10.9297241 88.9358637,10.2022759 C90.3678457,9.47482759 92.0201327,9.11234483 93.887774,9.11234483 C96.7876305,9.11234483 99.131774,9.80751724 100.918967,11.1953793 C102.707397,12.5857241 103.826249,14.7506897 104.277998,17.6902759 L101.329873,17.6902759 Z" id="Fill-8"></path>
                <path d="M110.462626,34.8959172 L110.462626,-0.000496551724 L113.362483,-0.000496551724 L113.362483,13.2797793 C114.522178,12.0520552 115.721478,11.0502621 116.961622,10.2744 C118.201765,9.49977931 119.691917,9.11122759 121.432079,9.11122759 C122.977926,9.11122759 124.411146,9.37812414 125.731738,9.91191724 C127.05233,10.444469 128.163756,11.3742621 129.066016,12.6988138 C129.678662,13.6037793 130.040061,14.532331 130.153926,15.484469 C130.266554,16.4390897 130.323487,17.4321931 130.323487,18.4662621 L130.323487,34.8959172 L127.42363,34.8959172 L127.42363,18.5146759 C127.42363,16.2528828 126.923613,14.5571586 125.926052,13.4250207 C124.927254,12.2941241 123.267541,11.7292966 120.948151,11.7292966 C120.045891,11.7292966 119.225317,11.8670897 118.483953,12.1414345 C117.74259,12.4157793 117.074249,12.7795034 116.478931,13.2313655 C115.882375,13.684469 115.374931,14.2008828 114.956599,14.7818483 C114.53703,15.3640552 114.215236,15.9785379 113.98998,16.6240552 C113.700366,17.4321931 113.522142,18.2080552 113.459021,18.9504 C113.393424,19.6939862 113.362483,20.5008828 113.362483,21.3735724 L113.362483,34.8959172 L110.462626,34.8959172 Z" id="Fill-11"></path>
                <polygon id="Fill-14" points="148.491837 0.290855172 152.115729 20.7922345 152.212267 20.7922345 155.83616 0.290855172 168.690581 0.290855172 168.690581 34.8955448 160.281864 34.8955448 160.281864 9.11209655 160.185326 9.11209655 155.401738 34.8955448 148.926258 34.8955448 144.142671 9.11209655 144.046133 9.11209655 144.046133 34.8955448 135.638653 34.8955448 135.638653 0.290855172"></polygon>
                <path d="M183.863031,7.36696552 L181.398834,22.0524828 L186.423767,22.0524828 L183.95957,7.36696552 L183.863031,7.36696552 Z M189.564969,0.291103448 L197.972448,34.8957931 L188.405274,34.8957931 L187.486924,28.8378621 L180.335677,28.8378621 L179.417327,34.8957931 L169.99496,34.8957931 L178.257632,0.291103448 L189.564969,0.291103448 Z" id="Fill-16"></path>
                <polygon id="Fill-18" points="208.120585 0.290855172 208.120585 13.571131 208.217123 13.571131 214.885679 0.290855172 224.452854 0.290855172 215.75576 15.4120966 225.516011 34.8955448 215.271831 34.8955448 210.005553 22.8280966 208.120585 25.7354069 208.120585 34.8955448 199.132639 34.8955448 199.132639 0.290855172"></polygon>
                <polygon id="Fill-20" points="246.777912 0.290855172 246.777912 7.6572 235.325769 7.6572 235.325769 13.571131 246.052639 13.571131 246.052639 20.6469931 235.325769 20.6469931 235.325769 27.5292 247.212334 27.5292 247.212334 34.8955448 226.337822 34.8955448 226.337822 0.290855172"></polygon>
                <path d="M261.274348,14.9278345 C262.562761,14.9278345 263.51329,14.5479724 264.124698,13.7894897 C264.737343,13.0297655 265.043048,12.0366621 265.043048,10.8076966 C265.043048,9.35404138 264.74477,8.31997241 264.149451,7.70673103 C263.552895,7.09224828 262.57885,6.78562759 261.226079,6.78562759 L259.485917,6.78562759 L259.485917,14.9278345 L261.274348,14.9278345 Z M264.560357,0.290731034 C266.267101,0.290731034 267.725074,0.516662069 268.933039,0.969765517 C270.141003,1.42162759 271.123711,2.05969655 271.881164,2.88397241 C272.637379,3.70824828 273.185666,4.68521379 273.52355,5.81611034 C273.862671,6.9470069 274.030994,8.17473103 274.030994,9.49928276 C274.030994,11.8256276 273.564393,13.7001103 272.629953,15.1214897 C271.695514,16.5441103 270.196698,17.4168 268.13598,17.7383172 L268.13598,17.8363862 C270.293236,18.0300414 271.775962,18.7897655 272.581684,20.1143172 C273.386169,21.438869 273.789648,23.2636966 273.789648,25.5900414 L273.789648,28.5470069 L273.789648,29.9522483 C273.789648,30.4376276 273.805738,30.8969379 273.837917,31.3339034 C273.870097,31.7696276 273.918366,32.1656276 273.982725,32.5206621 C274.047083,32.8769379 274.127532,33.1512828 274.22407,33.3449379 C274.352787,33.5385931 274.481505,33.7248 274.61146,33.9023172 C274.73894,34.0798345 274.949343,34.2499034 275.238958,34.4112828 L275.238958,34.8954207 L265.671783,34.8954207 C265.44529,34.4435586 265.276967,33.9110069 265.164339,33.2965241 C265.050474,32.6832828 264.971263,32.0688 264.922994,31.4543172 C264.874725,30.8410759 264.841308,30.2514207 264.826456,29.6853517 C264.809128,29.1205241 264.801702,28.6599724 264.801702,28.3049379 L264.801702,25.9785931 C264.801702,25.0090759 264.753433,24.2021793 264.656895,23.5554207 C264.560357,22.9086621 264.390796,22.3996966 264.149451,22.0285241 C263.908106,21.6573517 263.601164,21.3979034 263.231101,21.2526621 C262.861039,21.1074207 262.401864,21.0341793 261.854814,21.0341793 L259.485917,21.0341793 L259.485917,34.8954207 L250.499209,34.8954207 L250.499209,0.290731034 L264.560357,0.290731034 Z" id="Fill-22"></path>
            </g>
        </g>
    </g>
</svg>