<?xml version="1.0" encoding="UTF-8"?>
<svg width="482px" height="120px" viewBox="0 0 482 120" version="1.1" xmlns="http://www.w3.org/2000/svg" xmlns:xlink="http://www.w3.org/1999/xlink">
    <!-- Generator: Sketch 48.2 (47327) - http://www.bohemiancoding.com/sketch -->
    <title>Primary Logo R</title>
    <desc>Created with Sketch.</desc>
    <defs></defs>
    <g id="Choosey" stroke="none" stroke-width="1" fill="none" fill-rule="evenodd" transform="translate(-479.000000, -2674.000000)">
        <g id="Primary-Logo-R" transform="translate(480.000000, 2674.000000)">
            <path d="M199.709388,50.3811321 C203.42751,46.6649057 205.288837,42.1222642 205.288837,36.8566038 C205.288837,31.5909434 203.42751,27.0460377 199.709388,23.3290566 C195.991265,19.509434 191.549755,17.6513208 186.279898,17.6513208 C181.010796,17.6513208 176.569286,19.509434 172.952347,23.3290566 C169.337673,27.0460377 167.478612,31.5909434 167.478612,36.8566038 C167.478612,42.1222642 169.337673,46.6649057 172.952347,50.3811321 C176.569286,54.0981132 181.010796,55.9584906 186.279898,55.9584906 C191.549755,55.9584906 196.094714,54.0981132 199.709388,50.3811321 M160.556592,11.0430189 C167.684,3.91849057 176.258184,0.304150943 186.279898,0.304150943 C196.403551,0.304150943 204.977735,3.91849057 212.002449,11.0430189 C219.129857,18.1667925 222.642592,26.7366038 222.642592,36.8566038 C222.642592,46.8716981 219.129857,55.5441509 212.002449,62.6679245 C204.977735,69.7932075 196.403551,73.3049057 186.279898,73.3049057 C176.258184,73.3049057 167.787449,69.7932075 160.660796,62.6679245 C153.531878,55.5441509 150.019143,46.8716981 150.019143,36.8566038 C150.019143,26.7366038 153.531878,18.1667925 160.556592,11.0430189" id="Fill-1" fill="#DB5A5B"></path>
            <path d="M255.996959,50.3811321 C259.715082,46.6649057 261.576408,42.1222642 261.576408,36.8566038 C261.576408,31.5909434 259.715082,27.0460377 255.996959,23.3290566 C252.278837,19.509434 247.836571,17.6513208 242.568224,17.6513208 C237.297612,17.6513208 232.856857,19.509434 229.239918,23.3290566 C225.625245,27.0460377 223.766184,31.5909434 223.766184,36.8566038 C223.766184,42.1222642 225.625245,46.6649057 229.239918,50.3811321 C232.856857,54.0981132 237.297612,55.9584906 242.568224,55.9584906 C247.836571,55.9584906 252.382286,54.0981132 255.996959,50.3811321 M216.844163,11.0430189 C223.971571,3.91849057 232.545755,0.304150943 242.568224,0.304150943 C252.691122,0.304150943 261.265306,3.91849057 268.291531,11.0430189 C275.417429,18.1667925 278.931673,26.7366038 278.931673,36.8566038 C278.931673,46.8716981 275.417429,55.5441509 268.291531,62.6679245 C261.265306,69.7932075 252.691122,73.3049057 242.568224,73.3049057 C232.545755,73.3049057 224.07502,69.7932075 216.947612,62.6679245 C209.819449,55.5441509 206.308224,46.8716981 206.308224,36.8566038 C206.308224,26.7366038 209.819449,18.1667925 216.844163,11.0430189" id="Fill-2" fill="#DB5A5B"></path>
            <path d="M214.352327,120 C199.013939,120 184.588469,114.031698 173.741429,103.190943 C169.022796,98.469434 169.022796,90.8249057 173.741429,86.1056604 C178.467612,81.3879245 186.117551,81.3879245 190.836184,86.1056604 C197.116367,92.3818868 205.472327,95.8407547 214.352327,95.8407547 C223.231571,95.8407547 231.590551,92.3818868 237.868469,86.1056604 C242.591633,81.3879245 250.240061,81.3879245 254.963224,86.1056604 C259.684878,90.8249057 259.684878,98.469434 254.963224,103.190943 C244.115429,114.029434 229.69449,120 214.352327,120" id="Fill-3" fill="#F6CB71"></path>
            <path d="M0.37755102,37.1275472 L0.37755102,36.9275472 C0.37755102,16.9735849 15.4259796,0.629433962 36.9947143,0.629433962 C47.5283878,0.629433962 54.6512653,3.43698113 60.4700816,7.74867925 C62.0754286,8.95169811 63.4799184,11.1577358 63.4799184,13.8656604 C63.4799184,18.0769811 60.0691224,21.3856604 55.8556531,21.3856604 C53.7489184,21.3856604 52.3444286,20.5833962 51.2404694,19.8815094 C46.9265714,16.6724528 42.4125714,14.8679245 36.8942857,14.8679245 C25.056551,14.8679245 16.5291837,24.6943396 16.5291837,36.7267925 L16.5291837,36.9275472 C16.5291837,48.96 24.856449,58.9871698 36.8942857,58.9871698 C43.4153469,58.9871698 47.7292449,56.9811321 52.1435714,53.4724528 C53.3472041,52.469434 54.952551,51.7675472 56.758,51.7675472 C60.6709388,51.7675472 63.9813061,54.9758491 63.9813061,58.8867925 C63.9813061,61.2928302 62.7776735,63.1984906 61.3731837,64.4015094 C55.0529796,69.9162264 47.6288163,73.2249057 36.392898,73.2249057 C15.7265102,73.2249057 0.37755102,57.2822642 0.37755102,37.1275472" id="Fill-4" fill="#DB5A5B"></path>
            <path d="M0.37755102,37.1275472 L0.37755102,36.9275472 C0.37755102,16.9735849 15.4259796,0.629433962 36.9947143,0.629433962 C47.5283878,0.629433962 54.6512653,3.43698113 60.4700816,7.74867925 C62.0754286,8.95169811 63.4799184,11.1577358 63.4799184,13.8656604 C63.4799184,18.0769811 60.0691224,21.3856604 55.8556531,21.3856604 C53.7489184,21.3856604 52.3444286,20.5833962 51.2404694,19.8815094 C46.9265714,16.6724528 42.4125714,14.8679245 36.8942857,14.8679245 C25.056551,14.8679245 16.5291837,24.6943396 16.5291837,36.7267925 L16.5291837,36.9275472 C16.5291837,48.96 24.856449,58.9871698 36.8942857,58.9871698 C43.4153469,58.9871698 47.7292449,56.9811321 52.1435714,53.4724528 C53.3472041,52.469434 54.952551,51.7675472 56.758,51.7675472 C60.6709388,51.7675472 63.9813061,54.9758491 63.9813061,58.8867925 C63.9813061,61.2928302 62.7776735,63.1984906 61.3731837,64.4015094 C55.0529796,69.9162264 47.6288163,73.2249057 36.392898,73.2249057 C15.7265102,73.2249057 0.37755102,57.2822642 0.37755102,37.1275472 Z" id="Stroke-5" stroke="#DA5A59"></path>
            <path d="M77.5240612,8.95169811 C77.5240612,4.64 80.9356122,1.2309434 85.2487551,1.2309434 C89.5626531,1.2309434 92.973449,4.64 92.973449,8.95169811 L92.973449,29.6075472 L121.464959,29.6075472 L121.464959,8.95169811 C121.464959,4.64 124.875755,1.2309434 129.189653,1.2309434 C133.503551,1.2309434 136.914347,4.64 136.914347,8.95169811 L136.914347,64.9026415 C136.914347,69.2143396 133.503551,72.6241509 129.189653,72.6241509 C124.875755,72.6241509 121.464959,69.2143396 121.464959,64.9026415 L121.464959,43.8460377 L92.973449,43.8460377 L92.973449,64.9026415 C92.973449,69.2143396 89.5626531,72.6241509 85.2487551,72.6241509 C80.9356122,72.6241509 77.5240612,69.2143396 77.5240612,64.9026415 L77.5240612,8.95169811" id="Fill-7" fill="#DB5A5B"></path>
            <path d="M77.5240612,8.95169811 C77.5240612,4.64 80.9356122,1.2309434 85.2487551,1.2309434 C89.5626531,1.2309434 92.973449,4.64 92.973449,8.95169811 L92.973449,29.6075472 L121.464959,29.6075472 L121.464959,8.95169811 C121.464959,4.64 124.875755,1.2309434 129.189653,1.2309434 C133.503551,1.2309434 136.914347,4.64 136.914347,8.95169811 L136.914347,64.9026415 C136.914347,69.2143396 133.503551,72.6241509 129.189653,72.6241509 C124.875755,72.6241509 121.464959,69.2143396 121.464959,64.9026415 L121.464959,43.8460377 L92.973449,43.8460377 L92.973449,64.9026415 C92.973449,69.2143396 89.5626531,72.6241509 85.2487551,72.6241509 C80.9356122,72.6241509 77.5240612,69.2143396 77.5240612,64.9026415 L77.5240612,8.95169811 Z" id="Stroke-8" stroke="#DA5A59"></path>
            <path d="M289.093837,64.6022642 C287.388061,63.3984906 286.184429,61.1932075 286.184429,58.7864151 C286.184429,54.7758491 289.394367,51.6671698 293.40698,51.6671698 C295.414041,51.6671698 296.818531,52.3690566 297.821306,53.0709434 C303.138735,56.9811321 308.957551,59.3879245 315.779143,59.3879245 C322.099347,59.3879245 325.911102,56.8815094 325.911102,52.7698113 L325.911102,52.5698113 C325.911102,48.6588679 323.503837,46.6535849 311.766531,43.645283 C297.620449,40.0354717 288.49202,36.125283 288.49202,22.1871698 L288.49202,21.9871698 C288.49202,9.25283019 298.724408,0.830188679 313.069837,0.830188679 C321.597204,0.830188679 329.021367,3.03622642 335.342327,7.04679245 C337.047347,8.0490566 338.752367,10.1554717 338.752367,13.1630189 C338.752367,17.1743396 335.542429,20.2822642 331.529816,20.2822642 C330.024898,20.2822642 328.821265,19.8815094 327.616878,19.1796226 C322.501061,16.1713208 317.685776,14.4664151 312.869735,14.4664151 C306.951245,14.4664151 303.84098,17.1743396 303.84098,20.5833962 L303.84098,20.7841509 C303.84098,25.3962264 306.850816,26.9003774 318.989082,30.0090566 C333.235592,33.7184906 341.260816,38.8324528 341.260816,51.0656604 L341.260816,51.2664151 C341.260816,65.2037736 330.626714,73.0249057 315.478612,73.0249057 C306.248245,73.0249057 296.918959,70.2173585 289.093837,64.6022642" id="Fill-10" fill="#DB5A5B"></path>
            <path d="M289.093837,64.6022642 C287.388061,63.3984906 286.184429,61.1932075 286.184429,58.7864151 C286.184429,54.7758491 289.394367,51.6671698 293.40698,51.6671698 C295.414041,51.6671698 296.818531,52.3690566 297.821306,53.0709434 C303.138735,56.9811321 308.957551,59.3879245 315.779143,59.3879245 C322.099347,59.3879245 325.911102,56.8815094 325.911102,52.7698113 L325.911102,52.5698113 C325.911102,48.6588679 323.503837,46.6535849 311.766531,43.645283 C297.620449,40.0354717 288.49202,36.125283 288.49202,22.1871698 L288.49202,21.9871698 C288.49202,9.25283019 298.724408,0.830188679 313.069837,0.830188679 C321.597204,0.830188679 329.021367,3.03622642 335.342327,7.04679245 C337.047347,8.0490566 338.752367,10.1554717 338.752367,13.1630189 C338.752367,17.1743396 335.542429,20.2822642 331.529816,20.2822642 C330.024898,20.2822642 328.821265,19.8815094 327.616878,19.1796226 C322.501061,16.1713208 317.685776,14.4664151 312.869735,14.4664151 C306.951245,14.4664151 303.84098,17.1743396 303.84098,20.5833962 L303.84098,20.7841509 C303.84098,25.3962264 306.850816,26.9003774 318.989082,30.0090566 C333.235592,33.7184906 341.260816,38.8324528 341.260816,51.0656604 L341.260816,51.2664151 C341.260816,65.2037736 330.626714,73.0249057 315.478612,73.0249057 C306.248245,73.0249057 296.918959,70.2173585 289.093837,64.6022642 Z" id="Stroke-11" stroke="#DA5A59"></path>
            <path d="M354.703898,64.3011321 L354.703898,9.55396226 C354.703898,5.24226415 358.115449,1.83245283 362.429347,1.83245283 L401.353347,1.83245283 C405.165857,1.83245283 408.275367,4.94113208 408.275367,8.75169811 C408.275367,12.5615094 405.165857,15.5698113 401.353347,15.5698113 L370.052857,15.5698113 L370.052857,29.8083019 L396.839347,29.8083019 C400.651102,29.8083019 403.761367,32.9162264 403.761367,36.7267925 C403.761367,40.5373585 400.651102,43.5449057 396.839347,43.5449057 L370.052857,43.5449057 L370.052857,58.285283 L401.85549,58.285283 C405.667245,58.285283 408.77751,61.3932075 408.77751,65.2037736 C408.77751,69.0135849 405.667245,72.0218868 401.85549,72.0218868 L362.429347,72.0218868 C358.115449,72.0218868 354.703898,68.6128302 354.703898,64.3011321" id="Fill-13" fill="#DB5A5B"></path>
            <path d="M354.703898,64.3011321 L354.703898,9.55396226 C354.703898,5.24226415 358.115449,1.83245283 362.429347,1.83245283 L401.353347,1.83245283 C405.165857,1.83245283 408.275367,4.94113208 408.275367,8.75169811 C408.275367,12.5615094 405.165857,15.5698113 401.353347,15.5698113 L370.052857,15.5698113 L370.052857,29.8083019 L396.839347,29.8083019 C400.651102,29.8083019 403.761367,32.9162264 403.761367,36.7267925 C403.761367,40.5373585 400.651102,43.5449057 396.839347,43.5449057 L370.052857,43.5449057 L370.052857,58.285283 L401.85549,58.285283 C405.667245,58.285283 408.77751,61.3932075 408.77751,65.2037736 C408.77751,69.0135849 405.667245,72.0218868 401.85549,72.0218868 L362.429347,72.0218868 C358.115449,72.0218868 354.703898,68.6128302 354.703898,64.3011321 Z" id="Stroke-14" stroke="#DA5A59"></path>
            <path d="M440.278857,44.949434 L417.606163,14.1660377 C416.502204,12.6618868 415.699531,10.8573585 415.699531,8.65132075 C415.699531,4.54037736 419.111082,1.2309434 423.42498,1.2309434 C426.935449,1.2309434 429.142612,3.13660377 431.049245,5.94339623 L448.10398,30.5101887 L465.459245,5.74339623 C467.365122,2.93584906 469.672714,1.13132075 472.883408,1.13132075 C477.598265,1.13132075 480.407245,4.44 480.407245,8.65132075 C480.407245,10.7569811 479.404469,12.6618868 478.400939,14.0656604 L455.728245,44.6483019 L455.728245,64.9026415 C455.728245,69.2143396 452.317449,72.6241509 448.003551,72.6241509 C443.689653,72.6241509 440.278857,69.2143396 440.278857,64.9026415 L440.278857,44.949434" id="Fill-16" fill="#DB5A5B"></path>
            <path d="M440.278857,44.949434 L417.606163,14.1660377 C416.502204,12.6618868 415.699531,10.8573585 415.699531,8.65132075 C415.699531,4.54037736 419.111082,1.2309434 423.42498,1.2309434 C426.935449,1.2309434 429.142612,3.13660377 431.049245,5.94339623 L448.10398,30.5101887 L465.459245,5.74339623 C467.365122,2.93584906 469.672714,1.13132075 472.883408,1.13132075 C477.598265,1.13132075 480.407245,4.44 480.407245,8.65132075 C480.407245,10.7569811 479.404469,12.6618868 478.400939,14.0656604 L455.728245,44.6483019 L455.728245,64.9026415 C455.728245,69.2143396 452.317449,72.6241509 448.003551,72.6241509 C443.689653,72.6241509 440.278857,69.2143396 440.278857,64.9026415 L440.278857,44.949434 Z" id="Stroke-17" stroke="#DA5A59"></path>
        </g>
    </g>
</svg>