<?xml version="1.0" encoding="UTF-8"?>
<svg width="321px" height="80px" viewBox="0 0 321 80" version="1.1" xmlns="http://www.w3.org/2000/svg" xmlns:xlink="http://www.w3.org/1999/xlink">
    <!-- Generator: Sketch 48.2 (47327) - http://www.bohemiancoding.com/sketch -->
    <title>choosey-white-logo</title>
    <desc>Created with Sketch.</desc>
    <defs></defs>
    <g id="Choosey" stroke="none" stroke-width="1" fill="none" fill-rule="evenodd" transform="translate(-222.000000, -178.000000)">
        <g id="choosey-white-logo" transform="translate(222.000000, 178.000000)">
            <path d="M133.408422,33.4686761 C135.889118,30.9849566 137.130977,27.948907 137.130977,24.4296317 C137.130977,20.9103564 135.889118,17.8727936 133.408422,15.3885696 C130.927726,12.8357457 127.964394,11.593886 124.448396,11.593886 C120.932901,11.593886 117.969568,12.8357457 115.556382,15.3885696 C113.144706,17.8727936 111.904358,20.9103564 111.904358,24.4296317 C111.904358,27.948907 113.144706,30.9849566 115.556382,33.4686761 C117.969568,35.9529001 120.932901,37.1962731 124.448396,37.1962731 C127.964394,37.1962731 130.996747,35.9529001 133.408422,33.4686761 M107.286053,7.17726357 C112.041391,2.4156241 117.762004,0 124.448396,0 C131.2028,0 136.923412,2.4156241 141.610234,7.17726357 C146.365573,11.9383986 148.709235,17.6659851 148.709235,24.4296317 C148.709235,31.1231652 146.365573,36.9193515 141.610234,41.6804866 C136.923412,46.4426305 131.2028,48.7896547 124.448396,48.7896547 C117.762004,48.7896547 112.110411,46.4426305 107.355577,41.6804866 C102.599231,36.9193515 100.255568,31.1231652 100.255568,24.4296317 C100.255568,17.6659851 102.599231,11.9383986 107.286053,7.17726357" id="Fill-1-Copy-18" fill="#FFFFFF"></path>
            <path d="M170.688379,33.4686761 C173.169075,30.9849566 174.410934,27.948907 174.410934,24.4296317 C174.410934,20.9103564 173.169075,17.8727936 170.688379,15.3885696 C168.207684,12.8357457 165.243847,11.593886 161.728857,11.593886 C158.212355,11.593886 155.249526,12.8357457 152.836339,15.3885696 C150.424664,17.8727936 149.184316,20.9103564 149.184316,24.4296317 C149.184316,27.948907 150.424664,30.9849566 152.836339,33.4686761 C155.249526,35.9529001 158.212355,37.1962731 161.728857,37.1962731 C165.243847,37.1962731 168.276704,35.9529001 170.688379,33.4686761 M144.56601,7.17726357 C149.321349,2.4156241 155.041961,0 161.728857,0 C168.482757,0 174.20337,2.4156241 178.891199,7.17726357 C183.64553,11.9383986 185.9902,17.6659851 185.9902,24.4296317 C185.9902,31.1231652 183.64553,36.9193515 178.891199,41.6804866 C174.20337,46.4426305 168.482757,48.7896547 161.728857,48.7896547 C155.041961,48.7896547 149.390369,46.4426305 144.63503,41.6804866 C139.879188,36.9193515 137.536533,31.1231652 137.536533,24.4296317 C137.536533,17.6659851 139.879188,11.9383986 144.56601,7.17726357" id="Fill-2-Copy-8" fill="#FFFFFF"></path>
            <path d="M142.810656,79.9986958 C132.577031,79.9986958 122.952497,76.0098139 115.715455,68.7644549 C112.567229,65.6088599 112.567229,60.4996813 115.715455,57.3455995 C118.86872,54.1925266 123.972685,54.1925266 127.120912,57.3455995 C131.31099,61.5402811 136.886006,63.8519965 142.810656,63.8519965 C148.734803,63.8519965 154.311834,61.5402811 158.500401,57.3455995 C161.65165,54.1925266 166.754608,54.1925266 169.905857,57.3455995 C173.056099,60.4996813 173.056099,65.6088599 169.905857,68.7644549 C162.668312,76.0083007 153.0468,79.9986958 142.810656,79.9986958" id="Fill-3-Copy-8" fill="#FFB861"></path>
            <path d="M0,24.8977251 L0,24.7640562 C0,11.4279347 10.0401669,0.504410962 24.4306194,0.504410962 C31.4585851,0.504410962 36.2109006,2.38081974 40.0931589,5.26251956 C41.164231,6.06655064 42.1012931,7.54094388 42.1012931,9.35077041 C42.1012931,12.1653836 39.8256428,14.3767212 37.0144565,14.3767212 C35.6088634,14.3767212 34.6718013,13.8405324 33.9352503,13.3714302 C31.0570591,11.2266748 28.0453617,10.0206282 24.3636145,10.0206282 C16.4655916,10.0206282 10.7762141,16.5880589 10.7762141,24.6298828 L10.7762141,24.7640562 C10.7762141,32.8058801 16.3320855,39.5074842 24.3636145,39.5074842 C28.7144038,39.5074842 31.5925951,38.1667598 34.5377913,35.8217533 C35.3408435,35.1513911 36.4119155,34.6822889 37.6164937,34.6822889 C40.2271689,34.6822889 42.4358142,36.8265399 42.4358142,39.4403975 C42.4358142,41.0484597 41.632762,42.3220973 40.6956999,43.1261284 C36.4789205,46.8118593 31.5255901,49.023197 24.0290934,49.023197 C10.2406781,49.023197 0,38.3680198 0,24.8977251" id="Fill-4-Copy-8" fill="#FFFFFF"></path>
            <path d="M0,24.8977251 L0,24.7640562 C0,11.4279347 10.0401669,0.504410962 24.4306194,0.504410962 C31.4585851,0.504410962 36.2109006,2.38081974 40.0931589,5.26251956 C41.164231,6.06655064 42.1012931,7.54094388 42.1012931,9.35077041 C42.1012931,12.1653836 39.8256428,14.3767212 37.0144565,14.3767212 C35.6088634,14.3767212 34.6718013,13.8405324 33.9352503,13.3714302 C31.0570591,11.2266748 28.0453617,10.0206282 24.3636145,10.0206282 C16.4655916,10.0206282 10.7762141,16.5880589 10.7762141,24.6298828 L10.7762141,24.7640562 C10.7762141,32.8058801 16.3320855,39.5074842 24.3636145,39.5074842 C28.7144038,39.5074842 31.5925951,38.1667598 34.5377913,35.8217533 C35.3408435,35.1513911 36.4119155,34.6822889 37.6164937,34.6822889 C40.2271689,34.6822889 42.4358142,36.8265399 42.4358142,39.4403975 C42.4358142,41.0484597 41.632762,42.3220973 40.6956999,43.1261284 C36.4789205,46.8118593 31.5255901,49.023197 24.0290934,49.023197 C10.2406781,49.023197 0,38.3680198 0,24.8977251 Z" id="Stroke-5-Copy-8"></path>
            <path d="M51.891073,5.6645351 C51.891073,2.78283528 54.167227,0.504410962 57.0449145,0.504410962 C59.9231058,0.504410962 62.198756,2.78283528 62.198756,5.6645351 L62.198756,19.4697587 L81.2080178,19.4697587 L81.2080178,5.6645351 C81.2080178,2.78283528 83.4836681,0.504410962 86.3618593,0.504410962 C89.2400506,0.504410962 91.5157009,2.78283528 91.5157009,5.6645351 L91.5157009,43.0590417 C91.5157009,45.9407416 89.2400506,48.2196703 86.3618593,48.2196703 C83.4836681,48.2196703 81.2080178,45.9407416 81.2080178,43.0590417 L81.2080178,28.9859759 L62.198756,28.9859759 L62.198756,43.0590417 C62.198756,45.9407416 59.9231058,48.2196703 57.0449145,48.2196703 C54.167227,48.2196703 51.891073,45.9407416 51.891073,43.0590417 L51.891073,5.6645351" id="Fill-7-Copy-8" fill="#FFFFFF"></path>
            <path d="M51.891073,5.6645351 C51.891073,2.78283528 54.167227,0.504410962 57.0449145,0.504410962 C59.9231058,0.504410962 62.198756,2.78283528 62.198756,5.6645351 L62.198756,19.4697587 L81.2080178,19.4697587 L81.2080178,5.6645351 C81.2080178,2.78283528 83.4836681,0.504410962 86.3618593,0.504410962 C89.2400506,0.504410962 91.5157009,2.78283528 91.5157009,5.6645351 L91.5157009,43.0590417 C91.5157009,45.9407416 89.2400506,48.2196703 86.3618593,48.2196703 C83.4836681,48.2196703 81.2080178,45.9407416 81.2080178,43.0590417 L81.2080178,28.9859759 L62.198756,28.9859759 L62.198756,43.0590417 C62.198756,45.9407416 59.9231058,48.2196703 57.0449145,48.2196703 C54.167227,48.2196703 51.891073,45.9407416 51.891073,43.0590417 L51.891073,5.6645351 Z" id="Stroke-8-Copy-8"></path>
            <path d="M192.880126,43.1261284 C191.742049,42.3215929 190.938997,40.8477041 190.938997,39.2391375 C190.938997,36.5586977 193.080637,34.4810289 195.757813,34.4810289 C197.096905,34.4810289 198.033967,34.9501311 198.70301,35.4192333 C202.250747,38.0325865 206.133005,39.6411531 210.684306,39.6411531 C214.901085,39.6411531 217.444251,37.9660043 217.444251,35.2179733 L217.444251,35.0843044 C217.444251,32.4704468 215.838147,31.1302269 208.007129,29.1196448 C198.569,26.7070472 192.4786,24.093694 192.4786,14.7782324 L192.4786,14.6445635 C192.4786,6.13363729 199.305551,0.504410962 208.876683,0.504410962 C214.56606,0.504410962 219.519391,1.9788042 223.736674,4.65924405 C224.874247,5.32910181 226.01182,6.7369128 226.01182,8.74699049 C226.01182,11.4279347 223.87018,13.5050991 221.193004,13.5050991 C220.188937,13.5050991 219.385884,13.2372569 218.582328,12.7681547 C215.169105,10.7575726 211.956393,9.61810822 208.743176,9.61810822 C204.794417,9.61810822 202.719278,11.4279347 202.719278,13.7063591 L202.719278,13.8405324 C202.719278,16.9229878 204.727412,17.9282788 212.825946,20.0059476 C222.331081,22.4851274 227.685433,25.9030161 227.685433,34.0790134 L227.685433,34.2131867 C227.685433,43.5281439 220.590463,48.7553547 210.483794,48.7553547 C204.325382,48.7553547 198.100972,46.878946 192.880126,43.1261284" id="Fill-10-Copy-8" fill="#FFFFFF"></path>
            <path d="M192.880126,43.1261284 C191.742049,42.3215929 190.938997,40.8477041 190.938997,39.2391375 C190.938997,36.5586977 193.080637,34.4810289 195.757813,34.4810289 C197.096905,34.4810289 198.033967,34.9501311 198.70301,35.4192333 C202.250747,38.0325865 206.133005,39.6411531 210.684306,39.6411531 C214.901085,39.6411531 217.444251,37.9660043 217.444251,35.2179733 L217.444251,35.0843044 C217.444251,32.4704468 215.838147,31.1302269 208.007129,29.1196448 C198.569,26.7070472 192.4786,24.093694 192.4786,14.7782324 L192.4786,14.6445635 C192.4786,6.13363729 199.305551,0.504410962 208.876683,0.504410962 C214.56606,0.504410962 219.519391,1.9788042 223.736674,4.65924405 C224.874247,5.32910181 226.01182,6.7369128 226.01182,8.74699049 C226.01182,11.4279347 223.87018,13.5050991 221.193004,13.5050991 C220.188937,13.5050991 219.385884,13.2372569 218.582328,12.7681547 C215.169105,10.7575726 211.956393,9.61810822 208.743176,9.61810822 C204.794417,9.61810822 202.719278,11.4279347 202.719278,13.7063591 L202.719278,13.8405324 C202.719278,16.9229878 204.727412,17.9282788 212.825946,20.0059476 C222.331081,22.4851274 227.685433,25.9030161 227.685433,34.0790134 L227.685433,34.2131867 C227.685433,43.5281439 220.590463,48.7553547 210.483794,48.7553547 C204.325382,48.7553547 198.100972,46.878946 192.880126,43.1261284 Z" id="Stroke-11-Copy-8"></path>
            <path d="M236.784508,42.7594216 L236.784508,6.16945047 C236.784508,3.28775065 239.060662,1.00882192 241.938853,1.00882192 L267.908572,1.00882192 C270.452242,1.00882192 272.526877,3.08649067 272.526877,5.63326162 C272.526877,8.17952816 270.452242,10.1901102 267.908572,10.1901102 L247.025186,10.1901102 L247.025186,19.7063275 L264.896874,19.7063275 C267.440041,19.7063275 269.51518,21.7834918 269.51518,24.3302627 C269.51518,26.8770337 267.440041,28.8871114 264.896874,28.8871114 L247.025186,28.8871114 L247.025186,38.7387619 L268.243597,38.7387619 C270.786763,38.7387619 272.861902,40.8159262 272.861902,43.3626971 C272.861902,45.9089637 270.786763,47.9195458 268.243597,47.9195458 L241.938853,47.9195458 C239.060662,47.9195458 236.784508,45.6411215 236.784508,42.7594216" id="Fill-13-Copy-8" fill="#FFFFFF"></path>
            <path d="M236.784508,42.7594216 L236.784508,6.16945047 C236.784508,3.28775065 239.060662,1.00882192 241.938853,1.00882192 L267.908572,1.00882192 C270.452242,1.00882192 272.526877,3.08649067 272.526877,5.63326162 C272.526877,8.17952816 270.452242,10.1901102 267.908572,10.1901102 L247.025186,10.1901102 L247.025186,19.7063275 L264.896874,19.7063275 C267.440041,19.7063275 269.51518,21.7834918 269.51518,24.3302627 C269.51518,26.8770337 267.440041,28.8871114 264.896874,28.8871114 L247.025186,28.8871114 L247.025186,38.7387619 L268.243597,38.7387619 C270.786763,38.7387619 272.861902,40.8159262 272.861902,43.3626971 C272.861902,45.9089637 270.786763,47.9195458 268.243597,47.9195458 L241.938853,47.9195458 C239.060662,47.9195458 236.784508,45.6411215 236.784508,42.7594216 Z" id="Stroke-14-Copy-8"></path>
            <path d="M293.991141,29.790007 L278.864138,9.21609268 C278.127587,8.21080163 277.592051,7.00475503 277.592051,5.53036178 C277.592051,2.78283528 279.868205,0.570993209 282.746396,0.570993209 C285.088547,0.570993209 286.561145,1.84463089 287.833232,3.72053525 L299.211988,20.1396165 L310.791254,3.58686635 C312.062837,1.71045757 313.60244,0.504410962 315.744584,0.504410962 C318.890291,0.504410962 320.764416,2.71574862 320.764416,5.53036178 C320.764416,6.93766837 320.095374,8.21080163 319.425828,9.14900602 L304.298824,29.588747 L304.298824,43.125624 C304.298824,46.0073238 302.023174,48.2862525 299.144983,48.2862525 C296.266791,48.2862525 293.991141,46.0073238 293.991141,43.125624 L293.991141,29.790007" id="Fill-16-Copy-8" fill="#FFFFFF"></path>
            <path d="M293.991141,29.790007 L278.864138,9.21609268 C278.127587,8.21080163 277.592051,7.00475503 277.592051,5.53036178 C277.592051,2.78283528 279.868205,0.570993209 282.746396,0.570993209 C285.088547,0.570993209 286.561145,1.84463089 287.833232,3.72053525 L299.211988,20.1396165 L310.791254,3.58686635 C312.062837,1.71045757 313.60244,0.504410962 315.744584,0.504410962 C318.890291,0.504410962 320.764416,2.71574862 320.764416,5.53036178 C320.764416,6.93766837 320.095374,8.21080163 319.425828,9.14900602 L304.298824,29.588747 L304.298824,43.125624 C304.298824,46.0073238 302.023174,48.2862525 299.144983,48.2862525 C296.266791,48.2862525 293.991141,46.0073238 293.991141,43.125624 L293.991141,29.790007 Z" id="Stroke-17-Copy-8"></path>
        </g>
    </g>
</svg>