<?xml version="1.0" encoding="UTF-8"?>
<svg width="233px" height="61px" viewBox="0 0 233 61" version="1.1" xmlns="http://www.w3.org/2000/svg" xmlns:xlink="http://www.w3.org/1999/xlink">
    <!-- Generator: Sketch 48.2 (47327) - http://www.bohemiancoding.com/sketch -->
    <title>ABCDEFGHIJKLMNOPQRST</title>
    <desc>Created with Sketch.</desc>
    <defs></defs>
    <g id="Choosey---Mobile" stroke="none" stroke-width="1" fill="none" fill-rule="evenodd" transform="translate(-35.000000, -1881.000000)">
        <g id="Font" transform="translate(0.000000, 1389.000000)" fill="#333333">
            <path d="M39.752,494.58 L38.772,497.94 L40.774,497.94 L39.752,494.58 Z M42.286,502 L41.432,499.718 L38.1,499.718 L37.246,502 L35.062,502 L38.646,492.354 L40.872,492.354 L44.442,502 L42.286,502 Z M52.226,495.042 C52.226,495.77 51.82,496.498 50.91,496.848 C51.498,497.002 51.946,497.296 52.254,497.73 C52.576,498.164 52.73,498.598 52.73,499.046 C52.73,499.872 52.45,500.572 51.89,501.146 C51.33,501.72 50.588,502 49.65,502 L45.506,502 L45.506,492.354 L49.37,492.354 C51.106,492.354 52.226,493.404 52.226,495.042 Z M47.564,494.16 L47.564,496.162 L49.174,496.162 C49.692,496.162 50.07,495.742 50.07,495.168 C50.07,494.552 49.762,494.16 49.16,494.16 L47.564,494.16 Z M49.496,497.856 L47.564,497.856 L47.564,500.194 L49.538,500.194 C50.196,500.194 50.574,499.634 50.574,499.004 C50.574,498.402 50.168,497.856 49.496,497.856 Z M61.116,498.878 L62.768,500.026 C61.914,501.328 60.43,502.14 58.708,502.14 C57.336,502.14 56.188,501.664 55.25,500.698 C54.326,499.732 53.864,498.57 53.864,497.198 C53.864,495.812 54.326,494.65 55.25,493.684 C56.188,492.718 57.336,492.242 58.708,492.242 C60.388,492.242 61.872,493.04 62.726,494.286 L61.06,495.434 C60.486,494.594 59.702,494.174 58.708,494.174 C57.91,494.174 57.252,494.468 56.72,495.056 C56.188,495.63 55.922,496.344 55.922,497.198 C55.922,498.038 56.188,498.752 56.72,499.34 C57.252,499.914 57.91,500.208 58.708,500.208 C59.702,500.208 60.57,499.676 61.116,498.878 Z M67.99,494.216 L66.254,494.216 L66.254,500.138 L67.99,500.138 C68.732,500.138 69.292,499.858 69.698,499.298 C70.104,498.738 70.3,498.038 70.3,497.198 C70.3,496.344 70.104,495.644 69.698,495.07 C69.292,494.496 68.732,494.216 67.99,494.216 Z M67.99,502 L64.21,502 L64.21,492.354 L67.99,492.354 C69.348,492.354 70.412,492.816 71.182,493.726 C71.952,494.636 72.344,495.784 72.344,497.198 C72.344,498.612 71.952,499.76 71.182,500.656 C70.412,501.552 69.348,502 67.99,502 Z M80.338,502 L74.108,502 L74.108,492.354 L80.212,492.354 L80.212,494.16 L76.152,494.16 L76.152,496.358 L79.708,496.358 L79.708,498.136 L76.152,498.136 L76.152,500.194 L80.338,500.194 L80.338,502 Z M84.23,502 L82.172,502 L82.172,492.354 L88.206,492.354 L88.206,494.16 L84.23,494.16 L84.23,496.358 L87.38,496.358 L87.38,498.15 L84.23,498.15 L84.23,502 Z M97.628,493.824 L96.116,495.126 C95.542,494.468 94.828,494.146 94.002,494.146 C93.19,494.146 92.504,494.44 91.944,495.042 C91.398,495.644 91.118,496.358 91.118,497.198 C91.118,498.038 91.398,498.766 91.958,499.368 C92.518,499.97 93.204,500.264 94.002,500.264 C94.562,500.264 95.094,500.11 95.584,499.802 C96.074,499.48 96.326,499.088 96.34,498.598 L93.75,498.598 L93.75,496.932 L98.706,496.932 C98.706,498.682 98.286,499.984 97.432,500.852 C96.592,501.706 95.444,502.14 94.002,502.14 C92.616,502.14 91.454,501.664 90.488,500.698 C89.536,499.732 89.06,498.556 89.06,497.198 C89.06,495.826 89.536,494.664 90.488,493.698 C91.454,492.732 92.616,492.242 94.002,492.242 C95.458,492.242 96.774,492.83 97.628,493.824 Z M105.678,496.288 L105.678,492.354 L107.75,492.354 L107.75,502 L105.678,502 L105.678,498.122 L102.248,498.122 L102.248,502 L100.204,502 L100.204,492.354 L102.248,492.354 L102.248,496.288 L105.678,496.288 Z M110.018,502 L110.018,492.354 L112.062,492.354 L112.062,502 L110.018,502 Z M111.81,505.066 L111.992,503.218 C112.286,503.316 112.706,503.372 113.224,503.372 C113.966,503.372 114.33,502.826 114.33,502.042 L114.33,492.354 L116.388,492.354 L116.388,502.042 C116.388,503.008 116.136,503.792 115.618,504.394 C115.1,504.996 114.302,505.304 113.224,505.304 C112.93,505.304 112.468,505.22 111.81,505.066 Z M125.418,492.354 L121.764,497.128 L126.286,502 L123.626,502 L120.728,498.724 L120.728,502 L118.656,502 L118.656,492.354 L120.728,492.354 L120.728,495.518 L123.01,492.354 L125.418,492.354 Z M132.852,502 L127.182,502 L127.182,492.354 L129.24,492.354 L129.24,500.194 L132.852,500.194 L132.852,502 Z M136.688,492.354 L139.6,498.57 L142.484,492.354 L144.206,492.354 L145.382,502 L143.324,502 L142.652,496.218 L140.398,500.894 L138.816,500.894 L136.548,496.218 L135.862,502 L133.804,502 L134.994,492.354 L136.688,492.354 Z M152.298,492.354 L154.356,492.354 L154.356,502 L152.522,502 L149.162,496.162 L149.162,502 L147.118,502 L147.118,492.354 L148.994,492.354 L152.298,498.122 L152.298,492.354 Z M163.806,497.198 C163.806,496.386 163.526,495.7 162.966,495.126 C162.42,494.552 161.748,494.272 160.95,494.272 C160.152,494.272 159.48,494.552 158.934,495.126 C158.388,495.7 158.108,496.386 158.108,497.198 C158.108,498.01 158.388,498.696 158.934,499.27 C159.48,499.83 160.152,500.11 160.95,500.11 C161.748,500.11 162.42,499.83 162.966,499.256 C163.526,498.682 163.806,497.996 163.806,497.198 Z M156.064,497.198 C156.064,495.826 156.54,494.664 157.478,493.698 C158.43,492.732 159.592,492.242 160.95,492.242 C162.322,492.242 163.484,492.732 164.422,493.698 C165.374,494.664 165.85,495.826 165.85,497.198 C165.85,498.556 165.374,499.732 164.422,500.698 C163.47,501.664 162.308,502.14 160.95,502.14 C159.592,502.14 158.43,501.664 157.478,500.698 C156.54,499.732 156.064,498.556 156.064,497.198 Z M171.478,494.16 L169.616,494.16 L169.616,496.876 L171.422,496.876 C172.164,496.876 172.64,496.204 172.64,495.518 C172.64,494.846 172.192,494.16 171.478,494.16 Z M169.616,502 L167.558,502 L167.558,492.354 L171.52,492.354 C172.556,492.354 173.34,492.662 173.886,493.292 C174.432,493.908 174.698,494.65 174.698,495.518 C174.698,496.386 174.432,497.128 173.886,497.744 C173.34,498.36 172.556,498.668 171.52,498.668 L169.616,498.668 L169.616,502 Z M183.392,501.244 L184.316,502.784 L182.874,503.652 L181.838,501.972 C181.418,502.084 180.984,502.14 180.536,502.14 C179.15,502.14 177.988,501.664 177.022,500.698 C176.07,499.732 175.594,498.556 175.594,497.198 C175.594,495.826 176.07,494.664 177.022,493.698 C177.988,492.732 179.15,492.242 180.536,492.242 C181.922,492.242 183.098,492.718 184.05,493.684 C185.016,494.65 185.492,495.812 185.492,497.198 C185.492,498.822 184.68,500.306 183.392,501.244 Z M179.976,498.878 L181.418,498.024 L182.342,499.522 C183.07,498.948 183.434,498.164 183.434,497.198 C183.434,496.358 183.154,495.644 182.58,495.056 C182.02,494.468 181.334,494.174 180.536,494.174 C179.724,494.174 179.038,494.468 178.478,495.056 C177.932,495.644 177.652,496.358 177.652,497.198 C177.652,497.912 177.862,498.528 178.282,499.074 C178.716,499.606 179.262,499.942 179.92,500.082 C180.13,500.138 180.41,500.166 180.746,500.166 L179.976,498.878 Z M191.036,494.16 L189.244,494.16 L189.244,496.876 L190.98,496.876 C191.722,496.876 192.198,496.204 192.198,495.518 C192.198,494.846 191.75,494.16 191.036,494.16 Z M191.932,498.584 L194.326,502 L191.862,502 L189.706,498.668 L189.244,498.668 L189.244,502 L187.186,502 L187.186,492.354 L191.134,492.354 C192.156,492.354 192.954,492.662 193.5,493.292 C194.06,493.908 194.34,494.65 194.34,495.518 C194.34,496.988 193.5,498.248 191.932,498.584 Z M195.586,499.172 L197.644,499.172 C197.686,499.83 198.204,500.334 199.086,500.334 C199.926,500.334 200.486,499.928 200.5,499.312 C200.514,498.822 200.248,498.486 199.338,498.22 L198.176,497.898 C196.51,497.38 195.684,496.456 195.684,495.126 C195.684,494.272 196.006,493.586 196.636,493.054 C197.266,492.508 198.064,492.242 199.002,492.242 C199.954,492.242 200.738,492.508 201.34,493.04 C201.956,493.572 202.264,494.286 202.264,495.196 L200.22,495.196 C200.22,494.538 199.772,494.104 198.974,494.104 C198.246,494.104 197.728,494.51 197.728,495.07 C197.728,495.532 198.078,495.854 198.764,496.05 L199.912,496.414 C201.718,496.932 202.6,497.912 202.558,499.326 C202.544,499.928 202.376,500.46 202.026,500.908 C201.34,501.79 200.276,502.154 199.086,502.154 C198.036,502.154 197.196,501.874 196.552,501.328 C195.908,500.768 195.586,500.054 195.586,499.172 Z M206.03,494.202 L203.426,494.202 L203.426,492.354 L210.706,492.354 L210.706,494.202 L208.102,494.202 L208.102,502 L206.03,502 L206.03,494.202 Z M217.552,498.556 L217.552,492.354 L219.61,492.354 L219.61,498.556 C219.61,499.62 219.246,500.488 218.518,501.146 C217.79,501.804 216.908,502.14 215.886,502.14 C214.864,502.14 213.982,501.804 213.24,501.146 C212.498,500.488 212.134,499.62 212.134,498.556 L212.134,492.354 L214.22,492.354 L214.22,498.556 C214.22,499.046 214.388,499.438 214.71,499.746 C215.046,500.054 215.438,500.208 215.886,500.208 C216.334,500.208 216.726,500.054 217.048,499.746 C217.384,499.424 217.552,499.032 217.552,498.556 Z M223.81,502 L220.87,492.354 L222.998,492.354 L224.72,498.682 L226.428,492.354 L228.57,492.354 L225.63,502 L223.81,502 Z M235.836,493.712 L237.11,498.43 L239,492.354 L241.226,492.354 L237.95,502 L236.34,502 L234.982,496.932 L233.652,502 L232.028,502 L228.78,492.354 L230.992,492.354 L232.868,498.43 L234.156,493.712 L235.836,493.712 Z M247.61,492.354 L250.06,492.354 L247.022,496.862 L250.368,502 L247.946,502 L245.804,498.5 L243.662,502 L241.254,502 L244.586,496.862 L241.548,492.354 L244.012,492.354 L245.804,495.238 L247.61,492.354 Z M256.01,497.66 L256.01,502 L253.924,502 L253.924,497.632 L250.2,492.354 L252.636,492.354 L254.96,495.966 L257.312,492.354 L259.748,492.354 L256.01,497.66 Z M260.112,502 L260.112,500.446 L264.522,494.16 L260.294,494.16 L260.294,492.354 L267.182,492.354 L267.182,493.908 L262.73,500.194 L267.182,500.194 L267.182,502 L260.112,502 Z M65.05,527 L63.79,527 L63.79,525.992 C63.356,526.72 62.446,527.14 61.494,527.14 C60.57,527.14 59.786,526.818 59.142,526.188 C58.498,525.558 58.176,524.732 58.176,523.724 C58.176,522.702 58.498,521.89 59.142,521.26 C59.786,520.63 60.57,520.322 61.494,520.322 C62.446,520.322 63.384,520.728 63.79,521.442 L63.79,520.462 L65.05,520.462 L65.05,527 Z M63.776,523.71 C63.776,523.052 63.552,522.52 63.118,522.142 C62.684,521.764 62.18,521.568 61.606,521.568 C61.004,521.568 60.486,521.764 60.08,522.17 C59.674,522.562 59.478,523.08 59.478,523.71 C59.478,524.34 59.688,524.872 60.094,525.278 C60.5,525.684 61.004,525.894 61.606,525.894 C62.208,525.894 62.726,525.698 63.146,525.306 C63.566,524.914 63.776,524.382 63.776,523.71 Z M68.452,525.992 L68.452,527 L67.178,527 L67.178,516.906 L68.452,516.906 L68.452,521.442 C68.886,520.714 69.754,520.322 70.748,520.322 C71.686,520.322 72.47,520.63 73.1,521.26 C73.73,521.89 74.052,522.702 74.052,523.724 C74.052,524.732 73.73,525.558 73.086,526.188 C72.442,526.818 71.658,527.14 70.734,527.14 C69.796,527.14 68.886,526.72 68.452,525.992 Z M68.466,523.71 C68.466,524.382 68.676,524.914 69.096,525.306 C69.516,525.698 70.034,525.894 70.636,525.894 C71.238,525.894 71.728,525.684 72.134,525.278 C72.54,524.872 72.75,524.34 72.75,523.71 C72.75,523.08 72.54,522.562 72.134,522.17 C71.728,521.764 71.238,521.568 70.636,521.568 C70.062,521.568 69.558,521.764 69.124,522.142 C68.69,522.52 68.466,523.052 68.466,523.71 Z M78.77,520.322 C79.806,520.322 80.646,520.672 81.29,521.372 L80.324,522.184 C79.918,521.778 79.4,521.568 78.77,521.568 C78.168,521.568 77.65,521.764 77.216,522.17 C76.782,522.562 76.572,523.08 76.572,523.71 C76.572,524.354 76.782,524.886 77.216,525.292 C77.65,525.698 78.168,525.908 78.77,525.908 C79.4,525.908 79.918,525.698 80.324,525.264 L81.304,526.076 C80.646,526.79 79.806,527.14 78.77,527.14 C77.804,527.14 76.992,526.818 76.32,526.188 C75.648,525.544 75.312,524.718 75.312,523.71 C75.312,522.702 75.648,521.89 76.32,521.26 C76.992,520.63 77.804,520.322 78.77,520.322 Z M89.186,527 L87.912,527 L87.912,525.992 C87.478,526.72 86.568,527.14 85.616,527.14 C84.692,527.14 83.908,526.818 83.264,526.188 C82.634,525.558 82.312,524.732 82.312,523.724 C82.312,522.702 82.634,521.89 83.264,521.26 C83.894,520.63 84.678,520.322 85.602,520.322 C86.596,520.322 87.478,520.714 87.912,521.442 L87.912,516.906 L89.186,516.906 L89.186,527 Z M85.728,521.568 C85.126,521.568 84.622,521.764 84.216,522.17 C83.81,522.562 83.614,523.08 83.614,523.71 C83.614,524.34 83.81,524.872 84.216,525.278 C84.622,525.684 85.126,525.894 85.728,525.894 C86.33,525.894 86.834,525.698 87.254,525.306 C87.688,524.9 87.898,524.368 87.898,523.71 C87.898,523.052 87.674,522.52 87.24,522.142 C86.806,521.764 86.302,521.568 85.728,521.568 Z M92.154,523.22 L96.214,523.22 C96.06,522.142 95.29,521.47 94.226,521.47 C93.12,521.47 92.308,522.142 92.154,523.22 Z M97.474,523.71 C97.474,523.948 97.474,524.116 97.46,524.214 L92.154,524.214 C92.308,525.292 93.148,525.992 94.268,525.992 C95.066,525.992 95.794,525.614 96.144,524.984 C96.27,525.026 96.452,525.11 96.704,525.208 L97.236,525.404 C96.69,526.524 95.528,527.14 94.226,527.14 C93.274,527.14 92.476,526.818 91.832,526.188 C91.202,525.558 90.88,524.732 90.88,523.71 C90.88,522.688 91.202,521.876 91.832,521.26 C92.476,520.63 93.274,520.322 94.226,520.322 C95.164,520.322 95.948,520.63 96.55,521.26 C97.166,521.876 97.474,522.688 97.474,523.71 Z M102.178,516.906 L102.892,516.906 L102.892,518.124 L102.178,518.124 C101.352,518.124 100.946,518.684 100.96,519.804 L100.96,520.462 L102.472,520.462 L102.472,521.54 L100.96,521.54 L100.96,527 L99.672,527 L99.672,521.54 L98.412,521.54 L98.412,520.462 L99.672,520.462 L99.672,519.804 C99.672,517.998 100.484,516.906 102.178,516.906 Z M108.982,525.936 C108.982,525.936542 108.982002,525.937089 108.982007,525.937641 L108.982,525.936 Z M108.981996,525.936009 C108.603992,526.678004 107.637996,527.14 106.686,527.14 C105.762,527.14 104.978,526.832 104.334,526.202 C103.69,525.572 103.368,524.76 103.368,523.752 C103.368,522.73 103.69,521.904 104.334,521.274 C104.978,520.644 105.762,520.322 106.686,520.322 C107.638,520.322 108.576,520.756 108.982,521.484 L108.982,520.462 L110.242,520.462 L110.242,526.006 C110.242,528.848 109.052,530.262 106.672,530.262 C105.44,530.262 104.334,529.618 103.718,528.498 C103.788,528.47 103.97,528.372 104.278,528.204 L104.782,527.938 C105.16,528.652 105.93,529.058 106.672,529.058 C108.226,529.058 108.996,528.064 108.996,526.09 C108.996,526.048542 108.982359,525.979803 108.982007,525.937641 L108.981996,525.936009 Z M108.968,523.738 C108.968,523.066 108.758,522.534 108.338,522.156 C107.918,521.764 107.4,521.568 106.798,521.568 C106.196,521.568 105.692,521.778 105.286,522.184 C104.88,522.59 104.67,523.108 104.67,523.738 C104.67,524.396 104.866,524.914 105.272,525.306 C105.678,525.698 106.196,525.894 106.798,525.894 C107.372,525.894 107.876,525.698 108.31,525.306 C108.744,524.914 108.968,524.396 108.968,523.738 Z M113.63,523.472 L113.63,527 L112.356,527 L112.356,516.906 L113.63,516.906 L113.63,521.442 C113.812,521.078 114.106,520.798 114.526,520.616 C114.96,520.42 115.38,520.322 115.786,520.322 C117.424,520.322 118.446,521.386 118.432,523.22 L118.432,527 L117.158,527 L117.158,523.304 C117.158,522.24 116.528,521.568 115.618,521.568 C115.1,521.568 114.638,521.722 114.232,522.044 C113.826,522.352 113.63,522.828 113.63,523.472 Z M121.736,527 L120.476,527 L120.476,520.462 L121.736,520.462 L121.736,527 Z M120.476,518.642 C120.14,518.32 120.14,517.788 120.476,517.466 C120.826,517.144 121.386,517.144 121.722,517.466 C122.072,517.788 122.072,518.32 121.722,518.642 C121.386,518.964 120.826,518.964 120.476,518.642 Z M122.8,530.206 L121.932,530.206 L121.932,529.016 L122.688,529.016 C123.486,529.016 123.878,528.47 123.864,527.392 L123.864,520.462 L125.152,520.462 L125.152,527.406 C125.152,529.268 124.368,530.206 122.8,530.206 Z M123.878,518.642 C123.542,518.32 123.542,517.788 123.878,517.466 C124.228,517.144 124.788,517.144 125.124,517.466 C125.474,517.788 125.474,518.32 125.124,518.642 C124.788,518.964 124.228,518.964 123.878,518.642 Z M131.522,527 L128.54,523.808 L128.54,527 L127.28,527 L127.28,516.906 L128.54,516.906 L128.54,522.744 L130.794,520.462 L132.53,520.462 L129.73,523.29 L133.202,527 L131.522,527 Z M134.308,527 L134.308,516.906 L135.582,516.906 L135.582,527 L134.308,527 Z M145.228,521.568 C144.164,521.554 143.492,522.352 143.492,523.472 L143.492,527 L142.218,527 L142.218,523.29 C142.218,522.226 141.658,521.568 140.804,521.568 C139.796,521.568 138.984,522.198 138.984,523.472 L138.984,527 L137.71,527 L137.71,520.462 L138.984,520.462 L138.984,521.442 C139.306,520.784 140.132,520.406 140.79,520.35 C141.042,520.336 141.28,520.35 141.504,520.392 C142.33,520.518 142.904,520.952 143.212,521.666 C143.674,520.77 144.43,520.322 145.48,520.322 C147.104,520.322 148,521.372 148,523.22 L148,527 L146.726,527 L146.726,523.304 C146.726,522.226 146.166,521.568 145.228,521.568 Z M151.318,523.472 L151.318,527 L150.044,527 L150.044,520.462 L151.318,520.462 L151.318,521.442 C151.696,520.714 152.564,520.322 153.362,520.322 C154.986,520.322 155.882,521.372 155.882,523.22 L155.882,527 L154.608,527 L154.608,523.304 C154.608,522.226 154.062,521.568 153.166,521.568 C152.144,521.568 151.318,522.184 151.318,523.472 Z M157.492,523.71 C157.492,522.702 157.814,521.89 158.472,521.26 C159.13,520.63 159.942,520.322 160.908,520.322 C161.874,520.322 162.686,520.63 163.344,521.26 C164.002,521.89 164.338,522.702 164.338,523.71 C164.338,524.718 164.002,525.544 163.33,526.188 C162.672,526.818 161.86,527.14 160.908,527.14 C159.956,527.14 159.144,526.818 158.486,526.188 C157.828,525.558 157.492,524.732 157.492,523.71 Z M163.064,523.71 C163.064,523.066 162.854,522.548 162.434,522.156 C162.028,521.764 161.51,521.568 160.908,521.568 C160.306,521.568 159.788,521.764 159.368,522.156 C158.962,522.548 158.752,523.066 158.752,523.71 C158.752,524.368 158.962,524.9 159.368,525.306 C159.788,525.712 160.306,525.908 160.908,525.908 C161.51,525.908 162.028,525.712 162.434,525.306 C162.854,524.9 163.064,524.368 163.064,523.71 Z M166.032,520.462 L167.306,520.462 L167.306,521.484 C167.74,520.756 168.65,520.322 169.588,520.322 C170.498,520.322 171.282,520.644 171.912,521.274 C172.542,521.904 172.864,522.73 172.864,523.752 C172.864,524.76 172.542,525.572 171.912,526.202 C171.282,526.832 170.512,527.14 169.588,527.14 C168.636,527.14 167.712,526.748 167.306,526.02 L167.306,530.178 L166.032,530.178 L166.032,520.462 Z M167.32,523.766 C167.32,524.424 167.53,524.956 167.964,525.334 C168.398,525.712 168.888,525.894 169.462,525.894 C170.68,525.894 171.576,525.04 171.576,523.766 C171.576,523.122 171.366,522.59 170.96,522.184 C170.554,521.778 170.064,521.568 169.462,521.568 C168.86,521.568 168.356,521.764 167.936,522.17 C167.53,522.562 167.32,523.094 167.32,523.766 Z M179.682,521.484 L179.682,520.462 L180.956,520.462 L180.956,530.178 L179.682,530.178 L179.682,526.02 C179.276,526.748 178.366,527.14 177.4,527.14 C176.476,527.14 175.692,526.832 175.062,526.202 C174.432,525.572 174.124,524.76 174.124,523.752 C174.124,522.73 174.446,521.904 175.076,521.274 C175.706,520.644 176.49,520.322 177.4,520.322 C178.338,520.322 179.276,520.756 179.682,521.484 Z M179.682,523.766 C179.682,523.094 179.472,522.562 179.052,522.17 C178.646,521.764 178.128,521.568 177.526,521.568 C176.924,521.568 176.434,521.778 176.028,522.184 C175.622,522.59 175.426,523.122 175.426,523.766 C175.426,524.396 175.622,524.914 176.028,525.306 C176.434,525.698 176.924,525.894 177.526,525.894 C178.1,525.894 178.59,525.712 179.024,525.334 C179.458,524.956 179.682,524.424 179.682,523.766 Z M184.358,524.62 L184.358,527 L183.084,527 L183.084,520.462 L184.358,520.462 L184.358,521.932 C184.68,520.854 185.282,520.322 186.178,520.322 C186.696,520.322 187.074,520.406 187.312,520.574 L187.116,521.764 C186.808,521.61 186.486,521.54 186.15,521.54 C184.96,521.54 184.358,522.772 184.358,524.62 Z M190.938,524.326 L190.042,524.116 C188.796,523.78 188.18,523.15 188.292,521.988 C188.334,521.512 188.586,521.12 189.02,520.798 C189.454,520.476 189.972,520.322 190.56,520.322 C191.778,520.322 192.716,520.924 192.828,522.17 L191.61,522.17 C191.54,521.708 191.106,521.428 190.588,521.428 C190.098,521.428 189.706,521.666 189.608,522.016 C189.552,522.226 189.552,522.394 189.622,522.534 C189.72,522.744 189.986,522.912 190.392,523.038 L191.358,523.276 C192.492,523.556 193.052,524.186 193.052,525.18 C193.052,525.768 192.8,526.244 192.31,526.608 C191.82,526.958 191.232,527.14 190.518,527.14 C189.888,527.14 189.328,526.944 188.838,526.566 C188.348,526.188 188.096,525.67 188.082,525.04 L189.244,525.04 C189.3,525.39 189.482,525.628 189.776,525.782 C190.07,525.964 190.406,526.034 190.812,526.006 C191.414,525.964 191.792,525.614 191.806,525.152 C191.82,524.704 191.484,524.452 190.938,524.326 Z M196.468,517.998 L196.468,520.462 L197.854,520.462 L197.854,521.54 L196.468,521.54 L196.468,527 L195.194,527 L195.194,521.54 L194.018,521.54 L194.018,520.462 L195.194,520.462 L195.194,517.998 L196.468,517.998 Z M203.776,523.99 L203.776,520.462 L205.05,520.462 L205.05,527 L203.776,527 L203.776,526.02 C203.398,526.748 202.544,527.14 201.746,527.14 C200.122,527.14 199.212,526.09 199.226,524.242 L199.226,520.462 L200.5,520.462 L200.5,524.158 C200.5,525.236 201.032,525.894 201.928,525.894 C202.978,525.894 203.776,525.292 203.776,523.99 Z M210.279,527 L210.286,527 L210.279,527 Z M210.279,527 L209.054,527 L206.338,520.462 L207.682,520.462 L209.67,525.376 L211.644,520.462 L213.002,520.462 L210.272,527 L210.279,527 Z M224.006,520.462 L221.584,527 L220.534,527 L218.756,522.198 L217.034,527 L215.998,527 L213.506,520.462 L214.864,520.462 L216.502,525.04 L218.14,520.462 L219.372,520.462 L221.01,525.04 L222.648,520.462 L224.006,520.462 Z M227.058,523.416 L224.93,520.462 L226.456,520.462 L227.8,522.38 L229.158,520.462 L230.684,520.462 L228.542,523.416 L231.132,527 L229.62,527 L227.8,524.466 L225.966,527 L224.468,527 L227.058,523.416 Z M238.188,520.462 L234.128,530.178 L232.798,530.178 L234.17,526.804 L231.552,520.462 L232.91,520.462 L234.87,525.194 L236.83,520.462 L238.188,520.462 Z M239.238,520.462 L244.768,520.462 L244.768,521.512 L240.806,525.782 L244.768,525.782 L244.768,527 L239.014,527 L239.014,525.95 L242.906,521.68 L239.238,521.68 L239.238,520.462 Z M115.009,547.45 C115.009,546.064 115.205,545.028 115.667,544.132 C116.157,543.236 117.053,542.746 118.327,542.746 C119.615,542.746 120.511,543.236 120.973,544.132 C121.463,545.028 121.631,546.05 121.631,547.45 C121.631,548.836 121.463,549.844 120.973,550.74 C120.511,551.636 119.601,552.126 118.327,552.126 C115.709,552.126 115.009,550.012 115.009,547.45 Z M116.269,547.45 C116.269,549.578 116.801,550.88 118.327,550.88 C119.853,550.88 120.385,549.578 120.385,547.45 C120.385,545.308 119.853,544.006 118.327,544.006 C116.801,544.006 116.269,545.308 116.269,547.45 Z M125.887,552 L124.627,552 L124.627,544.454 L123.143,544.972 L123.143,543.768 L125.887,542.774 L125.887,552 Z M128.071,552 L128.071,551.44 L131.781,546.946 C132.229,546.428 132.453,545.924 132.453,545.448 C132.453,544.594 131.739,544.006 130.829,544.006 C129.989,544.006 129.303,544.552 129.177,545.448 L127.959,545.154 C128.085,544.426 128.407,543.838 128.939,543.404 C129.471,542.97 130.101,542.746 130.829,542.746 C131.641,542.746 132.327,542.998 132.873,543.502 C133.419,544.006 133.699,544.65 133.699,545.448 C133.699,546.274 133.363,547.058 132.705,547.814 L130.227,550.74 L133.713,550.74 L133.713,552 L128.071,552 Z M136.681,544.818 L135.743,544.076 C136.247,543.194 137.269,542.662 138.389,542.732 C139.131,542.774 139.733,543.04 140.209,543.544 C140.699,544.034 140.923,544.608 140.909,545.266 C140.909,545.448 140.881,545.63 140.825,545.826 C140.657,546.372 140.321,546.792 139.831,547.072 C140.293,547.24 140.657,547.562 140.923,548.052 C141.203,548.542 141.315,549.032 141.273,549.536 C141.203,550.306 140.839,550.95 140.181,551.454 C139.523,551.958 138.781,552.182 137.927,552.112 C136.737,552.042 135.701,551.272 135.211,550.208 L136.317,549.606 C136.611,550.264 137.311,550.81 138.025,550.866 L138.011,550.866 C138.529,550.894 138.977,550.768 139.369,550.474 C139.775,550.18 139.985,549.802 139.999,549.368 C140.013,548.934 139.831,548.542 139.481,548.22 C139.131,547.898 138.725,547.73 138.235,547.73 L137.199,547.73 L137.199,546.512 L138.235,546.512 C138.865,546.526 139.383,546.078 139.495,545.462 C139.565,545.084 139.509,544.762 139.341,544.524 C139.131,544.202 138.767,544.02 138.277,543.992 C137.619,543.936 137.087,544.216 136.681,544.818 Z M149.785,550.124 L148.469,550.124 L148.469,552 L147.223,552 L147.223,550.124 L142.463,550.124 L147.531,542.858 L148.469,542.858 L148.469,548.934 L149.785,548.934 L149.785,550.124 Z M147.223,545.126 L144.605,548.934 L147.223,548.934 L147.223,545.126 Z M151.059,550.054 L152.137,549.466 C152.487,550.362 153.243,550.922 154.097,550.922 C155.553,550.922 156.295,550.166 156.295,549.06 C156.295,547.94 155.483,547.31 154.405,547.31 C154.013,547.31 153.663,547.366 153.341,547.478 C153.019,547.576 152.627,547.772 152.137,548.066 L151.353,547.422 L152.151,542.872 L157.023,542.872 L157.023,544.076 L153.187,544.076 L152.683,546.666 C153.089,546.372 153.845,546.134 154.405,546.134 C155.287,546.134 156.029,546.4 156.631,546.918 C157.233,547.436 157.527,548.15 157.527,549.06 C157.527,549.998 157.205,550.74 156.575,551.3 C155.945,551.86 155.119,552.14 154.097,552.14 C152.809,552.14 151.619,551.328 151.059,550.054 Z M165.297,544.51 L164.177,544.986 C163.827,544.286 163.309,543.936 162.623,543.936 C161.993,543.936 161.475,544.244 161.097,544.846 C160.719,545.448 160.579,546.204 160.663,547.128 C160.929,546.442 161.559,546.092 162.539,546.092 C163.351,546.092 164.037,546.414 164.583,547.044 C165.129,547.674 165.395,548.402 165.367,549.228 C165.325,550.054 165.003,550.754 164.415,551.328 C163.827,551.902 163.127,552.168 162.301,552.126 C160.677,552.056 159.543,550.88 159.389,548.99 C159.305,547.842 159.361,546.694 159.543,545.532 C159.683,544.692 160.033,544.006 160.593,543.488 C161.167,542.97 161.853,542.718 162.679,542.746 C163.841,542.802 164.737,543.236 165.297,544.51 Z M160.649,549.032 C160.649,549.536 160.817,549.956 161.139,550.306 C161.475,550.656 161.881,550.838 162.357,550.852 C162.833,550.866 163.239,550.726 163.575,550.404 C163.925,550.082 164.107,549.662 164.121,549.172 C164.163,548.178 163.463,547.394 162.497,547.352 C162.007,547.338 161.587,547.492 161.223,547.814 C160.859,548.136 160.663,548.542 160.649,549.032 Z M166.935,542.858 L173.249,542.858 L168.237,552 L166.767,552 L171.121,544.104 L166.935,544.104 L166.935,542.858 Z M174.775,545.084 C174.775,544.426 175.013,543.88 175.475,543.432 C175.937,542.97 176.525,542.746 177.211,542.746 C177.897,542.746 178.485,542.97 178.961,543.432 C179.437,543.88 179.675,544.426 179.675,545.084 C179.675,545.728 179.437,546.26 178.961,546.694 C179.843,547.24 180.361,548.136 180.361,549.144 C180.361,549.97 180.053,550.684 179.451,551.258 C178.849,551.832 178.093,552.126 177.211,552.126 C176.315,552.126 175.559,551.846 174.957,551.272 C174.355,550.698 174.061,549.984 174.061,549.144 C174.061,548.136 174.593,547.212 175.447,546.694 C174.999,546.26 174.775,545.728 174.775,545.084 Z M175.321,549.144 C175.321,549.634 175.503,550.04 175.867,550.376 C176.231,550.712 176.679,550.88 177.211,550.88 C177.743,550.88 178.191,550.712 178.555,550.376 C178.919,550.04 179.101,549.634 179.101,549.144 C179.101,548.654 178.919,548.248 178.555,547.898 C178.191,547.548 177.743,547.38 177.211,547.38 L177.113,547.38 C176.609,547.394 176.189,547.576 175.839,547.926 C175.489,548.276 175.321,548.682 175.321,549.144 Z M177.141,546.204 L177.253,546.204 C177.925,546.19 178.415,545.686 178.415,545.084 C178.415,544.482 177.897,544.006 177.211,544.006 C176.539,544.006 176.021,544.482 176.021,545.084 C176.021,545.686 176.511,546.19 177.141,546.204 Z M182.069,550.376 L183.189,549.9 C183.539,550.6 184.057,550.95 184.743,550.95 C185.373,550.95 185.877,550.656 186.255,550.054 C186.633,549.452 186.787,548.682 186.703,547.758 C186.437,548.444 185.807,548.794 184.827,548.794 C184.015,548.794 183.329,548.486 182.783,547.856 C182.237,547.226 181.971,546.484 181.999,545.658 C182.041,544.832 182.363,544.132 182.951,543.558 C183.539,542.984 184.239,542.718 185.065,542.76 C186.689,542.83 187.823,544.006 187.977,545.896 C188.061,547.044 188.005,548.192 187.823,549.354 C187.683,550.194 187.333,550.88 186.759,551.398 C186.199,551.916 185.513,552.168 184.687,552.14 C183.525,552.084 182.629,551.65 182.069,550.376 Z M186.717,545.854 C186.717,545.35 186.549,544.93 186.213,544.58 C185.891,544.23 185.485,544.048 185.009,544.034 C184.533,544.02 184.127,544.174 183.777,544.496 C183.441,544.818 183.259,545.224 183.245,545.714 C183.203,546.708 183.903,547.492 184.869,547.534 C185.359,547.548 185.779,547.408 186.143,547.086 C186.507,546.764 186.703,546.344 186.717,545.854 Z" id="ABCDEFGHIJKLMNOPQRST"></path>
        </g>
    </g>
</svg>