<?xml version="1.0" encoding="UTF-8"?>
<svg width="28px" height="24px" viewBox="0 0 28 24" version="1.1" xmlns="http://www.w3.org/2000/svg" xmlns:xlink="http://www.w3.org/1999/xlink">
    <!-- Generator: Sketch 47.1 (45422) - http://www.bohemiancoding.com/sketch -->
    <title>Icons / Social Media / Artstation</title>
    <desc>Created with Sketch.</desc>
    <defs></defs>
    <g id="Symbols" stroke="none" stroke-width="1" fill="none" fill-rule="evenodd">
        <g id="Icons-/-Social-Media-/-Artstation" fill="#999999">
            <g id="Group">
                <path d="M0,18.3718769 L2.28738462,22.3251077 L2.288,22.3257231 C2.73846154,23.2180308 3.66215385,23.8297231 4.72984615,23.8297231 L4.73169231,23.8297231 L4.73169231,23.8297231 L19.9113846,23.8297231 L16.7618462,18.3718769 L0,18.3718769 Z" id="Fill-1"></path>
                <path d="M27.0769231,18.3999385 C27.0769231,17.8534769 26.9156923,17.3445538 26.6393846,16.9174769 L17.7446154,1.45409231 C17.2849231,0.589476923 16.3753846,-6.15384615e-05 15.328,-6.15384615e-05 L10.6270769,-6.15384615e-05 L24.3667692,23.8060923 L26.5329231,20.0553231 C26.96,19.3365538 27.0769231,19.0184 27.0769231,18.3999385" id="Fill-3"></path>
                <polygon id="Fill-5" points="14.5213538 14.4937231 8.38043077 3.8568 2.23889231 14.4937231"></polygon>
            </g>
        </g>
    </g>
</svg>